<ttFont>
<head>
    <!-- Most of this table will be recalculated by the compiler -->
    <tableVersion value="1.0"/>
    <fontRevision value="2.202"/>
    <checkSumAdjustment value="0xfae3087"/>
    <magicNumber value="0x5f0f3cf5"/>
    <flags value="00000000 00000001"/>
    <unitsPerEm value="1000"/>
    <created value="Thu Mar 17 16:28:02 2016"/>
    <modified value="Thu Mar 17 16:31:56 2016"/>
    <xMin value="-130"/>
    <yMin value="-251"/>
    <xMax value="976"/>
    <yMax value="1015"/>
    <macStyle value="00000000 00000010"/>
    <lowestRecPPEM value="5"/>
    <fontDirectionHint value="2"/>
    <indexToLocFormat value="0"/>
    <glyphDataFormat value="0"/>
  </head>
    <TTGlyph name=".notdef" xMin="0" yMin="-200" xMax="500" yMax="800">
      <contour>
        <pt x="0" y="-200" on="1"/>
        <pt x="0" y="800" on="1"/>
        <pt x="500" y="800" on="1"/>
        <pt x="500" y="-200" on="1"/>
      </contour>
      <contour>
        <pt x="71" y="750" on="1"/>
        <pt x="250" y="360" on="1"/>
        <pt x="429" y="750" on="1"/>
      </contour>
      <contour>
        <pt x="450" y="676" on="1"/>
        <pt x="278" y="300" on="1"/>
        <pt x="450" y="-76" on="1"/>
      </contour>
      <contour>
        <pt x="50" y="-76" on="1"/>
        <pt x="222" y="300" on="1"/>
        <pt x="50" y="676" on="1"/>
      </contour>
      <contour>
        <pt x="250" y="240" on="1"/>
        <pt x="71" y="-150" on="1"/>
        <pt x="429" y="-150" on="1"/>
      </contour>
    </TTGlyph>
    <TTGlyph name="A" xMin="-26" yMin="-8" xMax="555" yMax="692">
      <contour>
        <pt x="389" y="-8" on="1"/>
        <pt x="373" y="143" on="1"/>
        <pt x="195" y="143" on="1"/>
        <pt x="137" y="0" on="1"/>
        <pt x="-26" y="0" on="1"/>
        <pt x="277" y="692" on="1"/>
        <pt x="460" y="692" on="1"/>
        <pt x="555" y="19" on="1"/>
      </contour>
      <contour>
        <pt x="338" y="512" on="1"/>
        <pt x="244" y="274" on="1"/>
        <pt x="363" y="274" on="1"/>
      </contour>
    </TTGlyph>
    <TTGlyph name="A.flat" xMin="-26" yMin="0" xMax="558" yMax="692">
      <contour>
        <pt x="338" y="512" on="1"/>
        <pt x="244" y="274" on="1"/>
        <pt x="363" y="274" on="1"/>
      </contour>
      <contour>
        <pt x="389" y="0" on="1"/>
        <pt x="374" y="143" on="1"/>
        <pt x="195" y="143" on="1"/>
        <pt x="137" y="0" on="1"/>
        <pt x="-26" y="0" on="1"/>
        <pt x="277" y="692" on="1"/>
        <pt x="460" y="692" on="1"/>
        <pt x="558" y="0" on="1"/>
      </contour>
    </TTGlyph>
    <TTGlyph name="AE" xMin="-42" yMin="0" xMax="827" yMax="690">
      <contour>
        <pt x="389" y="274" on="1"/>
        <pt x="435" y="584" on="1"/>
        <pt x="269" y="274" on="1"/>
      </contour>
      <contour>
        <pt x="348" y="0" on="1"/>
        <pt x="369" y="144" on="1"/>
        <pt x="201" y="144" on="1"/>
        <pt x="120" y="0" on="1"/>
        <pt x="-42" y="0" on="1"/>
        <pt x="347" y="690" on="1"/>
        <pt x="827" y="690" on="1"/>
        <pt x="807" y="554" on="1"/>
        <pt x="595" y="554" on="1"/>
        <pt x="576" y="425" on="1"/>
        <pt x="731" y="425" on="1"/>
        <pt x="731" y="288" on="1"/>
        <pt x="555" y="288" on="1"/>
        <pt x="532" y="136" on="1"/>
        <pt x="753" y="136" on="1"/>
        <pt x="732" y="0" on="1"/>
      </contour>
    </TTGlyph>
    <TTGlyph name="AE.flat" xMin="-42" yMin="0" xMax="827" yMax="690">
      <contour>
        <pt x="389" y="274" on="1"/>
        <pt x="435" y="584" on="1"/>
        <pt x="269" y="274" on="1"/>
      </contour>
      <contour>
        <pt x="348" y="0" on="1"/>
        <pt x="369" y="144" on="1"/>
        <pt x="201" y="144" on="1"/>
        <pt x="120" y="0" on="1"/>
        <pt x="-42" y="0" on="1"/>
        <pt x="347" y="690" on="1"/>
        <pt x="827" y="690" on="1"/>
        <pt x="807" y="554" on="1"/>
        <pt x="595" y="554" on="1"/>
        <pt x="576" y="425" on="1"/>
        <pt x="740" y="425" on="1"/>
        <pt x="720" y="288" on="1"/>
        <pt x="555" y="288" on="1"/>
        <pt x="532" y="136" on="1"/>
        <pt x="753" y="136" on="1"/>
        <pt x="732" y="0" on="1"/>
      </contour>
    </TTGlyph>
    <TTGlyph name="AEacute" xMin="-42" yMin="0" xMax="827" yMax="885">
      <component glyphName="AE" x="0" y="0" flags="0x204"/>
      <component glyphName="acute" x="346" y="194" flags="0x4"/>
    </TTGlyph>
    <TTGlyph name="AEacute.flat" xMin="-42" yMin="0" xMax="827" yMax="885">
      <component glyphName="AE.flat" x="0" y="0" flags="0x204"/>
      <component glyphName="acute" x="346" y="194" flags="0x4"/>
    </TTGlyph>
    <TTGlyph name="Aacute" xMin="-26" yMin="-8" xMax="565" yMax="893">
      <component glyphName="A" x="0" y="0" flags="0x204"/>
      <component glyphName="acute" x="187" y="202" flags="0x4"/>
    </TTGlyph>
    <TTGlyph name="Aacute.flat" xMin="-26" yMin="0" xMax="565" yMax="893">
      <component glyphName="A.flat" x="0" y="0" flags="0x204"/>
      <component glyphName="acute" x="187" y="202" flags="0x4"/>
    </TTGlyph>
    <TTGlyph name="Abreve" xMin="-26" yMin="-8" xMax="555" yMax="890">
      <component glyphName="A" x="0" y="0" flags="0x204"/>
      <component glyphName="breve" x="136" y="202" flags="0x4"/>
    </TTGlyph>
    <TTGlyph name="Abreve.flat" xMin="-26" yMin="0" xMax="558" yMax="890">
      <component glyphName="A.flat" x="0" y="0" flags="0x204"/>
      <component glyphName="breve" x="136" y="202" flags="0x4"/>
    </TTGlyph>
    <TTGlyph name="Acircumflex" xMin="-26" yMin="-8" xMax="555" yMax="887">
      <component glyphName="A" x="0" y="0" flags="0x204"/>
      <component glyphName="circumflex" x="133" y="199" flags="0x4"/>
    </TTGlyph>
    <TTGlyph name="Acircumflex.flat" xMin="-26" yMin="0" xMax="558" yMax="887">
      <component glyphName="A.flat" x="0" y="0" flags="0x204"/>
      <component glyphName="circumflex" x="133" y="199" flags="0x4"/>
    </TTGlyph>
    <TTGlyph name="Adieresis" xMin="-26" yMin="-8" xMax="555" yMax="874">
      <component glyphName="A" x="0" y="0" flags="0x204"/>
      <component glyphName="dieresis" x="135" y="202" flags="0x4"/>
    </TTGlyph>
    <TTGlyph name="Adieresis.flat" xMin="-26" yMin="0" xMax="558" yMax="874">
      <component glyphName="A.flat" x="0" y="0" flags="0x204"/>
      <component glyphName="dieresis" x="135" y="202" flags="0x4"/>
    </TTGlyph>
    <TTGlyph name="Agrave" xMin="-26" yMin="-8" xMax="555" yMax="893">
      <component glyphName="A" x="0" y="0" flags="0x204"/>
      <component glyphName="grave" x="74" y="202" flags="0x4"/>
    </TTGlyph>
    <TTGlyph name="Agrave.flat" xMin="-26" yMin="0" xMax="558" yMax="893">
      <component glyphName="A.flat" x="0" y="0" flags="0x204"/>
      <component glyphName="grave" x="74" y="202" flags="0x4"/>
    </TTGlyph>
    <TTGlyph name="Amacron" xMin="-26" yMin="-8" xMax="555" yMax="856">
      <component glyphName="A" x="0" y="0" flags="0x204"/>
      <component glyphName="macron" x="135" y="202" flags="0x4"/>
    </TTGlyph>
    <TTGlyph name="Amacron.flat" xMin="-26" yMin="0" xMax="558" yMax="856">
      <component glyphName="A.flat" x="0" y="0" flags="0x204"/>
      <component glyphName="macron" x="135" y="202" flags="0x4"/>
    </TTGlyph>
    <TTGlyph name="Aogonek" xMin="-26" yMin="-198" xMax="555" yMax="692">
      <component glyphName="A" x="0" y="0" flags="0x204"/>
      <component glyphName="ogonek" x="240" y="0" flags="0x4"/>
    </TTGlyph>
    <TTGlyph name="Aogonek.flat" xMin="-26" yMin="-198" xMax="558" yMax="692">
      <component glyphName="A.flat" x="0" y="0" flags="0x204"/>
      <component glyphName="ogonek" x="233" y="0" flags="0x4"/>
    </TTGlyph>
    <TTGlyph name="Aring" xMin="-26" yMin="-8" xMax="555" yMax="847">
      <contour>
        <pt x="389" y="-8" on="1"/>
        <pt x="373" y="143" on="1"/>
        <pt x="195" y="143" on="1"/>
        <pt x="137" y="0" on="1"/>
        <pt x="-26" y="0" on="1"/>
        <pt x="265" y="667" on="1"/>
        <pt x="253" y="680" on="0"/>
        <pt x="240" y="716" on="0"/>
        <pt x="240" y="737" on="1"/>
        <pt x="240" y="786" on="0"/>
        <pt x="311" y="847" on="0"/>
        <pt x="371" y="847" on="1"/>
        <pt x="431" y="847" on="0"/>
        <pt x="501" y="786" on="0"/>
        <pt x="501" y="737" on="1"/>
        <pt x="501" y="712" on="0"/>
        <pt x="482" y="670" on="0"/>
        <pt x="465" y="655" on="1"/>
        <pt x="555" y="19" on="1"/>
      </contour>
      <contour>
        <pt x="371" y="683" on="1"/>
        <pt x="394" y="683" on="0"/>
        <pt x="419" y="713" on="0"/>
        <pt x="419" y="737" on="1"/>
        <pt x="419" y="761" on="0"/>
        <pt x="394" y="791" on="0"/>
        <pt x="371" y="791" on="1"/>
        <pt x="347" y="791" on="0"/>
        <pt x="322" y="761" on="0"/>
        <pt x="322" y="737" on="1"/>
        <pt x="322" y="713" on="0"/>
        <pt x="347" y="683" on="0"/>
      </contour>
      <contour>
        <pt x="338" y="512" on="1"/>
        <pt x="244" y="274" on="1"/>
        <pt x="363" y="274" on="1"/>
      </contour>
    </TTGlyph>
    <TTGlyph name="Aring.flat" xMin="-26" yMin="0" xMax="558" yMax="847">
      <contour>
        <pt x="371" y="683" on="1"/>
        <pt x="394" y="683" on="0"/>
        <pt x="419" y="713" on="0"/>
        <pt x="419" y="737" on="1"/>
        <pt x="419" y="761" on="0"/>
        <pt x="394" y="791" on="0"/>
        <pt x="371" y="791" on="1"/>
        <pt x="347" y="791" on="0"/>
        <pt x="322" y="761" on="0"/>
        <pt x="322" y="737" on="1"/>
        <pt x="322" y="713" on="0"/>
        <pt x="347" y="683" on="0"/>
      </contour>
      <contour>
        <pt x="338" y="512" on="1"/>
        <pt x="244" y="274" on="1"/>
        <pt x="363" y="274" on="1"/>
      </contour>
      <contour>
        <pt x="388" y="0" on="1"/>
        <pt x="373" y="143" on="1"/>
        <pt x="195" y="143" on="1"/>
        <pt x="137" y="0" on="1"/>
        <pt x="-26" y="0" on="1"/>
        <pt x="265" y="667" on="1"/>
        <pt x="253" y="680" on="0"/>
        <pt x="240" y="716" on="0"/>
        <pt x="240" y="737" on="1"/>
        <pt x="240" y="786" on="0"/>
        <pt x="311" y="847" on="0"/>
        <pt x="371" y="847" on="1"/>
        <pt x="431" y="847" on="0"/>
        <pt x="501" y="786" on="0"/>
        <pt x="501" y="737" on="1"/>
        <pt x="501" y="712" on="0"/>
        <pt x="482" y="670" on="0"/>
        <pt x="465" y="655" on="1"/>
        <pt x="558" y="0" on="1"/>
      </contour>
    </TTGlyph>
    <TTGlyph name="Aringacute" xMin="-26" yMin="-8" xMax="581" yMax="1015">
      <component glyphName="Aring" x="0" y="0" flags="0x204"/>
      <component glyphName="acute" x="203" y="324" flags="0x4"/>
    </TTGlyph>
    <TTGlyph name="Aringacute.flat" xMin="-26" yMin="0" xMax="588" yMax="1015">
      <component glyphName="Aring.flat" x="0" y="0" flags="0x4"/>
      <component glyphName="acute" x="210" y="324" flags="0x4"/>
    </TTGlyph>
    <TTGlyph name="Atilde" xMin="-26" yMin="-8" xMax="555" yMax="897">
      <component glyphName="A" x="0" y="0" flags="0x204"/>
      <component glyphName="tilde" x="137" y="202" flags="0x4"/>
    </TTGlyph>
    <TTGlyph name="Atilde.flat" xMin="-26" yMin="0" xMax="558" yMax="897">
      <component glyphName="A.flat" x="0" y="0" flags="0x204"/>
      <component glyphName="tilde" x="137" y="202" flags="0x4"/>
    </TTGlyph>
    <TTGlyph name="B" xMin="14" yMin="0" xMax="530" yMax="690">
      <contour>
        <pt x="530" y="528" on="1"/>
        <pt x="530" y="463" on="0"/>
        <pt x="456" y="382" on="0"/>
        <pt x="410" y="363" on="1"/>
        <pt x="451" y="344" on="0"/>
        <pt x="506" y="269" on="0"/>
        <pt x="506" y="215" on="1"/>
        <pt x="506" y="116" on="0"/>
        <pt x="359" y="0" on="0"/>
        <pt x="230" y="0" on="1"/>
        <pt x="14" y="0" on="1"/>
        <pt x="117" y="690" on="1"/>
        <pt x="304" y="690" on="1"/>
        <pt x="420" y="690" on="0"/>
        <pt x="530" y="599" on="0"/>
      </contour>
      <contour>
        <pt x="372" y="504" on="1"/>
        <pt x="372" y="537" on="0"/>
        <pt x="330" y="574" on="0"/>
        <pt x="287" y="574" on="1"/>
        <pt x="259" y="574" on="1"/>
        <pt x="236" y="410" on="1"/>
        <pt x="270" y="410" on="1"/>
        <pt x="313" y="410" on="0"/>
        <pt x="372" y="461" on="0"/>
      </contour>
      <contour>
        <pt x="344" y="217" on="1"/>
        <pt x="344" y="260" on="0"/>
        <pt x="293" y="301" on="0"/>
        <pt x="247" y="301" on="1"/>
        <pt x="219" y="301" on="1"/>
        <pt x="191" y="116" on="1"/>
        <pt x="230" y="116" on="1"/>
        <pt x="279" y="116" on="0"/>
        <pt x="344" y="171" on="0"/>
      </contour>
    </TTGlyph>
    <TTGlyph name="C" xMin="37" yMin="-11" xMax="540" yMax="701">
      <contour>
        <pt x="540" y="655" on="1"/>
        <pt x="499" y="511" on="1"/>
        <pt x="474" y="531" on="0"/>
        <pt x="417" y="557" on="0"/>
        <pt x="386" y="557" on="1"/>
        <pt x="346" y="557" on="0"/>
        <pt x="280" y="514" on="0"/>
        <pt x="233" y="442" on="0"/>
        <pt x="208" y="344" on="0"/>
        <pt x="208" y="290" on="1"/>
        <pt x="208" y="210" on="0"/>
        <pt x="272" y="131" on="0"/>
        <pt x="326" y="131" on="1"/>
        <pt x="356" y="131" on="0"/>
        <pt x="420" y="153" on="0"/>
        <pt x="454" y="174" on="1"/>
        <pt x="454" y="29" on="1"/>
        <pt x="423" y="11" on="0"/>
        <pt x="339" y="-11" on="0"/>
        <pt x="293" y="-11" on="1"/>
        <pt x="177" y="-11" on="0"/>
        <pt x="37" y="135" on="0"/>
        <pt x="37" y="275" on="1"/>
        <pt x="37" y="366" on="0"/>
        <pt x="87" y="522" on="0"/>
        <pt x="175" y="636" on="0"/>
        <pt x="300" y="701" on="0"/>
        <pt x="374" y="701" on="1"/>
        <pt x="423" y="701" on="0"/>
        <pt x="506" y="676" on="0"/>
      </contour>
    </TTGlyph>
    <TTGlyph name="Cacute" xMin="37" yMin="-11" xMax="573" yMax="893">
      <component glyphName="C" x="0" y="0" flags="0x204"/>
      <component glyphName="acute" x="195" y="202" flags="0x4"/>
    </TTGlyph>
    <TTGlyph name="Ccaron" xMin="37" yMin="-11" xMax="559" yMax="890">
      <component glyphName="C" x="0" y="0" flags="0x204"/>
      <component glyphName="caron" x="144" y="202" flags="0x4"/>
    </TTGlyph>
    <TTGlyph name="Ccedilla" xMin="37" yMin="-185" xMax="540" yMax="701">
      <component glyphName="C" x="0" y="0" flags="0x204"/>
      <component glyphName="cedilla" x="73" y="-6" flags="0x4"/>
    </TTGlyph>
    <TTGlyph name="Cdotaccent" xMin="37" yMin="-11" xMax="540" yMax="874">
      <component glyphName="C" x="0" y="0" flags="0x204"/>
      <component glyphName="dotaccent" x="144" y="202" flags="0x4"/>
    </TTGlyph>
    <TTGlyph name="D" xMin="14" yMin="0" xMax="590" yMax="690">
      <contour>
        <pt x="590" y="408" on="1"/>
        <pt x="590" y="316" on="0"/>
        <pt x="534" y="159" on="0"/>
        <pt x="480" y="105" on="1"/>
        <pt x="429" y="54" on="0"/>
        <pt x="281" y="0" on="0"/>
        <pt x="180" y="0" on="1"/>
        <pt x="14" y="0" on="1"/>
        <pt x="117" y="690" on="1"/>
        <pt x="285" y="690" on="1"/>
        <pt x="431" y="690" on="0"/>
        <pt x="590" y="546" on="0"/>
      </contour>
      <contour>
        <pt x="421" y="409" on="1"/>
        <pt x="421" y="489" on="0"/>
        <pt x="350" y="561" on="0"/>
        <pt x="287" y="561" on="1"/>
        <pt x="264" y="561" on="1"/>
        <pt x="199" y="129" on="1"/>
        <pt x="214" y="130" on="1"/>
        <pt x="258" y="130" on="0"/>
        <pt x="325" y="160" on="0"/>
        <pt x="348" y="183" on="1"/>
        <pt x="384" y="219" on="0"/>
        <pt x="421" y="346" on="0"/>
      </contour>
    </TTGlyph>
    <TTGlyph name="Dcaron" xMin="14" yMin="0" xMax="590" yMax="882">
      <component glyphName="D" x="0" y="0" flags="0x204"/>
      <component glyphName="caron" x="106" y="194" flags="0x4"/>
    </TTGlyph>
    <TTGlyph name="Dcroat" xMin="25" yMin="0" xMax="613" yMax="690">
      <component glyphName="Eth" x="0" y="0" flags="0x204"/>
    </TTGlyph>
    <TTGlyph name="Dcroat.flat" xMin="12" yMin="0" xMax="613" yMax="690">
      <component glyphName="Eth.flat" x="0" y="0" flags="0x204"/>
    </TTGlyph>
    <TTGlyph name="E" xMin="14" yMin="0" xMax="498" yMax="690">
      <contour>
        <pt x="498" y="690" on="1"/>
        <pt x="478" y="554" on="1"/>
        <pt x="261" y="554" on="1"/>
        <pt x="242" y="425" on="1"/>
        <pt x="402" y="425" on="1"/>
        <pt x="402" y="288" on="1"/>
        <pt x="221" y="288" on="1"/>
        <pt x="198" y="136" on="1"/>
        <pt x="424" y="136" on="1"/>
        <pt x="404" y="0" on="1"/>
        <pt x="14" y="0" on="1"/>
        <pt x="117" y="690" on="1"/>
      </contour>
    </TTGlyph>
    <TTGlyph name="E.flat" xMin="14" yMin="0" xMax="498" yMax="690">
      <contour>
        <pt x="498" y="690" on="1"/>
        <pt x="478" y="554" on="1"/>
        <pt x="261" y="554" on="1"/>
        <pt x="242" y="425" on="1"/>
        <pt x="412" y="425" on="1"/>
        <pt x="392" y="288" on="1"/>
        <pt x="221" y="288" on="1"/>
        <pt x="198" y="136" on="1"/>
        <pt x="424" y="136" on="1"/>
        <pt x="404" y="0" on="1"/>
        <pt x="14" y="0" on="1"/>
        <pt x="117" y="690" on="1"/>
      </contour>
    </TTGlyph>
    <TTGlyph name="Eacute" xMin="14" yMin="0" xMax="505" yMax="885">
      <component glyphName="E" x="0" y="0" flags="0x204"/>
      <component glyphName="acute" x="127" y="194" flags="0x4"/>
    </TTGlyph>
    <TTGlyph name="Eacute.flat" xMin="14" yMin="0" xMax="505" yMax="885">
      <component glyphName="E.flat" x="0" y="0" flags="0x204"/>
      <component glyphName="acute" x="127" y="194" flags="0x4"/>
    </TTGlyph>
    <TTGlyph name="Ebreve" xMin="14" yMin="0" xMax="498" yMax="882">
      <component glyphName="E" x="0" y="0" flags="0x204"/>
      <component glyphName="breve" x="76" y="194" flags="0x4"/>
    </TTGlyph>
    <TTGlyph name="Ebreve.flat" xMin="14" yMin="0" xMax="498" yMax="882">
      <component glyphName="E.flat" x="0" y="0" flags="0x204"/>
      <component glyphName="breve" x="76" y="194" flags="0x4"/>
    </TTGlyph>
    <TTGlyph name="Ecaron" xMin="14" yMin="0" xMax="498" yMax="882">
      <component glyphName="E" x="0" y="0" flags="0x204"/>
      <component glyphName="caron" x="76" y="194" flags="0x4"/>
    </TTGlyph>
    <TTGlyph name="Ecaron.flat" xMin="14" yMin="0" xMax="498" yMax="882">
      <component glyphName="E.flat" x="0" y="0" flags="0x204"/>
      <component glyphName="caron" x="76" y="194" flags="0x4"/>
    </TTGlyph>
    <TTGlyph name="Ecircumflex" xMin="14" yMin="0" xMax="498" yMax="882">
      <component glyphName="E" x="0" y="0" flags="0x204"/>
      <component glyphName="circumflex" x="73" y="194" flags="0x4"/>
    </TTGlyph>
    <TTGlyph name="Ecircumflex.flat" xMin="14" yMin="0" xMax="498" yMax="882">
      <component glyphName="E.flat" x="0" y="0" flags="0x204"/>
      <component glyphName="circumflex" x="73" y="194" flags="0x4"/>
    </TTGlyph>
    <TTGlyph name="Edieresis" xMin="14" yMin="0" xMax="498" yMax="866">
      <component glyphName="E" x="0" y="0" flags="0x204"/>
      <component glyphName="dieresis" x="75" y="194" flags="0x4"/>
    </TTGlyph>
    <TTGlyph name="Edieresis.flat" xMin="14" yMin="0" xMax="498" yMax="866">
      <component glyphName="E.flat" x="0" y="0" flags="0x204"/>
      <component glyphName="dieresis" x="75" y="194" flags="0x4"/>
    </TTGlyph>
    <TTGlyph name="Edotaccent" xMin="14" yMin="0" xMax="498" yMax="866">
      <component glyphName="E" x="0" y="0" flags="0x204"/>
      <component glyphName="dotaccent" x="76" y="194" flags="0x4"/>
    </TTGlyph>
    <TTGlyph name="Edotaccent.flat" xMin="14" yMin="0" xMax="498" yMax="866">
      <component glyphName="E.flat" x="0" y="0" flags="0x204"/>
      <component glyphName="dotaccent" x="76" y="194" flags="0x4"/>
    </TTGlyph>
    <TTGlyph name="Egrave" xMin="14" yMin="0" xMax="498" yMax="885">
      <component glyphName="E" x="0" y="0" flags="0x204"/>
      <component glyphName="grave" x="14" y="194" flags="0x4"/>
    </TTGlyph>
    <TTGlyph name="Egrave.flat" xMin="14" yMin="0" xMax="498" yMax="885">
      <component glyphName="E.flat" x="0" y="0" flags="0x204"/>
      <component glyphName="grave" x="14" y="194" flags="0x4"/>
    </TTGlyph>
    <TTGlyph name="Emacron" xMin="14" yMin="0" xMax="498" yMax="848">
      <component glyphName="E" x="0" y="0" flags="0x204"/>
      <component glyphName="macron" x="75" y="194" flags="0x4"/>
    </TTGlyph>
    <TTGlyph name="Emacron.flat" xMin="14" yMin="0" xMax="498" yMax="848">
      <component glyphName="E.flat" x="0" y="0" flags="0x204"/>
      <component glyphName="macron" x="75" y="194" flags="0x4"/>
    </TTGlyph>
    <TTGlyph name="Eogonek" xMin="14" yMin="-198" xMax="498" yMax="690">
      <component glyphName="E" x="0" y="0" flags="0x204"/>
      <component glyphName="ogonek" x="120" y="0" flags="0x4"/>
    </TTGlyph>
    <TTGlyph name="Eogonek.flat" xMin="14" yMin="-198" xMax="498" yMax="690">
      <component glyphName="E.flat" x="0" y="0" flags="0x204"/>
      <component glyphName="ogonek" x="120" y="0" flags="0x4"/>
    </TTGlyph>
    <TTGlyph name="Eth" xMin="25" yMin="0" xMax="613" yMax="690">
      <contour>
        <pt x="222" y="129" on="1"/>
        <pt x="237" y="130" on="1"/>
        <pt x="281" y="130" on="0"/>
        <pt x="348" y="160" on="0"/>
        <pt x="371" y="183" on="1"/>
        <pt x="407" y="219" on="0"/>
        <pt x="444" y="346" on="0"/>
        <pt x="444" y="409" on="1"/>
        <pt x="444" y="489" on="0"/>
        <pt x="373" y="561" on="0"/>
        <pt x="310" y="561" on="1"/>
        <pt x="286" y="561" on="1"/>
        <pt x="265" y="421" on="1"/>
        <pt x="354" y="421" on="1"/>
        <pt x="333" y="286" on="1"/>
        <pt x="245" y="286" on="1"/>
      </contour>
      <contour>
        <pt x="203" y="0" on="1"/>
        <pt x="37" y="0" on="1"/>
        <pt x="79" y="283" on="1"/>
        <pt x="25" y="283" on="1"/>
        <pt x="25" y="424" on="1"/>
        <pt x="100" y="424" on="1"/>
        <pt x="140" y="690" on="1"/>
        <pt x="308" y="690" on="1"/>
        <pt x="454" y="690" on="0"/>
        <pt x="613" y="546" on="0"/>
        <pt x="613" y="408" on="1"/>
        <pt x="613" y="316" on="0"/>
        <pt x="558" y="159" on="0"/>
        <pt x="503" y="105" on="1"/>
        <pt x="452" y="54" on="0"/>
        <pt x="304" y="0" on="0"/>
      </contour>
    </TTGlyph>
    <TTGlyph name="Eth.flat" xMin="12" yMin="0" xMax="613" yMax="690">
      <contour>
        <pt x="222" y="129" on="1"/>
        <pt x="237" y="130" on="1"/>
        <pt x="281" y="130" on="0"/>
        <pt x="348" y="160" on="0"/>
        <pt x="371" y="183" on="1"/>
        <pt x="407" y="219" on="0"/>
        <pt x="444" y="346" on="0"/>
        <pt x="444" y="409" on="1"/>
        <pt x="444" y="489" on="0"/>
        <pt x="373" y="561" on="0"/>
        <pt x="310" y="561" on="1"/>
        <pt x="286" y="561" on="1"/>
        <pt x="265" y="421" on="1"/>
        <pt x="354" y="421" on="1"/>
        <pt x="333" y="286" on="1"/>
        <pt x="245" y="286" on="1"/>
      </contour>
      <contour>
        <pt x="203" y="0" on="1"/>
        <pt x="37" y="0" on="1"/>
        <pt x="79" y="283" on="1"/>
        <pt x="12" y="283" on="1"/>
        <pt x="33" y="424" on="1"/>
        <pt x="100" y="424" on="1"/>
        <pt x="140" y="690" on="1"/>
        <pt x="308" y="690" on="1"/>
        <pt x="454" y="690" on="0"/>
        <pt x="613" y="546" on="0"/>
        <pt x="613" y="408" on="1"/>
        <pt x="613" y="316" on="0"/>
        <pt x="558" y="159" on="0"/>
        <pt x="503" y="105" on="1"/>
        <pt x="452" y="54" on="0"/>
        <pt x="304" y="0" on="0"/>
      </contour>
    </TTGlyph>
    <TTGlyph name="Euro" xMin="21" yMin="-12" xMax="588" yMax="696">
      <contour>
        <pt x="502" y="25" on="1"/>
        <pt x="474" y="10" on="0"/>
        <pt x="397" y="-12" on="0"/>
        <pt x="354" y="-12" on="1"/>
        <pt x="237" y="-12" on="0"/>
        <pt x="109" y="114" on="0"/>
        <pt x="98" y="231" on="1"/>
        <pt x="21" y="231" on="1"/>
        <pt x="21" y="307" on="1"/>
        <pt x="96" y="307" on="1"/>
        <pt x="97" y="327" on="0"/>
        <pt x="101" y="366" on="0"/>
        <pt x="104" y="385" on="1"/>
        <pt x="37" y="385" on="1"/>
        <pt x="48" y="461" on="1"/>
        <pt x="124" y="461" on="1"/>
        <pt x="141" y="512" on="0"/>
        <pt x="196" y="598" on="0"/>
        <pt x="270" y="661" on="0"/>
        <pt x="364" y="696" on="0"/>
        <pt x="420" y="696" on="1"/>
        <pt x="473" y="696" on="0"/>
        <pt x="554" y="670" on="0"/>
        <pt x="588" y="648" on="1"/>
        <pt x="547" y="521" on="1"/>
        <pt x="516" y="542" on="0"/>
        <pt x="458" y="566" on="0"/>
        <pt x="424" y="566" on="1"/>
        <pt x="376" y="566" on="0"/>
        <pt x="305" y="510" on="0"/>
        <pt x="283" y="461" on="1"/>
        <pt x="467" y="461" on="1"/>
        <pt x="467" y="385" on="1"/>
        <pt x="260" y="385" on="1"/>
        <pt x="257" y="367" on="0"/>
        <pt x="253" y="328" on="0"/>
        <pt x="252" y="307" on="1"/>
        <pt x="450" y="307" on="1"/>
        <pt x="438" y="231" on="1"/>
        <pt x="256" y="231" on="1"/>
        <pt x="265" y="174" on="0"/>
        <pt x="324" y="117" on="0"/>
        <pt x="378" y="117" on="1"/>
        <pt x="409" y="117" on="0"/>
        <pt x="471" y="136" on="0"/>
        <pt x="501" y="154" on="1"/>
      </contour>
    </TTGlyph>
    <TTGlyph name="Euro.flat" xMin="15" yMin="-12" xMax="588" yMax="696">
      <contour>
        <pt x="502" y="25" on="1"/>
        <pt x="474" y="10" on="0"/>
        <pt x="397" y="-12" on="0"/>
        <pt x="354" y="-12" on="1"/>
        <pt x="237" y="-12" on="0"/>
        <pt x="109" y="114" on="0"/>
        <pt x="98" y="231" on="1"/>
        <pt x="15" y="231" on="1"/>
        <pt x="26" y="307" on="1"/>
        <pt x="96" y="307" on="1"/>
        <pt x="97" y="327" on="0"/>
        <pt x="101" y="366" on="0"/>
        <pt x="104" y="385" on="1"/>
        <pt x="37" y="385" on="1"/>
        <pt x="48" y="461" on="1"/>
        <pt x="124" y="461" on="1"/>
        <pt x="141" y="512" on="0"/>
        <pt x="196" y="598" on="0"/>
        <pt x="270" y="661" on="0"/>
        <pt x="364" y="696" on="0"/>
        <pt x="420" y="696" on="1"/>
        <pt x="473" y="696" on="0"/>
        <pt x="554" y="670" on="0"/>
        <pt x="588" y="648" on="1"/>
        <pt x="547" y="521" on="1"/>
        <pt x="516" y="542" on="0"/>
        <pt x="458" y="566" on="0"/>
        <pt x="424" y="566" on="1"/>
        <pt x="376" y="566" on="0"/>
        <pt x="305" y="510" on="0"/>
        <pt x="283" y="461" on="1"/>
        <pt x="472" y="461" on="1"/>
        <pt x="461" y="385" on="1"/>
        <pt x="260" y="385" on="1"/>
        <pt x="257" y="367" on="0"/>
        <pt x="253" y="328" on="0"/>
        <pt x="252" y="307" on="1"/>
        <pt x="450" y="307" on="1"/>
        <pt x="438" y="231" on="1"/>
        <pt x="256" y="231" on="1"/>
        <pt x="265" y="174" on="0"/>
        <pt x="324" y="117" on="0"/>
        <pt x="378" y="117" on="1"/>
        <pt x="409" y="117" on="0"/>
        <pt x="471" y="136" on="0"/>
        <pt x="501" y="154" on="1"/>
      </contour>
    </TTGlyph>
    <TTGlyph name="Euro.tab" xMin="24" yMin="-10" xMax="524" yMax="696">
      <contour>
        <pt x="439" y="26" on="1"/>
        <pt x="413" y="11" on="0"/>
        <pt x="344" y="-10" on="0"/>
        <pt x="307" y="-10" on="1"/>
        <pt x="208" y="-10" on="0"/>
        <pt x="92" y="109" on="0"/>
        <pt x="86" y="232" on="1"/>
        <pt x="24" y="232" on="1"/>
        <pt x="24" y="308" on="1"/>
        <pt x="87" y="308" on="1"/>
        <pt x="88" y="327" on="0"/>
        <pt x="92" y="365" on="0"/>
        <pt x="96" y="384" on="1"/>
        <pt x="42" y="384" on="1"/>
        <pt x="55" y="461" on="1"/>
        <pt x="115" y="461" on="1"/>
        <pt x="131" y="512" on="0"/>
        <pt x="181" y="599" on="0"/>
        <pt x="247" y="661" on="0"/>
        <pt x="329" y="696" on="0"/>
        <pt x="376" y="696" on="1"/>
        <pt x="421" y="696" on="0"/>
        <pt x="493" y="672" on="0"/>
        <pt x="524" y="651" on="1"/>
        <pt x="483" y="533" on="1"/>
        <pt x="458" y="553" on="0"/>
        <pt x="407" y="576" on="0"/>
        <pt x="379" y="576" on="1"/>
        <pt x="338" y="576" on="0"/>
        <pt x="274" y="514" on="0"/>
        <pt x="254" y="461" on="1"/>
        <pt x="417" y="461" on="1"/>
        <pt x="417" y="384" on="1"/>
        <pt x="233" y="384" on="1"/>
        <pt x="230" y="366" on="0"/>
        <pt x="225" y="328" on="0"/>
        <pt x="224" y="308" on="1"/>
        <pt x="399" y="308" on="1"/>
        <pt x="386" y="232" on="1"/>
        <pt x="224" y="232" on="1"/>
        <pt x="229" y="163" on="0"/>
        <pt x="288" y="110" on="0"/>
        <pt x="331" y="110" on="1"/>
        <pt x="358" y="110" on="0"/>
        <pt x="413" y="129" on="0"/>
        <pt x="439" y="145" on="1"/>
      </contour>
    </TTGlyph>
    <TTGlyph name="Euro.tab_flat" xMin="19" yMin="-10" xMax="524" yMax="696">
      <contour>
        <pt x="439" y="26" on="1"/>
        <pt x="413" y="11" on="0"/>
        <pt x="344" y="-10" on="0"/>
        <pt x="307" y="-10" on="1"/>
        <pt x="208" y="-10" on="0"/>
        <pt x="92" y="109" on="0"/>
        <pt x="86" y="232" on="1"/>
        <pt x="19" y="232" on="1"/>
        <pt x="30" y="308" on="1"/>
        <pt x="87" y="308" on="1"/>
        <pt x="88" y="327" on="0"/>
        <pt x="92" y="365" on="0"/>
        <pt x="96" y="384" on="1"/>
        <pt x="42" y="384" on="1"/>
        <pt x="55" y="461" on="1"/>
        <pt x="115" y="461" on="1"/>
        <pt x="131" y="512" on="0"/>
        <pt x="181" y="599" on="0"/>
        <pt x="247" y="661" on="0"/>
        <pt x="329" y="696" on="0"/>
        <pt x="376" y="696" on="1"/>
        <pt x="421" y="696" on="0"/>
        <pt x="493" y="672" on="0"/>
        <pt x="524" y="651" on="1"/>
        <pt x="483" y="533" on="1"/>
        <pt x="458" y="553" on="0"/>
        <pt x="407" y="576" on="0"/>
        <pt x="379" y="576" on="1"/>
        <pt x="338" y="576" on="0"/>
        <pt x="274" y="514" on="0"/>
        <pt x="254" y="461" on="1"/>
        <pt x="422" y="461" on="1"/>
        <pt x="411" y="384" on="1"/>
        <pt x="233" y="384" on="1"/>
        <pt x="230" y="366" on="0"/>
        <pt x="225" y="328" on="0"/>
        <pt x="224" y="308" on="1"/>
        <pt x="399" y="308" on="1"/>
        <pt x="386" y="232" on="1"/>
        <pt x="224" y="232" on="1"/>
        <pt x="229" y="163" on="0"/>
        <pt x="288" y="110" on="0"/>
        <pt x="331" y="110" on="1"/>
        <pt x="358" y="110" on="0"/>
        <pt x="413" y="129" on="0"/>
        <pt x="439" y="145" on="1"/>
      </contour>
    </TTGlyph>
    <TTGlyph name="F" xMin="14" yMin="0" xMax="489" yMax="690">
      <contour>
        <pt x="489" y="690" on="1"/>
        <pt x="468" y="548" on="1"/>
        <pt x="262" y="548" on="1"/>
        <pt x="240" y="406" on="1"/>
        <pt x="389" y="406" on="1"/>
        <pt x="389" y="263" on="1"/>
        <pt x="219" y="263" on="1"/>
        <pt x="180" y="0" on="1"/>
        <pt x="14" y="0" on="1"/>
        <pt x="117" y="690" on="1"/>
      </contour>
    </TTGlyph>
    <TTGlyph name="F.flat" xMin="14" yMin="0" xMax="489" yMax="690">
      <contour>
        <pt x="489" y="690" on="1"/>
        <pt x="468" y="548" on="1"/>
        <pt x="262" y="548" on="1"/>
        <pt x="240" y="406" on="1"/>
        <pt x="401" y="406" on="1"/>
        <pt x="379" y="263" on="1"/>
        <pt x="219" y="263" on="1"/>
        <pt x="180" y="0" on="1"/>
        <pt x="14" y="0" on="1"/>
        <pt x="117" y="690" on="1"/>
      </contour>
    </TTGlyph>
    <TTGlyph name="G" xMin="37" yMin="-13" xMax="579" yMax="702">
      <contour>
        <pt x="563" y="396" on="1"/>
        <pt x="511" y="46" on="1"/>
        <pt x="474" y="24" on="0"/>
        <pt x="364" y="-13" on="0"/>
        <pt x="301" y="-13" on="1"/>
        <pt x="177" y="-13" on="0"/>
        <pt x="37" y="138" on="0"/>
        <pt x="37" y="274" on="1"/>
        <pt x="37" y="362" on="0"/>
        <pt x="87" y="519" on="0"/>
        <pt x="178" y="635" on="0"/>
        <pt x="308" y="702" on="0"/>
        <pt x="387" y="702" on="1"/>
        <pt x="444" y="702" on="0"/>
        <pt x="539" y="675" on="0"/>
        <pt x="579" y="653" on="1"/>
        <pt x="534" y="511" on="1"/>
        <pt x="500" y="535" on="0"/>
        <pt x="429" y="560" on="0"/>
        <pt x="392" y="560" on="1"/>
        <pt x="350" y="560" on="0"/>
        <pt x="281" y="516" on="0"/>
        <pt x="233" y="439" on="0"/>
        <pt x="207" y="336" on="0"/>
        <pt x="207" y="277" on="1"/>
        <pt x="207" y="194" on="0"/>
        <pt x="269" y="121" on="0"/>
        <pt x="317" y="121" on="1"/>
        <pt x="337" y="121" on="0"/>
        <pt x="365" y="129" on="0"/>
        <pt x="378" y="136" on="1"/>
        <pt x="397" y="272" on="1"/>
        <pt x="313" y="272" on="1"/>
        <pt x="313" y="396" on="1"/>
      </contour>
    </TTGlyph>
    <TTGlyph name="G.flat" xMin="37" yMin="-13" xMax="579" yMax="702">
      <contour>
        <pt x="563" y="396" on="1"/>
        <pt x="511" y="46" on="1"/>
        <pt x="474" y="24" on="0"/>
        <pt x="364" y="-13" on="0"/>
        <pt x="301" y="-13" on="1"/>
        <pt x="177" y="-13" on="0"/>
        <pt x="37" y="138" on="0"/>
        <pt x="37" y="274" on="1"/>
        <pt x="37" y="362" on="0"/>
        <pt x="87" y="519" on="0"/>
        <pt x="178" y="635" on="0"/>
        <pt x="308" y="702" on="0"/>
        <pt x="387" y="702" on="1"/>
        <pt x="444" y="702" on="0"/>
        <pt x="539" y="675" on="0"/>
        <pt x="579" y="653" on="1"/>
        <pt x="534" y="511" on="1"/>
        <pt x="500" y="535" on="0"/>
        <pt x="429" y="560" on="0"/>
        <pt x="392" y="560" on="1"/>
        <pt x="350" y="560" on="0"/>
        <pt x="281" y="516" on="0"/>
        <pt x="233" y="439" on="0"/>
        <pt x="207" y="336" on="0"/>
        <pt x="207" y="277" on="1"/>
        <pt x="207" y="194" on="0"/>
        <pt x="269" y="121" on="0"/>
        <pt x="317" y="121" on="1"/>
        <pt x="337" y="121" on="0"/>
        <pt x="365" y="129" on="0"/>
        <pt x="378" y="136" on="1"/>
        <pt x="397" y="272" on="1"/>
        <pt x="303" y="272" on="1"/>
        <pt x="322" y="396" on="1"/>
      </contour>
    </TTGlyph>
    <TTGlyph name="Gbreve" xMin="37" yMin="-13" xMax="579" yMax="890">
      <component glyphName="G" x="0" y="0" flags="0x204"/>
      <component glyphName="breve" x="155" y="202" flags="0x4"/>
    </TTGlyph>
    <TTGlyph name="Gbreve.flat" xMin="37" yMin="-13" xMax="579" yMax="890">
      <component glyphName="G.flat" x="0" y="0" flags="0x204"/>
      <component glyphName="breve" x="155" y="202" flags="0x4"/>
    </TTGlyph>
    <TTGlyph name="Gcommaaccent" xMin="37" yMin="-251" xMax="579" yMax="702">
      <component glyphName="G" x="0" y="0" flags="0x204"/>
      <component glyphName="commaaccent" x="94" y="-8" flags="0x4"/>
    </TTGlyph>
    <TTGlyph name="Gcommaaccent.flat" xMin="37" yMin="-251" xMax="579" yMax="702">
      <component glyphName="G.flat" x="0" y="0" flags="0x204"/>
      <component glyphName="commaaccent" x="94" y="-8" flags="0x4"/>
    </TTGlyph>
    <TTGlyph name="Gdotaccent" xMin="37" yMin="-13" xMax="579" yMax="874">
      <component glyphName="G" x="0" y="0" flags="0x204"/>
      <component glyphName="dotaccent" x="155" y="202" flags="0x4"/>
    </TTGlyph>
    <TTGlyph name="Gdotaccent.flat" xMin="37" yMin="-13" xMax="579" yMax="874">
      <component glyphName="G.flat" x="0" y="0" flags="0x204"/>
      <component glyphName="dotaccent" x="155" y="202" flags="0x4"/>
    </TTGlyph>
    <TTGlyph name="H" xMin="14" yMin="0" xMax="625" yMax="690">
      <contour>
        <pt x="625" y="690" on="1"/>
        <pt x="522" y="0" on="1"/>
        <pt x="355" y="0" on="1"/>
        <pt x="397" y="280" on="1"/>
        <pt x="222" y="280" on="1"/>
        <pt x="180" y="0" on="1"/>
        <pt x="14" y="0" on="1"/>
        <pt x="117" y="690" on="1"/>
        <pt x="283" y="690" on="1"/>
        <pt x="244" y="429" on="1"/>
        <pt x="420" y="429" on="1"/>
        <pt x="458" y="690" on="1"/>
      </contour>
    </TTGlyph>
    <TTGlyph name="Hbar" xMin="38" yMin="0" xMax="703" yMax="690">
      <contour>
        <pt x="266" y="418" on="1"/>
        <pt x="440" y="418" on="1"/>
        <pt x="454" y="514" on="1"/>
        <pt x="280" y="514" on="1"/>
      </contour>
      <contour>
        <pt x="246" y="277" on="1"/>
        <pt x="204" y="0" on="1"/>
        <pt x="38" y="0" on="1"/>
        <pt x="113" y="505" on="1"/>
        <pt x="51" y="505" on="1"/>
        <pt x="53" y="616" on="1"/>
        <pt x="130" y="616" on="1"/>
        <pt x="141" y="690" on="1"/>
        <pt x="306" y="690" on="1"/>
        <pt x="295" y="616" on="1"/>
        <pt x="469" y="616" on="1"/>
        <pt x="480" y="690" on="1"/>
        <pt x="646" y="690" on="1"/>
        <pt x="635" y="616" on="1"/>
        <pt x="703" y="616" on="1"/>
        <pt x="687" y="505" on="1"/>
        <pt x="618" y="505" on="1"/>
        <pt x="543" y="0" on="1"/>
        <pt x="376" y="0" on="1"/>
        <pt x="418" y="277" on="1"/>
      </contour>
    </TTGlyph>
    <TTGlyph name="Hbar.flat" xMin="38" yMin="0" xMax="703" yMax="690">
      <contour>
        <pt x="266" y="418" on="1"/>
        <pt x="440" y="418" on="1"/>
        <pt x="454" y="514" on="1"/>
        <pt x="280" y="514" on="1"/>
      </contour>
      <contour>
        <pt x="246" y="277" on="1"/>
        <pt x="204" y="0" on="1"/>
        <pt x="38" y="0" on="1"/>
        <pt x="113" y="505" on="1"/>
        <pt x="45" y="505" on="1"/>
        <pt x="62" y="616" on="1"/>
        <pt x="130" y="616" on="1"/>
        <pt x="141" y="690" on="1"/>
        <pt x="306" y="690" on="1"/>
        <pt x="295" y="616" on="1"/>
        <pt x="469" y="616" on="1"/>
        <pt x="480" y="690" on="1"/>
        <pt x="646" y="690" on="1"/>
        <pt x="635" y="616" on="1"/>
        <pt x="703" y="616" on="1"/>
        <pt x="687" y="505" on="1"/>
        <pt x="618" y="505" on="1"/>
        <pt x="543" y="0" on="1"/>
        <pt x="376" y="0" on="1"/>
        <pt x="418" y="277" on="1"/>
      </contour>
    </TTGlyph>
    <TTGlyph name="I" xMin="17" yMin="0" xMax="286" yMax="690">
      <contour>
        <pt x="286" y="690" on="1"/>
        <pt x="183" y="0" on="1"/>
        <pt x="17" y="0" on="1"/>
        <pt x="17" y="0" on="0"/>
        <pt x="49" y="216" on="0"/>
        <pt x="87" y="474" on="0"/>
        <pt x="119" y="690" on="0"/>
        <pt x="119" y="690" on="1"/>
      </contour>
    </TTGlyph>
    <TTGlyph name="Iacute" xMin="17" yMin="0" xMax="401" yMax="885">
      <component glyphName="I" x="0" y="0" flags="0x204"/>
      <component glyphName="acute" x="23" y="194" flags="0x4"/>
    </TTGlyph>
    <TTGlyph name="Ibreve" xMin="17" yMin="0" xMax="374" yMax="882">
      <component glyphName="I" x="0" y="0" flags="0x204"/>
      <component glyphName="breve" x="-28" y="194" flags="0x4"/>
    </TTGlyph>
    <TTGlyph name="Icircumflex" xMin="17" yMin="0" xMax="365" yMax="882">
      <component glyphName="I" x="0" y="0" flags="0x204"/>
      <component glyphName="circumflex" x="-31" y="194" flags="0x4"/>
    </TTGlyph>
    <TTGlyph name="Idieresis" xMin="17" yMin="0" xMax="378" yMax="866">
      <component glyphName="I" x="0" y="0" flags="0x204"/>
      <component glyphName="dieresis" x="-29" y="194" flags="0x4"/>
    </TTGlyph>
    <TTGlyph name="Idotaccent" xMin="17" yMin="0" xMax="293" yMax="866">
      <component glyphName="I" x="0" y="0" flags="0x204"/>
      <component glyphName="dotaccent" x="-28" y="194" flags="0x4"/>
    </TTGlyph>
    <TTGlyph name="Igrave" xMin="17" yMin="0" xMax="286" yMax="885">
      <component glyphName="I" x="0" y="0" flags="0x204"/>
      <component glyphName="grave" x="-90" y="194" flags="0x4"/>
    </TTGlyph>
    <TTGlyph name="Imacron" xMin="17" yMin="0" xMax="370" yMax="848">
      <component glyphName="I" x="0" y="0" flags="0x204"/>
      <component glyphName="macron" x="-29" y="194" flags="0x4"/>
    </TTGlyph>
    <TTGlyph name="Iogonek" xMin="-14" yMin="-198" xMax="287" yMax="690">
      <component glyphName="I" x="1" y="0" flags="0x4"/>
      <component glyphName="ogonek" x="-97" y="0" flags="0x4"/>
    </TTGlyph>
    <TTGlyph name="J" xMin="-1" yMin="-6" xMax="396" yMax="690">
      <contour>
        <pt x="396" y="690" on="1"/>
        <pt x="324" y="206" on="1"/>
        <pt x="307" y="91" on="0"/>
        <pt x="192" y="-6" on="0"/>
        <pt x="88" y="-6" on="1"/>
        <pt x="62" y="-6" on="0"/>
        <pt x="16" y="-2" on="0"/>
        <pt x="-1" y="2" on="1"/>
        <pt x="-1" y="146" on="1"/>
        <pt x="15" y="142" on="0"/>
        <pt x="48" y="136" on="0"/>
        <pt x="68" y="136" on="1"/>
        <pt x="104" y="136" on="0"/>
        <pt x="153" y="177" on="0"/>
        <pt x="161" y="231" on="1"/>
        <pt x="230" y="690" on="1"/>
      </contour>
    </TTGlyph>
    <TTGlyph name="K" xMin="14" yMin="-8" xMax="619" yMax="690">
      <contour>
        <pt x="619" y="690" on="1"/>
        <pt x="388" y="354" on="1"/>
        <pt x="528" y="20" on="1"/>
        <pt x="356" y="-8" on="1"/>
        <pt x="228" y="321" on="1"/>
        <pt x="181" y="0" on="1"/>
        <pt x="14" y="0" on="1"/>
        <pt x="14" y="0" on="0"/>
        <pt x="47" y="216" on="0"/>
        <pt x="85" y="474" on="0"/>
        <pt x="117" y="690" on="0"/>
        <pt x="117" y="690" on="1"/>
        <pt x="284" y="690" on="1"/>
        <pt x="239" y="392" on="1"/>
        <pt x="435" y="690" on="1"/>
      </contour>
    </TTGlyph>
    <TTGlyph name="K.flat" xMin="14" yMin="0" xMax="619" yMax="690">
      <contour>
        <pt x="619" y="690" on="1"/>
        <pt x="388" y="354" on="1"/>
        <pt x="536" y="0" on="1"/>
        <pt x="353" y="0" on="1"/>
        <pt x="228" y="321" on="1"/>
        <pt x="181" y="0" on="1"/>
        <pt x="14" y="0" on="1"/>
        <pt x="14" y="0" on="0"/>
        <pt x="47" y="216" on="0"/>
        <pt x="85" y="474" on="0"/>
        <pt x="117" y="690" on="0"/>
        <pt x="117" y="690" on="1"/>
        <pt x="284" y="690" on="1"/>
        <pt x="239" y="392" on="1"/>
        <pt x="435" y="690" on="1"/>
      </contour>
    </TTGlyph>
    <TTGlyph name="Kcommaaccent" xMin="14" yMin="-237" xMax="619" yMax="690">
      <component glyphName="K" x="0" y="0" flags="0x204"/>
      <component glyphName="commaaccent" x="72" y="6" flags="0x4"/>
    </TTGlyph>
    <TTGlyph name="Kcommaaccent.flat" xMin="14" yMin="-237" xMax="619" yMax="690">
      <component glyphName="K.flat" x="0" y="0" flags="0x204"/>
      <component glyphName="commaaccent" x="72" y="6" flags="0x4"/>
    </TTGlyph>
    <TTGlyph name="L" xMin="14" yMin="0" xMax="388" yMax="690">
      <contour>
        <pt x="388" y="0" on="1"/>
        <pt x="14" y="0" on="1"/>
        <pt x="117" y="690" on="1"/>
        <pt x="284" y="690" on="1"/>
        <pt x="202" y="147" on="1"/>
        <pt x="388" y="147" on="1"/>
      </contour>
    </TTGlyph>
    <TTGlyph name="L.flat" xMin="14" yMin="0" xMax="398" yMax="690">
      <contour>
        <pt x="377" y="0" on="1"/>
        <pt x="14" y="0" on="1"/>
        <pt x="117" y="690" on="1"/>
        <pt x="284" y="690" on="1"/>
        <pt x="202" y="147" on="1"/>
        <pt x="398" y="147" on="1"/>
      </contour>
    </TTGlyph>
    <TTGlyph name="Lacute" xMin="14" yMin="0" xMax="406" yMax="886">
      <component glyphName="L" x="0" y="0" flags="0x204"/>
      <component glyphName="acute" x="28" y="195" flags="0x4"/>
    </TTGlyph>
    <TTGlyph name="Lacute.flat" xMin="14" yMin="0" xMax="406" yMax="886">
      <component glyphName="L.flat" x="0" y="0" flags="0x204"/>
      <component glyphName="acute" x="28" y="195" flags="0x4"/>
    </TTGlyph>
    <TTGlyph name="Lcaron" xMin="14" yMin="0" xMax="445" yMax="696">
      <component glyphName="L" x="0" y="0" flags="0x204"/>
      <component glyphName="caron.alt" x="119" y="-12" flags="0x4"/>
    </TTGlyph>
    <TTGlyph name="Lcaron.flat" xMin="14" yMin="0" xMax="443" yMax="696">
      <component glyphName="L.flat" x="0" y="0" flags="0x204"/>
      <component glyphName="caron.alt" x="117" y="-12" flags="0x4"/>
    </TTGlyph>
    <TTGlyph name="Lcommaaccent" xMin="14" yMin="-243" xMax="388" yMax="690">
      <component glyphName="L" x="0" y="0" flags="0x204"/>
      <component glyphName="commaaccent" x="1" y="0" flags="0x4"/>
    </TTGlyph>
    <TTGlyph name="Lcommaaccent.flat" xMin="14" yMin="-243" xMax="398" yMax="690">
      <component glyphName="L.flat" x="0" y="0" flags="0x204"/>
      <component glyphName="commaaccent" x="-6" y="0" flags="0x4"/>
    </TTGlyph>
    <TTGlyph name="Ldot" xMin="15" yMin="0" xMax="443" yMax="690">
      <contour>
        <pt x="389" y="0" on="1"/>
        <pt x="15" y="0" on="1"/>
        <pt x="118" y="690" on="1"/>
        <pt x="285" y="690" on="1"/>
        <pt x="203" y="147" on="1"/>
        <pt x="389" y="147" on="1"/>
      </contour>
      <contour>
        <pt x="424" y="305" on="1"/>
        <pt x="303" y="305" on="1"/>
        <pt x="323" y="436" on="1"/>
        <pt x="443" y="436" on="1"/>
      </contour>
    </TTGlyph>
    <TTGlyph name="Ldot.flat" xMin="15" yMin="0" xMax="444" yMax="690">
      <contour>
        <pt x="378" y="0" on="1"/>
        <pt x="15" y="0" on="1"/>
        <pt x="118" y="690" on="1"/>
        <pt x="285" y="690" on="1"/>
        <pt x="203" y="147" on="1"/>
        <pt x="399" y="147" on="1"/>
      </contour>
      <contour>
        <pt x="425" y="305" on="1"/>
        <pt x="304" y="305" on="1"/>
        <pt x="324" y="436" on="1"/>
        <pt x="444" y="436" on="1"/>
      </contour>
    </TTGlyph>
    <TTGlyph name="Lslash" xMin="23" yMin="0" xMax="414" yMax="690">
      <contour>
        <pt x="414" y="0" on="1"/>
        <pt x="40" y="0" on="1"/>
        <pt x="75" y="238" on="1"/>
        <pt x="23" y="214" on="1"/>
        <pt x="23" y="350" on="1"/>
        <pt x="97" y="381" on="1"/>
        <pt x="143" y="690" on="1"/>
        <pt x="310" y="690" on="1"/>
        <pt x="275" y="458" on="1"/>
        <pt x="390" y="509" on="1"/>
        <pt x="367" y="364" on="1"/>
        <pt x="253" y="315" on="1"/>
        <pt x="228" y="147" on="1"/>
        <pt x="414" y="147" on="1"/>
      </contour>
    </TTGlyph>
    <TTGlyph name="Lslash.flat" xMin="7" yMin="0" xMax="420" yMax="690">
      <contour>
        <pt x="408" y="0" on="1"/>
        <pt x="40" y="0" on="1"/>
        <pt x="75" y="238" on="1"/>
        <pt x="7" y="207" on="1"/>
        <pt x="29" y="353" on="1"/>
        <pt x="97" y="382" on="1"/>
        <pt x="143" y="690" on="1"/>
        <pt x="310" y="690" on="1"/>
        <pt x="275" y="458" on="1"/>
        <pt x="390" y="509" on="1"/>
        <pt x="367" y="364" on="1"/>
        <pt x="253" y="315" on="1"/>
        <pt x="228" y="147" on="1"/>
        <pt x="420" y="147" on="1"/>
      </contour>
    </TTGlyph>
    <TTGlyph name="M" xMin="0" yMin="-2" xMax="784" yMax="690">
      <contour>
        <pt x="784" y="690" on="1"/>
        <pt x="724" y="0" on="1"/>
        <pt x="559" y="0" on="1"/>
        <pt x="606" y="474" on="1"/>
        <pt x="431" y="-2" on="1"/>
        <pt x="274" y="-2" on="1"/>
        <pt x="241" y="474" on="1"/>
        <pt x="146" y="0" on="1"/>
        <pt x="0" y="0" on="1"/>
        <pt x="144" y="690" on="1"/>
        <pt x="360" y="690" on="1"/>
        <pt x="396" y="224" on="1"/>
        <pt x="569" y="690" on="1"/>
      </contour>
    </TTGlyph>
    <TTGlyph name="M.alt" xMin="14" yMin="-3" xMax="807" yMax="690">
      <contour>
        <pt x="704" y="0" on="1"/>
        <pt x="545" y="0" on="1"/>
        <pt x="614" y="467" on="1"/>
        <pt x="427" y="-3" on="1"/>
        <pt x="277" y="-3" on="1"/>
        <pt x="227" y="467" on="1"/>
        <pt x="158" y="0" on="1"/>
        <pt x="14" y="0" on="1"/>
        <pt x="117" y="690" on="1"/>
        <pt x="338" y="690" on="1"/>
        <pt x="391" y="221" on="1"/>
        <pt x="582" y="690" on="1"/>
        <pt x="807" y="690" on="1"/>
      </contour>
    </TTGlyph>
    <TTGlyph name="N" xMin="14" yMin="0" xMax="620" yMax="690">
      <contour>
        <pt x="620" y="690" on="1"/>
        <pt x="518" y="0" on="1"/>
        <pt x="380" y="0" on="1"/>
        <pt x="227" y="405" on="1"/>
        <pt x="166" y="0" on="1"/>
        <pt x="14" y="0" on="1"/>
        <pt x="117" y="690" on="1"/>
        <pt x="273" y="690" on="1"/>
        <pt x="412" y="314" on="1"/>
        <pt x="468" y="690" on="1"/>
      </contour>
    </TTGlyph>
    <TTGlyph name="Nacute" xMin="14" yMin="0" xMax="620" yMax="882">
      <component glyphName="N" x="0" y="0" flags="0x204"/>
      <component glyphName="acute" x="186" y="191" flags="0x4"/>
    </TTGlyph>
    <TTGlyph name="Ncaron" xMin="14" yMin="0" xMax="620" yMax="879">
      <component glyphName="N" x="0" y="0" flags="0x204"/>
      <component glyphName="caron" x="135" y="191" flags="0x4"/>
    </TTGlyph>
    <TTGlyph name="Ncommaaccent" xMin="14" yMin="-237" xMax="620" yMax="690">
      <component glyphName="N" x="0" y="0" flags="0x204"/>
      <component glyphName="commaaccent" x="78" y="6" flags="0x4"/>
    </TTGlyph>
    <TTGlyph name="Ntilde" xMin="14" yMin="0" xMax="620" yMax="886">
      <component glyphName="N" x="0" y="0" flags="0x204"/>
      <component glyphName="tilde" x="136" y="191" flags="0x4"/>
    </TTGlyph>
    <TTGlyph name="O" xMin="39" yMin="-13" xMax="610" yMax="703">
      <contour>
        <pt x="291" y="-13" on="1"/>
        <pt x="169" y="-13" on="0"/>
        <pt x="39" y="143" on="0"/>
        <pt x="39" y="273" on="1"/>
        <pt x="39" y="379" on="0"/>
        <pt x="103" y="566" on="0"/>
        <pt x="160" y="623" on="1"/>
        <pt x="200" y="663" on="0"/>
        <pt x="299" y="703" on="0"/>
        <pt x="359" y="703" on="1"/>
        <pt x="481" y="703" on="0"/>
        <pt x="610" y="548" on="0"/>
        <pt x="610" y="417" on="1"/>
        <pt x="610" y="311" on="0"/>
        <pt x="546" y="124" on="0"/>
        <pt x="489" y="67" on="1"/>
        <pt x="449" y="27" on="0"/>
        <pt x="350" y="-13" on="0"/>
      </contour>
      <contour>
        <pt x="294" y="117" on="1"/>
        <pt x="313" y="117" on="0"/>
        <pt x="346" y="134" on="0"/>
        <pt x="359" y="147" on="1"/>
        <pt x="377" y="165" on="0"/>
        <pt x="406" y="227" on="0"/>
        <pt x="428" y="305" on="0"/>
        <pt x="440" y="392" on="0"/>
        <pt x="440" y="434" on="1"/>
        <pt x="440" y="507" on="0"/>
        <pt x="395" y="573" on="0"/>
        <pt x="356" y="573" on="1"/>
        <pt x="337" y="573" on="0"/>
        <pt x="304" y="556" on="0"/>
        <pt x="291" y="543" on="1"/>
        <pt x="273" y="525" on="0"/>
        <pt x="243" y="463" on="0"/>
        <pt x="221" y="385" on="0"/>
        <pt x="209" y="298" on="0"/>
        <pt x="209" y="257" on="1"/>
        <pt x="209" y="183" on="0"/>
        <pt x="255" y="117" on="0"/>
      </contour>
    </TTGlyph>
    <TTGlyph name="OE" xMin="38" yMin="0" xMax="815" yMax="690">
      <contour>
        <pt x="343" y="0" on="1"/>
        <pt x="197" y="0" on="0"/>
        <pt x="38" y="144" on="0"/>
        <pt x="38" y="282" on="1"/>
        <pt x="38" y="374" on="0"/>
        <pt x="94" y="531" on="0"/>
        <pt x="148" y="585" on="1"/>
        <pt x="199" y="636" on="0"/>
        <pt x="347" y="690" on="0"/>
        <pt x="448" y="690" on="1"/>
        <pt x="815" y="690" on="1"/>
        <pt x="795" y="554" on="1"/>
        <pt x="584" y="554" on="1"/>
        <pt x="564" y="425" on="1"/>
        <pt x="719" y="425" on="1"/>
        <pt x="719" y="287" on="1"/>
        <pt x="543" y="287" on="1"/>
        <pt x="521" y="136" on="1"/>
        <pt x="741" y="136" on="1"/>
        <pt x="721" y="0" on="1"/>
      </contour>
      <contour>
        <pt x="342" y="130" on="1"/>
        <pt x="356" y="130" on="1"/>
        <pt x="421" y="560" on="1"/>
        <pt x="413" y="560" on="1"/>
        <pt x="369" y="559" on="0"/>
        <pt x="303" y="529" on="0"/>
        <pt x="280" y="507" on="1"/>
        <pt x="262" y="489" on="0"/>
        <pt x="235" y="437" on="0"/>
        <pt x="216" y="378" on="0"/>
        <pt x="207" y="313" on="0"/>
        <pt x="207" y="282" on="1"/>
        <pt x="207" y="201" on="0"/>
        <pt x="278" y="130" on="0"/>
      </contour>
    </TTGlyph>
    <TTGlyph name="OE.flat" xMin="38" yMin="0" xMax="815" yMax="690">
      <contour>
        <pt x="343" y="0" on="1"/>
        <pt x="197" y="0" on="0"/>
        <pt x="38" y="144" on="0"/>
        <pt x="38" y="282" on="1"/>
        <pt x="38" y="374" on="0"/>
        <pt x="94" y="531" on="0"/>
        <pt x="148" y="585" on="1"/>
        <pt x="199" y="636" on="0"/>
        <pt x="347" y="690" on="0"/>
        <pt x="448" y="690" on="1"/>
        <pt x="815" y="690" on="1"/>
        <pt x="795" y="554" on="1"/>
        <pt x="584" y="554" on="1"/>
        <pt x="564" y="425" on="1"/>
        <pt x="729" y="425" on="1"/>
        <pt x="708" y="287" on="1"/>
        <pt x="543" y="287" on="1"/>
        <pt x="521" y="136" on="1"/>
        <pt x="741" y="136" on="1"/>
        <pt x="721" y="0" on="1"/>
      </contour>
      <contour>
        <pt x="342" y="130" on="1"/>
        <pt x="356" y="130" on="1"/>
        <pt x="421" y="560" on="1"/>
        <pt x="413" y="560" on="1"/>
        <pt x="369" y="559" on="0"/>
        <pt x="303" y="529" on="0"/>
        <pt x="280" y="507" on="1"/>
        <pt x="262" y="489" on="0"/>
        <pt x="235" y="437" on="0"/>
        <pt x="216" y="378" on="0"/>
        <pt x="207" y="313" on="0"/>
        <pt x="207" y="282" on="1"/>
        <pt x="207" y="201" on="0"/>
        <pt x="278" y="130" on="0"/>
      </contour>
    </TTGlyph>
    <TTGlyph name="Oacute" xMin="39" yMin="-13" xMax="610" yMax="893">
      <component glyphName="O" x="0" y="0" flags="0x4"/>
      <component glyphName="acute" x="196" y="202" flags="0x4"/>
    </TTGlyph>
    <TTGlyph name="Obreve" xMin="39" yMin="-13" xMax="610" yMax="890">
      <component glyphName="O" x="0" y="0" flags="0x4"/>
      <component glyphName="breve" x="145" y="202" flags="0x4"/>
    </TTGlyph>
    <TTGlyph name="Ocircumflex" xMin="39" yMin="-13" xMax="610" yMax="890">
      <component glyphName="O" x="0" y="0" flags="0x4"/>
      <component glyphName="circumflex" x="141" y="202" flags="0x4"/>
    </TTGlyph>
    <TTGlyph name="Odieresis" xMin="39" yMin="-13" xMax="610" yMax="874">
      <component glyphName="O" x="0" y="0" flags="0x4"/>
      <component glyphName="dieresis" x="144" y="202" flags="0x4"/>
    </TTGlyph>
    <TTGlyph name="Ograve" xMin="39" yMin="-13" xMax="610" yMax="893">
      <component glyphName="O" x="0" y="0" flags="0x4"/>
      <component glyphName="grave" x="83" y="202" flags="0x4"/>
    </TTGlyph>
    <TTGlyph name="Ohungarumlaut" xMin="39" yMin="-13" xMax="630" yMax="893">
      <component glyphName="O" x="0" y="0" flags="0x4"/>
      <component glyphName="hungarumlaut" x="186" y="202" flags="0x4"/>
    </TTGlyph>
    <TTGlyph name="Omacron" xMin="39" yMin="-13" xMax="610" yMax="856">
      <component glyphName="O" x="0" y="0" flags="0x4"/>
      <component glyphName="macron" x="144" y="202" flags="0x4"/>
    </TTGlyph>
    <TTGlyph name="Oslash" xMin="-28" yMin="-13" xMax="678" yMax="703">
      <contour>
        <pt x="292" y="-13" on="1"/>
        <pt x="240" y="-13" on="0"/>
        <pt x="156" y="17" on="0"/>
        <pt x="125" y="45" on="1"/>
        <pt x="77" y="-9" on="1"/>
        <pt x="-28" y="15" on="1"/>
        <pt x="69" y="125" on="1"/>
        <pt x="55" y="156" on="0"/>
        <pt x="40" y="231" on="0"/>
        <pt x="40" y="273" on="1"/>
        <pt x="40" y="379" on="0"/>
        <pt x="104" y="566" on="0"/>
        <pt x="161" y="623" on="1"/>
        <pt x="201" y="663" on="0"/>
        <pt x="300" y="703" on="0"/>
        <pt x="359" y="703" on="1"/>
        <pt x="410" y="703" on="0"/>
        <pt x="494" y="673" on="0"/>
        <pt x="525" y="645" on="1"/>
        <pt x="573" y="699" on="1"/>
        <pt x="678" y="675" on="1"/>
        <pt x="582" y="566" on="1"/>
        <pt x="596" y="535" on="0"/>
        <pt x="611" y="459" on="0"/>
        <pt x="611" y="417" on="1"/>
        <pt x="611" y="311" on="0"/>
        <pt x="547" y="124" on="0"/>
        <pt x="490" y="67" on="1"/>
        <pt x="450" y="27" on="0"/>
        <pt x="351" y="-13" on="0"/>
      </contour>
      <contour>
        <pt x="206" y="257" on="1"/>
        <pt x="206" y="251" on="1"/>
        <pt x="430" y="525" on="1"/>
        <pt x="419" y="551" on="0"/>
        <pt x="381" y="575" on="0"/>
        <pt x="356" y="575" on="1"/>
        <pt x="336" y="575" on="0"/>
        <pt x="304" y="558" on="0"/>
        <pt x="290" y="545" on="1"/>
        <pt x="271" y="526" on="0"/>
        <pt x="240" y="463" on="0"/>
        <pt x="218" y="385" on="0"/>
        <pt x="206" y="298" on="0"/>
      </contour>
      <contour>
        <pt x="295" y="115" on="1"/>
        <pt x="314" y="115" on="0"/>
        <pt x="347" y="132" on="0"/>
        <pt x="361" y="145" on="1"/>
        <pt x="379" y="164" on="0"/>
        <pt x="410" y="227" on="0"/>
        <pt x="432" y="305" on="0"/>
        <pt x="444" y="392" on="0"/>
        <pt x="444" y="434" on="1"/>
        <pt x="444" y="435" on="0"/>
        <pt x="444" y="437" on="0"/>
        <pt x="444" y="438" on="1"/>
        <pt x="221" y="163" on="1"/>
        <pt x="232" y="138" on="0"/>
        <pt x="270" y="115" on="0"/>
      </contour>
    </TTGlyph>
    <TTGlyph name="Oslashacute" xMin="-28" yMin="-13" xMax="678" yMax="893">
      <component glyphName="Oslash" x="0" y="0" flags="0x204"/>
      <component glyphName="acute" x="192" y="202" flags="0x4"/>
    </TTGlyph>
    <TTGlyph name="Otilde" xMin="39" yMin="-13" xMax="610" yMax="897">
      <component glyphName="O" x="0" y="0" flags="0x4"/>
      <component glyphName="tilde" x="145" y="202" flags="0x4"/>
    </TTGlyph>
    <TTGlyph name="P" xMin="14" yMin="0" xMax="540" yMax="690">
      <contour>
        <pt x="540" y="486" on="1"/>
        <pt x="540" y="369" on="0"/>
        <pt x="381" y="229" on="0"/>
        <pt x="241" y="228" on="1"/>
        <pt x="213" y="228" on="1"/>
        <pt x="179" y="0" on="1"/>
        <pt x="14" y="0" on="1"/>
        <pt x="117" y="690" on="1"/>
        <pt x="294" y="690" on="1"/>
        <pt x="416" y="690" on="0"/>
        <pt x="540" y="585" on="0"/>
      </contour>
      <contour>
        <pt x="377" y="479" on="1"/>
        <pt x="378" y="525" on="0"/>
        <pt x="328" y="566" on="0"/>
        <pt x="284" y="566" on="1"/>
        <pt x="262" y="566" on="1"/>
        <pt x="231" y="354" on="1"/>
        <pt x="255" y="354" on="1"/>
        <pt x="311" y="354" on="0"/>
        <pt x="377" y="422" on="0"/>
      </contour>
    </TTGlyph>
    <TTGlyph name="Q" xMin="40" yMin="-131" xMax="611" yMax="703">
      <contour>
        <pt x="532" y="-131" on="1"/>
        <pt x="248" y="-19" on="1"/>
        <pt x="144" y="23" on="0"/>
        <pt x="40" y="150" on="0"/>
        <pt x="40" y="272" on="1"/>
        <pt x="40" y="382" on="0"/>
        <pt x="104" y="565" on="0"/>
        <pt x="161" y="622" on="1"/>
        <pt x="201" y="662" on="0"/>
        <pt x="300" y="703" on="0"/>
        <pt x="360" y="703" on="1"/>
        <pt x="422" y="703" on="0"/>
        <pt x="516" y="663" on="0"/>
        <pt x="579" y="589" on="0"/>
        <pt x="611" y="484" on="0"/>
        <pt x="611" y="421" on="1"/>
        <pt x="611" y="303" on="0"/>
        <pt x="541" y="137" on="0"/>
        <pt x="492" y="88" on="1"/>
        <pt x="482" y="78" on="0"/>
        <pt x="458" y="59" on="0"/>
        <pt x="446" y="52" on="1"/>
        <pt x="581" y="10" on="1"/>
      </contour>
      <contour>
        <pt x="295" y="117" on="1"/>
        <pt x="314" y="117" on="0"/>
        <pt x="346" y="134" on="0"/>
        <pt x="360" y="147" on="1"/>
        <pt x="378" y="165" on="0"/>
        <pt x="407" y="227" on="0"/>
        <pt x="429" y="305" on="0"/>
        <pt x="441" y="392" on="0"/>
        <pt x="441" y="434" on="1"/>
        <pt x="441" y="507" on="0"/>
        <pt x="396" y="573" on="0"/>
        <pt x="356" y="573" on="1"/>
        <pt x="337" y="573" on="0"/>
        <pt x="305" y="556" on="0"/>
        <pt x="291" y="543" on="1"/>
        <pt x="273" y="525" on="0"/>
        <pt x="244" y="463" on="0"/>
        <pt x="222" y="385" on="0"/>
        <pt x="210" y="298" on="0"/>
        <pt x="210" y="257" on="1"/>
        <pt x="210" y="183" on="0"/>
        <pt x="256" y="117" on="0"/>
      </contour>
    </TTGlyph>
    <TTGlyph name="Q.alt" xMin="40" yMin="-13" xMax="611" yMax="703">
      <contour>
        <pt x="556" y="-13" on="1"/>
        <pt x="478" y="62" on="1"/>
        <pt x="438" y="25" on="0"/>
        <pt x="347" y="-13" on="0"/>
        <pt x="292" y="-13" on="1"/>
        <pt x="169" y="-13" on="0"/>
        <pt x="40" y="143" on="0"/>
        <pt x="40" y="273" on="1"/>
        <pt x="40" y="379" on="0"/>
        <pt x="104" y="566" on="0"/>
        <pt x="161" y="623" on="1"/>
        <pt x="201" y="663" on="0"/>
        <pt x="300" y="703" on="0"/>
        <pt x="359" y="703" on="1"/>
        <pt x="482" y="703" on="0"/>
        <pt x="611" y="548" on="0"/>
        <pt x="611" y="417" on="1"/>
        <pt x="611" y="350" on="0"/>
        <pt x="582" y="223" on="0"/>
        <pt x="557" y="170" on="1"/>
        <pt x="597" y="135" on="1"/>
      </contour>
      <contour>
        <pt x="295" y="116" on="1"/>
        <pt x="314" y="116" on="0"/>
        <pt x="347" y="132" on="0"/>
        <pt x="361" y="146" on="1"/>
        <pt x="364" y="149" on="0"/>
        <pt x="370" y="156" on="0"/>
        <pt x="373" y="160" on="1"/>
        <pt x="273" y="254" on="1"/>
        <pt x="410" y="300" on="1"/>
        <pt x="426" y="286" on="1"/>
        <pt x="433" y="320" on="0"/>
        <pt x="442" y="394" on="0"/>
        <pt x="442" y="433" on="1"/>
        <pt x="442" y="507" on="0"/>
        <pt x="396" y="573" on="0"/>
        <pt x="357" y="573" on="1"/>
        <pt x="338" y="573" on="0"/>
        <pt x="305" y="556" on="0"/>
        <pt x="291" y="543" on="1"/>
        <pt x="273" y="525" on="0"/>
        <pt x="244" y="462" on="0"/>
        <pt x="222" y="384" on="0"/>
        <pt x="210" y="297" on="0"/>
        <pt x="210" y="256" on="1"/>
        <pt x="210" y="182" on="0"/>
        <pt x="256" y="116" on="0"/>
      </contour>
    </TTGlyph>
    <TTGlyph name="Q.alt_flat" xMin="40" yMin="-13" xMax="611" yMax="703">
      <contour>
        <pt x="571" y="-13" on="1"/>
        <pt x="479" y="63" on="1"/>
        <pt x="439" y="26" on="0"/>
        <pt x="348" y="-13" on="0"/>
        <pt x="292" y="-13" on="1"/>
        <pt x="169" y="-13" on="0"/>
        <pt x="40" y="143" on="0"/>
        <pt x="40" y="273" on="1"/>
        <pt x="40" y="379" on="0"/>
        <pt x="104" y="566" on="0"/>
        <pt x="161" y="623" on="1"/>
        <pt x="201" y="663" on="0"/>
        <pt x="300" y="703" on="0"/>
        <pt x="359" y="703" on="1"/>
        <pt x="482" y="703" on="0"/>
        <pt x="611" y="548" on="0"/>
        <pt x="611" y="417" on="1"/>
        <pt x="611" y="351" on="0"/>
        <pt x="583" y="225" on="0"/>
        <pt x="558" y="173" on="1"/>
        <pt x="598" y="143" on="1"/>
      </contour>
      <contour>
        <pt x="295" y="116" on="1"/>
        <pt x="314" y="116" on="0"/>
        <pt x="347" y="132" on="0"/>
        <pt x="361" y="146" on="1"/>
        <pt x="362" y="147" on="0"/>
        <pt x="367" y="152" on="0"/>
        <pt x="368" y="154" on="1"/>
        <pt x="310" y="200" on="1"/>
        <pt x="336" y="346" on="1"/>
        <pt x="424" y="277" on="1"/>
        <pt x="432" y="312" on="0"/>
        <pt x="442" y="392" on="0"/>
        <pt x="442" y="433" on="1"/>
        <pt x="442" y="507" on="0"/>
        <pt x="396" y="573" on="0"/>
        <pt x="357" y="573" on="1"/>
        <pt x="338" y="573" on="0"/>
        <pt x="305" y="556" on="0"/>
        <pt x="291" y="543" on="1"/>
        <pt x="273" y="525" on="0"/>
        <pt x="244" y="462" on="0"/>
        <pt x="222" y="384" on="0"/>
        <pt x="210" y="297" on="0"/>
        <pt x="210" y="256" on="1"/>
        <pt x="210" y="182" on="0"/>
        <pt x="256" y="116" on="0"/>
      </contour>
    </TTGlyph>
    <TTGlyph name="R" xMin="14" yMin="-8" xMax="546" yMax="690">
      <contour>
        <pt x="546" y="497" on="1"/>
        <pt x="546" y="417" on="0"/>
        <pt x="463" y="311" on="0"/>
        <pt x="402" y="284" on="1"/>
        <pt x="512" y="19" on="1"/>
        <pt x="341" y="-8" on="1"/>
        <pt x="244" y="245" on="1"/>
        <pt x="215" y="245" on="1"/>
        <pt x="179" y="0" on="1"/>
        <pt x="14" y="0" on="1"/>
        <pt x="117" y="690" on="1"/>
        <pt x="300" y="690" on="1"/>
        <pt x="415" y="690" on="0"/>
        <pt x="546" y="594" on="0"/>
      </contour>
      <contour>
        <pt x="381" y="483" on="1"/>
        <pt x="381" y="523" on="0"/>
        <pt x="334" y="567" on="0"/>
        <pt x="288" y="567" on="1"/>
        <pt x="262" y="567" on="1"/>
        <pt x="232" y="364" on="1"/>
        <pt x="262" y="364" on="1"/>
        <pt x="318" y="364" on="0"/>
        <pt x="381" y="432" on="0"/>
      </contour>
    </TTGlyph>
    <TTGlyph name="R.flat" xMin="14" yMin="0" xMax="546" yMax="690">
      <contour>
        <pt x="381" y="483" on="1"/>
        <pt x="381" y="523" on="0"/>
        <pt x="334" y="567" on="0"/>
        <pt x="288" y="567" on="1"/>
        <pt x="262" y="567" on="1"/>
        <pt x="232" y="364" on="1"/>
        <pt x="262" y="364" on="1"/>
        <pt x="318" y="364" on="0"/>
        <pt x="381" y="432" on="0"/>
      </contour>
      <contour>
        <pt x="546" y="497" on="1"/>
        <pt x="546" y="417" on="0"/>
        <pt x="463" y="311" on="0"/>
        <pt x="402" y="284" on="1"/>
        <pt x="519" y="0" on="1"/>
        <pt x="339" y="0" on="1"/>
        <pt x="244" y="245" on="1"/>
        <pt x="215" y="245" on="1"/>
        <pt x="179" y="0" on="1"/>
        <pt x="14" y="0" on="1"/>
        <pt x="117" y="690" on="1"/>
        <pt x="300" y="690" on="1"/>
        <pt x="415" y="690" on="0"/>
        <pt x="546" y="594" on="0"/>
      </contour>
    </TTGlyph>
    <TTGlyph name="R_p" xMin="22" yMin="-181" xMax="976" yMax="683">
      <contour>
        <pt x="339" y="-8" on="1"/>
        <pt x="242" y="244" on="1"/>
        <pt x="212" y="244" on="1"/>
        <pt x="175" y="0" on="1"/>
        <pt x="22" y="0" on="1"/>
        <pt x="124" y="683" on="1"/>
        <pt x="288" y="683" on="1"/>
        <pt x="402" y="683" on="0"/>
        <pt x="533" y="590" on="0"/>
        <pt x="533" y="494" on="1"/>
        <pt x="533" y="413" on="0"/>
        <pt x="451" y="309" on="0"/>
        <pt x="390" y="282" on="1"/>
        <pt x="499" y="19" on="1"/>
      </contour>
      <contour>
        <pt x="379" y="479" on="1"/>
        <pt x="379" y="520" on="0"/>
        <pt x="332" y="563" on="0"/>
        <pt x="286" y="563" on="1"/>
        <pt x="258" y="563" on="1"/>
        <pt x="227" y="361" on="1"/>
        <pt x="260" y="361" on="1"/>
        <pt x="316" y="361" on="0"/>
        <pt x="379" y="427" on="0"/>
      </contour>
      <contour>
        <pt x="684" y="116" on="1"/>
        <pt x="692" y="112" on="0"/>
        <pt x="709" y="109" on="0"/>
        <pt x="718" y="109" on="1"/>
        <pt x="762" y="109" on="0"/>
        <pt x="830" y="215" on="0"/>
        <pt x="830" y="299" on="1"/>
        <pt x="830" y="335" on="0"/>
        <pt x="808" y="372" on="0"/>
        <pt x="789" y="372" on="1"/>
        <pt x="772" y="372" on="0"/>
        <pt x="737" y="348" on="0"/>
        <pt x="715" y="324" on="1"/>
      </contour>
      <contour>
        <pt x="496" y="-181" on="1"/>
        <pt x="579" y="370" on="1"/>
        <pt x="579" y="491" on="1"/>
        <pt x="716" y="491" on="1"/>
        <pt x="721" y="417" on="1"/>
        <pt x="752" y="454" on="0"/>
        <pt x="815" y="501" on="0"/>
        <pt x="852" y="501" on="1"/>
        <pt x="908" y="501" on="0"/>
        <pt x="976" y="409" on="0"/>
        <pt x="976" y="327" on="1"/>
        <pt x="976" y="248" on="0"/>
        <pt x="934" y="124" on="0"/>
        <pt x="864" y="39" on="0"/>
        <pt x="768" y="-5" on="0"/>
        <pt x="715" y="-5" on="1"/>
        <pt x="702" y="-5" on="0"/>
        <pt x="678" y="-2" on="0"/>
        <pt x="667" y="1" on="1"/>
        <pt x="644" y="-157" on="1"/>
      </contour>
    </TTGlyph>
    <TTGlyph name="R_p.flat" xMin="22" yMin="-181" xMax="976" yMax="683">
      <contour>
        <pt x="379" y="479" on="1"/>
        <pt x="379" y="520" on="0"/>
        <pt x="332" y="563" on="0"/>
        <pt x="286" y="563" on="1"/>
        <pt x="258" y="563" on="1"/>
        <pt x="227" y="361" on="1"/>
        <pt x="260" y="361" on="1"/>
        <pt x="316" y="361" on="0"/>
        <pt x="379" y="427" on="0"/>
      </contour>
      <contour>
        <pt x="684" y="116" on="1"/>
        <pt x="692" y="112" on="0"/>
        <pt x="709" y="109" on="0"/>
        <pt x="718" y="109" on="1"/>
        <pt x="762" y="109" on="0"/>
        <pt x="830" y="215" on="0"/>
        <pt x="830" y="299" on="1"/>
        <pt x="830" y="335" on="0"/>
        <pt x="808" y="372" on="0"/>
        <pt x="789" y="372" on="1"/>
        <pt x="772" y="372" on="0"/>
        <pt x="737" y="348" on="0"/>
        <pt x="715" y="324" on="1"/>
      </contour>
      <contour>
        <pt x="335" y="0" on="1"/>
        <pt x="242" y="244" on="1"/>
        <pt x="212" y="244" on="1"/>
        <pt x="175" y="0" on="1"/>
        <pt x="22" y="0" on="1"/>
        <pt x="124" y="683" on="1"/>
        <pt x="288" y="683" on="1"/>
        <pt x="402" y="683" on="0"/>
        <pt x="533" y="590" on="0"/>
        <pt x="533" y="494" on="1"/>
        <pt x="533" y="413" on="0"/>
        <pt x="451" y="309" on="0"/>
        <pt x="390" y="282" on="1"/>
        <pt x="507" y="0" on="1"/>
      </contour>
      <contour>
        <pt x="496" y="-181" on="1"/>
        <pt x="579" y="370" on="1"/>
        <pt x="579" y="491" on="1"/>
        <pt x="716" y="491" on="1"/>
        <pt x="721" y="417" on="1"/>
        <pt x="752" y="454" on="0"/>
        <pt x="815" y="501" on="0"/>
        <pt x="852" y="501" on="1"/>
        <pt x="908" y="501" on="0"/>
        <pt x="976" y="409" on="0"/>
        <pt x="976" y="327" on="1"/>
        <pt x="976" y="248" on="0"/>
        <pt x="934" y="124" on="0"/>
        <pt x="864" y="39" on="0"/>
        <pt x="768" y="-5" on="0"/>
        <pt x="715" y="-5" on="1"/>
        <pt x="702" y="-5" on="0"/>
        <pt x="678" y="-2" on="0"/>
        <pt x="667" y="1" on="1"/>
        <pt x="644" y="-157" on="1"/>
      </contour>
    </TTGlyph>
    <TTGlyph name="Racute" xMin="14" yMin="-8" xMax="546" yMax="885">
      <component glyphName="R" x="0" y="0" flags="0x204"/>
      <component glyphName="acute" x="147" y="194" flags="0x4"/>
    </TTGlyph>
    <TTGlyph name="Racute.flat" xMin="14" yMin="0" xMax="546" yMax="885">
      <component glyphName="R.flat" x="0" y="0" flags="0x204"/>
      <component glyphName="acute" x="147" y="194" flags="0x4"/>
    </TTGlyph>
    <TTGlyph name="Rcaron" xMin="14" yMin="-8" xMax="546" yMax="882">
      <component glyphName="R" x="0" y="0" flags="0x204"/>
      <component glyphName="caron" x="96" y="194" flags="0x4"/>
    </TTGlyph>
    <TTGlyph name="Rcaron.flat" xMin="14" yMin="0" xMax="546" yMax="882">
      <component glyphName="R.flat" x="0" y="0" flags="0x204"/>
      <component glyphName="caron" x="96" y="194" flags="0x4"/>
    </TTGlyph>
    <TTGlyph name="Rcommaaccent" xMin="14" yMin="-237" xMax="546" yMax="690">
      <component glyphName="R" x="0" y="0" flags="0x204"/>
      <component glyphName="commaaccent" x="54" y="6" flags="0x4"/>
    </TTGlyph>
    <TTGlyph name="Rcommaaccent.flat" xMin="14" yMin="-237" xMax="546" yMax="690">
      <component glyphName="R.flat" x="0" y="0" flags="0x4"/>
      <component glyphName="commaaccent" x="54" y="6" flags="0x4"/>
    </TTGlyph>
    <TTGlyph name="S" xMin="-5" yMin="-11" xMax="495" yMax="701">
      <contour>
        <pt x="495" y="650" on="1"/>
        <pt x="451" y="516" on="1"/>
        <pt x="414" y="540" on="0"/>
        <pt x="340" y="569" on="0"/>
        <pt x="307" y="569" on="1"/>
        <pt x="273" y="569" on="0"/>
        <pt x="236" y="534" on="0"/>
        <pt x="236" y="508" on="1"/>
        <pt x="236" y="483" on="0"/>
        <pt x="271" y="445" on="0"/>
        <pt x="311" y="415" on="1"/>
        <pt x="388" y="364" on="0"/>
        <pt x="453" y="273" on="0"/>
        <pt x="453" y="213" on="1"/>
        <pt x="453" y="161" on="0"/>
        <pt x="417" y="77" on="0"/>
        <pt x="354" y="20" on="0"/>
        <pt x="266" y="-11" on="0"/>
        <pt x="213" y="-11" on="1"/>
        <pt x="154" y="-11" on="0"/>
        <pt x="39" y="25" on="0"/>
        <pt x="-5" y="50" on="1"/>
        <pt x="40" y="184" on="1"/>
        <pt x="80" y="158" on="0"/>
        <pt x="168" y="121" on="0"/>
        <pt x="209" y="121" on="1"/>
        <pt x="245" y="121" on="0"/>
        <pt x="289" y="159" on="0"/>
        <pt x="289" y="190" on="1"/>
        <pt x="289" y="216" on="0"/>
        <pt x="255" y="257" on="0"/>
        <pt x="215" y="287" on="1"/>
        <pt x="140" y="337" on="0"/>
        <pt x="73" y="425" on="0"/>
        <pt x="73" y="491" on="1"/>
        <pt x="73" y="582" on="0"/>
        <pt x="200" y="701" on="0"/>
        <pt x="301" y="701" on="1"/>
        <pt x="362" y="701" on="0"/>
        <pt x="458" y="670" on="0"/>
      </contour>
    </TTGlyph>
    <TTGlyph name="Sacute" xMin="-5" yMin="-11" xMax="512" yMax="893">
      <component glyphName="S" x="0" y="0" flags="0x204"/>
      <component glyphName="acute" x="134" y="202" flags="0x4"/>
    </TTGlyph>
    <TTGlyph name="Scaron" xMin="-5" yMin="-11" xMax="496" yMax="890">
      <component glyphName="S" x="0" y="0" flags="0x204"/>
      <component glyphName="caron" x="81" y="202" flags="0x4"/>
    </TTGlyph>
    <TTGlyph name="Scedilla" xMin="-5" yMin="-185" xMax="495" yMax="701">
      <component glyphName="S" x="0" y="0" flags="0x204"/>
      <component glyphName="cedilla" x="19" y="-6" flags="0x4"/>
    </TTGlyph>
    <TTGlyph name="Scommaaccent" xMin="-5" yMin="-251" xMax="495" yMax="701">
      <component glyphName="S" x="0" y="0" flags="0x204"/>
      <component glyphName="commaaccent" x="10" y="-8" flags="0x4"/>
    </TTGlyph>
    <TTGlyph name="T" xMin="62" yMin="0" xMax="561" yMax="690">
      <contour>
        <pt x="561" y="548" on="1"/>
        <pt x="392" y="548" on="1"/>
        <pt x="311" y="0" on="1"/>
        <pt x="144" y="0" on="1"/>
        <pt x="225" y="548" on="1"/>
        <pt x="62" y="548" on="1"/>
        <pt x="84" y="690" on="1"/>
        <pt x="561" y="690" on="1"/>
      </contour>
    </TTGlyph>
    <TTGlyph name="T.flat" xMin="62" yMin="0" xMax="575" yMax="690">
      <contour>
        <pt x="553" y="548" on="1"/>
        <pt x="392" y="548" on="1"/>
        <pt x="311" y="0" on="1"/>
        <pt x="144" y="0" on="1"/>
        <pt x="225" y="548" on="1"/>
        <pt x="62" y="548" on="1"/>
        <pt x="84" y="690" on="1"/>
        <pt x="575" y="690" on="1"/>
      </contour>
    </TTGlyph>
    <TTGlyph name="Tcaron" xMin="62" yMin="0" xMax="561" yMax="882">
      <component glyphName="T" x="0" y="0" flags="0x204"/>
      <component glyphName="caron" x="99" y="194" flags="0x4"/>
    </TTGlyph>
    <TTGlyph name="Tcaron.flat" xMin="62" yMin="0" xMax="575" yMax="882">
      <component glyphName="T.flat" x="0" y="0" flags="0x204"/>
      <component glyphName="caron" x="99" y="194" flags="0x4"/>
    </TTGlyph>
    <TTGlyph name="Tcommaaccent" xMin="62" yMin="-243" xMax="561" yMax="690">
      <component glyphName="T" x="0" y="0" flags="0x204"/>
      <component glyphName="commaaccent" x="40" y="0" flags="0x4"/>
    </TTGlyph>
    <TTGlyph name="Tcommaaccent.flat" xMin="62" yMin="-243" xMax="575" yMax="690">
      <component glyphName="T.flat" x="0" y="0" flags="0x204"/>
      <component glyphName="commaaccent" x="40" y="0" flags="0x4"/>
    </TTGlyph>
    <TTGlyph name="Thorn" xMin="14" yMin="0" xMax="523" yMax="690">
      <contour>
        <pt x="523" y="380" on="1"/>
        <pt x="523" y="265" on="0"/>
        <pt x="367" y="126" on="0"/>
        <pt x="226" y="125" on="1"/>
        <pt x="198" y="125" on="1"/>
        <pt x="179" y="0" on="1"/>
        <pt x="14" y="0" on="1"/>
        <pt x="117" y="690" on="1"/>
        <pt x="282" y="690" on="1"/>
        <pt x="266" y="583" on="1"/>
        <pt x="282" y="583" on="1"/>
        <pt x="402" y="583" on="0"/>
        <pt x="523" y="478" on="0"/>
      </contour>
      <contour>
        <pt x="361" y="372" on="1"/>
        <pt x="361" y="417" on="0"/>
        <pt x="312" y="459" on="0"/>
        <pt x="269" y="459" on="1"/>
        <pt x="246" y="459" on="1"/>
        <pt x="216" y="250" on="1"/>
        <pt x="241" y="250" on="1"/>
        <pt x="296" y="250" on="0"/>
        <pt x="360" y="317" on="0"/>
      </contour>
    </TTGlyph>
    <TTGlyph name="U" xMin="43" yMin="-12" xMax="616" yMax="690">
      <contour>
        <pt x="616" y="690" on="1"/>
        <pt x="550" y="245" on="1"/>
        <pt x="531" y="114" on="0"/>
        <pt x="391" y="-12" on="0"/>
        <pt x="274" y="-12" on="1"/>
        <pt x="164" y="-12" on="0"/>
        <pt x="43" y="94" on="0"/>
        <pt x="43" y="195" on="1"/>
        <pt x="43" y="213" on="0"/>
        <pt x="46" y="248" on="0"/>
        <pt x="48" y="264" on="1"/>
        <pt x="111" y="690" on="1"/>
        <pt x="278" y="690" on="1"/>
        <pt x="214" y="254" on="1"/>
        <pt x="212" y="241" on="0"/>
        <pt x="209" y="216" on="0"/>
        <pt x="209" y="204" on="1"/>
        <pt x="209" y="167" on="0"/>
        <pt x="247" y="126" on="0"/>
        <pt x="284" y="126" on="1"/>
        <pt x="326" y="126" on="0"/>
        <pt x="375" y="184" on="0"/>
        <pt x="383" y="238" on="1"/>
        <pt x="450" y="690" on="1"/>
      </contour>
    </TTGlyph>
    <TTGlyph name="U.alt" xMin="38" yMin="-8" xMax="614" yMax="690">
      <contour>
        <pt x="614" y="690" on="1"/>
        <pt x="511" y="0" on="1"/>
        <pt x="370" y="0" on="1"/>
        <pt x="370" y="58" on="1"/>
        <pt x="326" y="28" on="0"/>
        <pt x="241" y="-8" on="0"/>
        <pt x="192" y="-8" on="1"/>
        <pt x="121" y="-8" on="0"/>
        <pt x="38" y="69" on="0"/>
        <pt x="39" y="144" on="1"/>
        <pt x="39" y="159" on="0"/>
        <pt x="42" y="197" on="0"/>
        <pt x="45" y="214" on="1"/>
        <pt x="115" y="690" on="1"/>
        <pt x="282" y="690" on="1"/>
        <pt x="213" y="226" on="1"/>
        <pt x="211" y="216" on="0"/>
        <pt x="209" y="199" on="0"/>
        <pt x="209" y="194" on="1"/>
        <pt x="209" y="168" on="0"/>
        <pt x="235" y="138" on="0"/>
        <pt x="264" y="138" on="1"/>
        <pt x="289" y="138" on="0"/>
        <pt x="341" y="161" on="0"/>
        <pt x="372" y="183" on="1"/>
        <pt x="447" y="690" on="1"/>
      </contour>
    </TTGlyph>
    <TTGlyph name="Uacute" xMin="43" yMin="-12" xMax="616" yMax="882">
      <component glyphName="U" x="0" y="0" flags="0x204"/>
      <component glyphName="acute" x="182" y="191" flags="0x4"/>
    </TTGlyph>
    <TTGlyph name="Uacute.alt" xMin="38" yMin="-8" xMax="614" yMax="882">
      <component glyphName="U.alt" x="0" y="0" flags="0x204"/>
      <component glyphName="acute" x="183" y="191" flags="0x4"/>
    </TTGlyph>
    <TTGlyph name="Ubreve" xMin="43" yMin="-12" xMax="616" yMax="876">
      <component glyphName="U" x="0" y="0" flags="0x204"/>
      <component glyphName="breve" x="132" y="188" flags="0x4"/>
    </TTGlyph>
    <TTGlyph name="Ubreve.alt" xMin="38" yMin="-8" xMax="614" yMax="876">
      <component glyphName="U.alt" x="0" y="0" flags="0x204"/>
      <component glyphName="breve" x="134" y="188" flags="0x4"/>
    </TTGlyph>
    <TTGlyph name="Ucircumflex" xMin="43" yMin="-12" xMax="616" yMax="879">
      <component glyphName="U" x="0" y="0" flags="0x204"/>
      <component glyphName="circumflex" x="128" y="191" flags="0x4"/>
    </TTGlyph>
    <TTGlyph name="Ucircumflex.alt" xMin="38" yMin="-8" xMax="614" yMax="879">
      <component glyphName="U.alt" x="0" y="0" flags="0x204"/>
      <component glyphName="circumflex" x="129" y="191" flags="0x4"/>
    </TTGlyph>
    <TTGlyph name="Udieresis" xMin="43" yMin="-12" xMax="616" yMax="863">
      <component glyphName="U" x="0" y="0" flags="0x204"/>
      <component glyphName="dieresis" x="130" y="191" flags="0x4"/>
    </TTGlyph>
    <TTGlyph name="Udieresis.alt" xMin="38" yMin="-8" xMax="614" yMax="863">
      <component glyphName="U.alt" x="0" y="0" flags="0x204"/>
      <component glyphName="dieresis" x="132" y="191" flags="0x4"/>
    </TTGlyph>
    <TTGlyph name="Ugrave" xMin="43" yMin="-12" xMax="616" yMax="882">
      <component glyphName="U" x="0" y="0" flags="0x204"/>
      <component glyphName="grave" x="69" y="191" flags="0x4"/>
    </TTGlyph>
    <TTGlyph name="Ugrave.alt" xMin="38" yMin="-8" xMax="614" yMax="882">
      <component glyphName="U.alt" x="0" y="0" flags="0x204"/>
      <component glyphName="grave" x="71" y="191" flags="0x4"/>
    </TTGlyph>
    <TTGlyph name="Uhungarumlaut" xMin="43" yMin="-12" xMax="616" yMax="882">
      <component glyphName="U" x="0" y="0" flags="0x204"/>
      <component glyphName="hungarumlaut" x="172" y="191" flags="0x4"/>
    </TTGlyph>
    <TTGlyph name="Uhungarumlaut.alt" xMin="38" yMin="-8" xMax="618" yMax="882">
      <component glyphName="U.alt" x="0" y="0" flags="0x204"/>
      <component glyphName="hungarumlaut" x="174" y="191" flags="0x4"/>
    </TTGlyph>
    <TTGlyph name="Umacron" xMin="43" yMin="-12" xMax="616" yMax="845">
      <component glyphName="U" x="0" y="0" flags="0x204"/>
      <component glyphName="macron" x="130" y="191" flags="0x4"/>
    </TTGlyph>
    <TTGlyph name="Umacron.alt" xMin="38" yMin="-8" xMax="614" yMax="845">
      <component glyphName="U.alt" x="0" y="0" flags="0x204"/>
      <component glyphName="macron" x="132" y="191" flags="0x4"/>
    </TTGlyph>
    <TTGlyph name="Uogonek" xMin="44" yMin="-198" xMax="617" yMax="690">
      <component glyphName="U" x="1" y="0" flags="0x4"/>
      <component glyphName="ogonek" x="65" y="0" flags="0x4"/>
    </TTGlyph>
    <TTGlyph name="Uogonek.alt" xMin="38" yMin="-198" xMax="614" yMax="690">
      <component glyphName="U.alt" x="0" y="0" flags="0x4"/>
      <component glyphName="ogonek" x="213" y="0" flags="0x4"/>
    </TTGlyph>
    <TTGlyph name="Uring" xMin="43" yMin="-12" xMax="616" yMax="944">
      <component glyphName="U" x="0" y="0" flags="0x204"/>
      <component glyphName="ring" x="121" y="186" flags="0x4"/>
    </TTGlyph>
    <TTGlyph name="Uring.alt" xMin="38" yMin="-8" xMax="614" yMax="944">
      <component glyphName="U.alt" x="0" y="0" flags="0x204"/>
      <component glyphName="ring" x="123" y="186" flags="0x4"/>
    </TTGlyph>
    <TTGlyph name="V" xMin="75" yMin="-2" xMax="646" yMax="697">
      <contour>
        <pt x="646" y="690" on="1"/>
        <pt x="344" y="-2" on="1"/>
        <pt x="171" y="-2" on="1"/>
        <pt x="75" y="668" on="1"/>
        <pt x="250" y="697" on="1"/>
        <pt x="294" y="211" on="1"/>
        <pt x="477" y="690" on="1"/>
      </contour>
    </TTGlyph>
    <TTGlyph name="V.flat" xMin="73" yMin="-2" xMax="647" yMax="690">
      <contour>
        <pt x="647" y="690" on="1"/>
        <pt x="345" y="-2" on="1"/>
        <pt x="171" y="-2" on="1"/>
        <pt x="73" y="690" on="1"/>
        <pt x="251" y="690" on="1"/>
        <pt x="295" y="211" on="1"/>
        <pt x="477" y="690" on="1"/>
      </contour>
    </TTGlyph>
    <TTGlyph name="W" xMin="77" yMin="0" xMax="932" yMax="698">
      <contour>
        <pt x="932" y="690" on="1"/>
        <pt x="668" y="0" on="1"/>
        <pt x="503" y="0" on="1"/>
        <pt x="466" y="451" on="1"/>
        <pt x="297" y="0" on="1"/>
        <pt x="134" y="0" on="1"/>
        <pt x="77" y="670" on="1"/>
        <pt x="254" y="698" on="1"/>
        <pt x="269" y="252" on="1"/>
        <pt x="428" y="690" on="1"/>
        <pt x="599" y="690" on="1"/>
        <pt x="628" y="252" on="1"/>
        <pt x="773" y="690" on="1"/>
      </contour>
    </TTGlyph>
    <TTGlyph name="W.alt" xMin="72" yMin="-1" xMax="934" yMax="698">
      <contour>
        <pt x="483" y="-1" on="1"/>
        <pt x="444" y="299" on="1"/>
        <pt x="318" y="-1" on="1"/>
        <pt x="159" y="-1" on="1"/>
        <pt x="72" y="671" on="1"/>
        <pt x="244" y="698" on="1"/>
        <pt x="290" y="224" on="1"/>
        <pt x="410" y="514" on="1"/>
        <pt x="390" y="672" on="1"/>
        <pt x="557" y="698" on="1"/>
        <pt x="596" y="228" on="1"/>
        <pt x="765" y="690" on="1"/>
        <pt x="934" y="690" on="1"/>
        <pt x="642" y="-1" on="1"/>
      </contour>
    </TTGlyph>
    <TTGlyph name="W.alt_flat" xMin="71" yMin="-1" xMax="935" yMax="690">
      <contour>
        <pt x="484" y="-1" on="1"/>
        <pt x="445" y="299" on="1"/>
        <pt x="319" y="-1" on="1"/>
        <pt x="160" y="-1" on="1"/>
        <pt x="71" y="690" on="1"/>
        <pt x="246" y="690" on="1"/>
        <pt x="291" y="224" on="1"/>
        <pt x="411" y="514" on="1"/>
        <pt x="389" y="690" on="1"/>
        <pt x="558" y="690" on="1"/>
        <pt x="597" y="228" on="1"/>
        <pt x="766" y="690" on="1"/>
        <pt x="935" y="690" on="1"/>
        <pt x="643" y="-1" on="1"/>
      </contour>
    </TTGlyph>
    <TTGlyph name="W.flat" xMin="76" yMin="0" xMax="933" yMax="690">
      <contour>
        <pt x="933" y="690" on="1"/>
        <pt x="669" y="0" on="1"/>
        <pt x="504" y="0" on="1"/>
        <pt x="467" y="451" on="1"/>
        <pt x="298" y="0" on="1"/>
        <pt x="135" y="0" on="1"/>
        <pt x="76" y="690" on="1"/>
        <pt x="255" y="690" on="1"/>
        <pt x="271" y="252" on="1"/>
        <pt x="429" y="690" on="1"/>
        <pt x="600" y="690" on="1"/>
        <pt x="629" y="252" on="1"/>
        <pt x="774" y="690" on="1"/>
      </contour>
    </TTGlyph>
    <TTGlyph name="Wacute" xMin="77" yMin="0" xMax="932" yMax="885">
      <component glyphName="W" x="0" y="0" flags="0x204"/>
      <component glyphName="acute" x="334" y="194" flags="0x4"/>
    </TTGlyph>
    <TTGlyph name="Wacute.alt" xMin="72" yMin="-1" xMax="934" yMax="885">
      <component glyphName="W.alt" x="0" y="0" flags="0x204"/>
      <component glyphName="acute" x="319" y="194" flags="0x4"/>
    </TTGlyph>
    <TTGlyph name="Wacute.alt_flat" xMin="71" yMin="-1" xMax="935" yMax="885">
      <component glyphName="W.alt_flat" x="0" y="0" flags="0x204"/>
      <component glyphName="acute" x="320" y="194" flags="0x4"/>
    </TTGlyph>
    <TTGlyph name="Wacute.flat" xMin="76" yMin="0" xMax="933" yMax="885">
      <component glyphName="W.flat" x="0" y="0" flags="0x204"/>
      <component glyphName="acute" x="335" y="194" flags="0x4"/>
    </TTGlyph>
    <TTGlyph name="Wcircumflex" xMin="77" yMin="0" xMax="932" yMax="882">
      <component glyphName="W" x="0" y="0" flags="0x204"/>
      <component glyphName="circumflex" x="280" y="194" flags="0x4"/>
    </TTGlyph>
    <TTGlyph name="Wcircumflex.alt" xMin="72" yMin="-1" xMax="934" yMax="882">
      <component glyphName="W.alt" x="0" y="0" flags="0x204"/>
      <component glyphName="circumflex" x="264" y="194" flags="0x4"/>
    </TTGlyph>
    <TTGlyph name="Wcircumflex.alt_flat" xMin="71" yMin="-1" xMax="935" yMax="882">
      <component glyphName="W.alt_flat" x="0" y="0" flags="0x204"/>
      <component glyphName="circumflex" x="265" y="194" flags="0x4"/>
    </TTGlyph>
    <TTGlyph name="Wcircumflex.flat" xMin="76" yMin="0" xMax="933" yMax="882">
      <component glyphName="W.flat" x="0" y="0" flags="0x204"/>
      <component glyphName="circumflex" x="281" y="194" flags="0x4"/>
    </TTGlyph>
    <TTGlyph name="Wdieresis" xMin="77" yMin="0" xMax="932" yMax="866">
      <component glyphName="W" x="0" y="0" flags="0x204"/>
      <component glyphName="dieresis" x="282" y="194" flags="0x4"/>
    </TTGlyph>
    <TTGlyph name="Wdieresis.alt" xMin="72" yMin="-1" xMax="934" yMax="866">
      <component glyphName="W.alt" x="0" y="0" flags="0x204"/>
      <component glyphName="dieresis" x="267" y="194" flags="0x4"/>
    </TTGlyph>
    <TTGlyph name="Wdieresis.alt_flat" xMin="71" yMin="-1" xMax="935" yMax="866">
      <component glyphName="W.alt_flat" x="0" y="0" flags="0x204"/>
      <component glyphName="dieresis" x="268" y="194" flags="0x4"/>
    </TTGlyph>
    <TTGlyph name="Wdieresis.flat" xMin="76" yMin="0" xMax="933" yMax="866">
      <component glyphName="W.flat" x="0" y="0" flags="0x204"/>
      <component glyphName="dieresis" x="283" y="194" flags="0x4"/>
    </TTGlyph>
    <TTGlyph name="Wgrave" xMin="77" yMin="0" xMax="932" yMax="885">
      <component glyphName="W" x="0" y="0" flags="0x204"/>
      <component glyphName="grave" x="221" y="194" flags="0x4"/>
    </TTGlyph>
    <TTGlyph name="Wgrave.alt" xMin="72" yMin="-1" xMax="934" yMax="885">
      <component glyphName="W.alt" x="0" y="0" flags="0x204"/>
      <component glyphName="grave" x="206" y="194" flags="0x4"/>
    </TTGlyph>
    <TTGlyph name="Wgrave.alt_flat" xMin="71" yMin="-1" xMax="935" yMax="885">
      <component glyphName="W.alt_flat" x="0" y="0" flags="0x204"/>
      <component glyphName="grave" x="207" y="194" flags="0x4"/>
    </TTGlyph>
    <TTGlyph name="Wgrave.flat" xMin="76" yMin="0" xMax="933" yMax="885">
      <component glyphName="W.flat" x="0" y="0" flags="0x204"/>
      <component glyphName="grave" x="222" y="194" flags="0x4"/>
    </TTGlyph>
    <TTGlyph name="X" xMin="-33" yMin="-8" xMax="609" yMax="698">
      <contour>
        <pt x="356" y="-8" on="1"/>
        <pt x="277" y="225" on="1"/>
        <pt x="147" y="0" on="1"/>
        <pt x="-33" y="0" on="1"/>
        <pt x="203" y="358" on="1"/>
        <pt x="79" y="672" on="1"/>
        <pt x="250" y="698" on="1"/>
        <pt x="319" y="493" on="1"/>
        <pt x="430" y="690" on="1"/>
        <pt x="609" y="690" on="1"/>
        <pt x="392" y="358" on="1"/>
        <pt x="528" y="18" on="1"/>
      </contour>
    </TTGlyph>
    <TTGlyph name="X.flat" xMin="-33" yMin="0" xMax="611" yMax="690">
      <contour>
        <pt x="351" y="0" on="1"/>
        <pt x="277" y="224" on="1"/>
        <pt x="147" y="0" on="1"/>
        <pt x="-33" y="0" on="1"/>
        <pt x="203" y="356" on="1"/>
        <pt x="71" y="690" on="1"/>
        <pt x="253" y="690" on="1"/>
        <pt x="319" y="491" on="1"/>
        <pt x="432" y="690" on="1"/>
        <pt x="611" y="690" on="1"/>
        <pt x="392" y="356" on="1"/>
        <pt x="533" y="0" on="1"/>
      </contour>
    </TTGlyph>
    <TTGlyph name="Y" xMin="63" yMin="0" xMax="640" yMax="698">
      <contour>
        <pt x="640" y="690" on="1"/>
        <pt x="367" y="248" on="1"/>
        <pt x="330" y="0" on="1"/>
        <pt x="163" y="0" on="1"/>
        <pt x="200" y="245" on="1"/>
        <pt x="63" y="672" on="1"/>
        <pt x="235" y="698" on="1"/>
        <pt x="311" y="415" on="1"/>
        <pt x="458" y="690" on="1"/>
      </contour>
    </TTGlyph>
    <TTGlyph name="Y.flat" xMin="59" yMin="0" xMax="642" yMax="690">
      <contour>
        <pt x="642" y="690" on="1"/>
        <pt x="369" y="248" on="1"/>
        <pt x="332" y="0" on="1"/>
        <pt x="165" y="0" on="1"/>
        <pt x="201" y="245" on="1"/>
        <pt x="59" y="690" on="1"/>
        <pt x="239" y="690" on="1"/>
        <pt x="313" y="415" on="1"/>
        <pt x="460" y="690" on="1"/>
      </contour>
    </TTGlyph>
    <TTGlyph name="Yacute" xMin="63" yMin="0" xMax="640" yMax="882">
      <component glyphName="Y" x="0" y="0" flags="0x204"/>
      <component glyphName="acute" x="164" y="191" flags="0x4"/>
    </TTGlyph>
    <TTGlyph name="Yacute.flat" xMin="59" yMin="0" xMax="642" yMax="882">
      <component glyphName="Y.flat" x="0" y="0" flags="0x204"/>
      <component glyphName="acute" x="166" y="191" flags="0x4"/>
    </TTGlyph>
    <TTGlyph name="Ycircumflex" xMin="63" yMin="0" xMax="640" yMax="879">
      <component glyphName="Y" x="0" y="0" flags="0x204"/>
      <component glyphName="circumflex" x="110" y="191" flags="0x4"/>
    </TTGlyph>
    <TTGlyph name="Ycircumflex.flat" xMin="59" yMin="0" xMax="642" yMax="879">
      <component glyphName="Y.flat" x="0" y="0" flags="0x204"/>
      <component glyphName="circumflex" x="112" y="191" flags="0x4"/>
    </TTGlyph>
    <TTGlyph name="Ydieresis" xMin="63" yMin="0" xMax="640" yMax="863">
      <component glyphName="Y" x="0" y="0" flags="0x204"/>
      <component glyphName="dieresis" x="113" y="191" flags="0x4"/>
    </TTGlyph>
    <TTGlyph name="Ydieresis.flat" xMin="59" yMin="0" xMax="642" yMax="863">
      <component glyphName="Y.flat" x="0" y="0" flags="0x204"/>
      <component glyphName="dieresis" x="115" y="191" flags="0x4"/>
    </TTGlyph>
    <TTGlyph name="Ygrave" xMin="63" yMin="0" xMax="640" yMax="882">
      <component glyphName="Y" x="0" y="0" flags="0x204"/>
      <component glyphName="grave" x="51" y="191" flags="0x4"/>
    </TTGlyph>
    <TTGlyph name="Ygrave.flat" xMin="59" yMin="0" xMax="642" yMax="882">
      <component glyphName="Y.flat" x="0" y="0" flags="0x204"/>
      <component glyphName="grave" x="53" y="191" flags="0x4"/>
    </TTGlyph>
    <TTGlyph name="Z" xMin="-10" yMin="0" xMax="549" yMax="690">
      <contour>
        <pt x="549" y="690" on="1"/>
        <pt x="530" y="566" on="1"/>
        <pt x="209" y="134" on="1"/>
        <pt x="455" y="134" on="1"/>
        <pt x="455" y="0" on="1"/>
        <pt x="-10" y="0" on="1"/>
        <pt x="9" y="124" on="1"/>
        <pt x="331" y="556" on="1"/>
        <pt x="103" y="556" on="1"/>
        <pt x="103" y="690" on="1"/>
      </contour>
    </TTGlyph>
    <TTGlyph name="Z.flat" xMin="-10" yMin="0" xMax="549" yMax="690">
      <contour>
        <pt x="549" y="690" on="1"/>
        <pt x="530" y="566" on="1"/>
        <pt x="209" y="134" on="1"/>
        <pt x="465" y="134" on="1"/>
        <pt x="445" y="0" on="1"/>
        <pt x="-10" y="0" on="1"/>
        <pt x="9" y="124" on="1"/>
        <pt x="331" y="556" on="1"/>
        <pt x="92" y="556" on="1"/>
        <pt x="112" y="690" on="1"/>
      </contour>
    </TTGlyph>
    <TTGlyph name="Zacute" xMin="-10" yMin="0" xMax="549" yMax="885">
      <component glyphName="Z" x="0" y="0" flags="0x204"/>
      <component glyphName="acute" x="142" y="194" flags="0x4"/>
    </TTGlyph>
    <TTGlyph name="Zacute.flat" xMin="-10" yMin="0" xMax="549" yMax="885">
      <component glyphName="Z.flat" x="0" y="0" flags="0x204"/>
      <component glyphName="acute" x="142" y="194" flags="0x4"/>
    </TTGlyph>
    <TTGlyph name="Zcaron" xMin="-10" yMin="0" xMax="549" yMax="882">
      <component glyphName="Z" x="0" y="0" flags="0x204"/>
      <component glyphName="caron" x="91" y="194" flags="0x4"/>
    </TTGlyph>
    <TTGlyph name="Zcaron.flat" xMin="-10" yMin="0" xMax="549" yMax="882">
      <component glyphName="Z.flat" x="0" y="0" flags="0x204"/>
      <component glyphName="caron" x="91" y="194" flags="0x4"/>
    </TTGlyph>
    <TTGlyph name="Zdotaccent" xMin="-10" yMin="0" xMax="549" yMax="866">
      <component glyphName="Z" x="0" y="0" flags="0x204"/>
      <component glyphName="dotaccent" x="91" y="194" flags="0x4"/>
    </TTGlyph>
    <TTGlyph name="Zdotaccent.flat" xMin="-10" yMin="0" xMax="549" yMax="866">
      <component glyphName="Z.flat" x="0" y="0" flags="0x204"/>
      <component glyphName="dotaccent" x="91" y="194" flags="0x4"/>
    </TTGlyph>
    <TTGlyph name="a" xMin="19" yMin="-10" xMax="470" yMax="497">
      <contour>
        <pt x="282" y="171" on="1"/>
        <pt x="313" y="374" on="1"/>
        <pt x="305" y="378" on="0"/>
        <pt x="291" y="381" on="0"/>
        <pt x="282" y="381" on="1"/>
        <pt x="260" y="381" on="0"/>
        <pt x="218" y="351" on="0"/>
        <pt x="186" y="299" on="0"/>
        <pt x="167" y="229" on="0"/>
        <pt x="167" y="189" on="1"/>
        <pt x="167" y="155" on="0"/>
        <pt x="188" y="120" on="0"/>
        <pt x="206" y="120" on="1"/>
        <pt x="224" y="120" on="0"/>
        <pt x="260" y="146" on="0"/>
      </contour>
      <contour>
        <pt x="276" y="76" on="1"/>
        <pt x="245" y="38" on="0"/>
        <pt x="179" y="-10" on="0"/>
        <pt x="142" y="-10" on="1"/>
        <pt x="88" y="-10" on="0"/>
        <pt x="19" y="77" on="0"/>
        <pt x="19" y="157" on="1"/>
        <pt x="19" y="236" on="0"/>
        <pt x="63" y="363" on="0"/>
        <pt x="139" y="450" on="0"/>
        <pt x="243" y="497" on="0"/>
        <pt x="303" y="497" on="1"/>
        <pt x="344" y="497" on="0"/>
        <pt x="431" y="480" on="0"/>
        <pt x="470" y="464" on="1"/>
        <pt x="419" y="122" on="1"/>
        <pt x="419" y="0" on="1"/>
        <pt x="281" y="0" on="1"/>
      </contour>
    </TTGlyph>
    <TTGlyph name="a.alt" xMin="4" yMin="-10" xMax="429" yMax="500">
      <contour>
        <pt x="180" y="95" on="1"/>
        <pt x="196" y="95" on="0"/>
        <pt x="232" y="115" on="0"/>
        <pt x="251" y="134" on="1"/>
        <pt x="266" y="229" on="1"/>
        <pt x="200" y="221" on="0"/>
        <pt x="147" y="163" on="0"/>
        <pt x="147" y="133" on="1"/>
        <pt x="147" y="114" on="0"/>
        <pt x="165" y="95" on="0"/>
      </contour>
      <contour>
        <pt x="281" y="324" on="1"/>
        <pt x="285" y="357" on="0"/>
        <pt x="260" y="385" on="0"/>
        <pt x="226" y="385" on="1"/>
        <pt x="196" y="385" on="0"/>
        <pt x="124" y="365" on="0"/>
        <pt x="84" y="347" on="1"/>
        <pt x="84" y="461" on="1"/>
        <pt x="124" y="477" on="0"/>
        <pt x="217" y="500" on="0"/>
        <pt x="269" y="500" on="1"/>
        <pt x="362" y="500" on="0"/>
        <pt x="439" y="414" on="0"/>
        <pt x="426" y="327" on="1"/>
        <pt x="392" y="103" on="1"/>
        <pt x="391" y="0" on="1"/>
        <pt x="254" y="0" on="1"/>
        <pt x="250" y="62" on="1"/>
        <pt x="221" y="30" on="0"/>
        <pt x="154" y="-10" on="0"/>
        <pt x="114" y="-10" on="1"/>
        <pt x="64" y="-10" on="0"/>
        <pt x="4" y="55" on="0"/>
        <pt x="4" y="109" on="1"/>
        <pt x="4" y="193" on="0"/>
        <pt x="141" y="293" on="0"/>
        <pt x="278" y="303" on="1"/>
      </contour>
    </TTGlyph>
    <TTGlyph name="aacute" xMin="19" yMin="-10" xMax="498" yMax="693">
      <component glyphName="a" x="0" y="0" flags="0x204"/>
      <component glyphName="acute" x="120" y="2" flags="0x4"/>
    </TTGlyph>
    <TTGlyph name="aacute.alt" xMin="4" yMin="-10" xMax="464" yMax="693">
      <component glyphName="a.alt" x="0" y="0" flags="0x204"/>
      <component glyphName="acute" x="86" y="2" flags="0x4"/>
    </TTGlyph>
    <TTGlyph name="abreve" xMin="19" yMin="-10" xMax="471" yMax="690">
      <component glyphName="a" x="0" y="0" flags="0x204"/>
      <component glyphName="breve" x="69" y="2" flags="0x4"/>
    </TTGlyph>
    <TTGlyph name="abreve.alt" xMin="4" yMin="-10" xMax="437" yMax="690">
      <component glyphName="a.alt" x="0" y="0" flags="0x204"/>
      <component glyphName="breve" x="35" y="2" flags="0x4"/>
    </TTGlyph>
    <TTGlyph name="acircumflex" xMin="19" yMin="-10" xMax="470" yMax="690">
      <component glyphName="a" x="0" y="0" flags="0x204"/>
      <component glyphName="circumflex" x="66" y="2" flags="0x4"/>
    </TTGlyph>
    <TTGlyph name="acircumflex.alt" xMin="4" yMin="-10" xMax="429" yMax="690">
      <component glyphName="a.alt" x="0" y="0" flags="0x204"/>
      <component glyphName="circumflex" x="32" y="2" flags="0x4"/>
    </TTGlyph>
    <TTGlyph name="acute" xMin="134" yMin="541" xMax="378" yMax="691">
      <contour>
        <pt x="378" y="660" on="1"/>
        <pt x="227" y="541" on="1"/>
        <pt x="134" y="541" on="1"/>
        <pt x="209" y="691" on="1"/>
      </contour>
    </TTGlyph>
    <TTGlyph name="adieresis" xMin="19" yMin="-10" xMax="475" yMax="674">
      <component glyphName="a" x="0" y="0" flags="0x204"/>
      <component glyphName="dieresis" x="68" y="2" flags="0x4"/>
    </TTGlyph>
    <TTGlyph name="adieresis.alt" xMin="4" yMin="-10" xMax="441" yMax="674">
      <component glyphName="a.alt" x="0" y="0" flags="0x204"/>
      <component glyphName="dieresis" x="34" y="2" flags="0x4"/>
    </TTGlyph>
    <TTGlyph name="ae" xMin="4" yMin="-10" xMax="672" yMax="501">
      <contour>
        <pt x="672" y="321" on="1"/>
        <pt x="672" y="290" on="0"/>
        <pt x="665" y="233" on="0"/>
        <pt x="658" y="208" on="1"/>
        <pt x="404" y="208" on="1"/>
        <pt x="403" y="206" on="0"/>
        <pt x="403" y="201" on="0"/>
        <pt x="403" y="198" on="1"/>
        <pt x="404" y="147" on="0"/>
        <pt x="452" y="99" on="0"/>
        <pt x="492" y="99" on="1"/>
        <pt x="527" y="99" on="0"/>
        <pt x="596" y="123" on="0"/>
        <pt x="630" y="142" on="1"/>
        <pt x="630" y="34" on="1"/>
        <pt x="591" y="13" on="0"/>
        <pt x="511" y="-10" on="0"/>
        <pt x="462" y="-10" on="1"/>
        <pt x="410" y="-10" on="0"/>
        <pt x="328" y="28" on="0"/>
        <pt x="302" y="63" on="1"/>
        <pt x="262" y="31" on="0"/>
        <pt x="175" y="-10" on="0"/>
        <pt x="127" y="-10" on="1"/>
        <pt x="72" y="-10" on="0"/>
        <pt x="4" y="53" on="0"/>
        <pt x="4" y="112" on="1"/>
        <pt x="4" y="193" on="0"/>
        <pt x="139" y="292" on="0"/>
        <pt x="276" y="303" on="1"/>
        <pt x="278" y="322" on="1"/>
        <pt x="283" y="356" on="0"/>
        <pt x="258" y="385" on="0"/>
        <pt x="224" y="385" on="1"/>
        <pt x="194" y="385" on="0"/>
        <pt x="122" y="365" on="0"/>
        <pt x="82" y="346" on="1"/>
        <pt x="82" y="461" on="1"/>
        <pt x="122" y="477" on="0"/>
        <pt x="213" y="500" on="0"/>
        <pt x="258" y="500" on="1"/>
        <pt x="301" y="500" on="0"/>
        <pt x="361" y="476" on="0"/>
        <pt x="377" y="451" on="1"/>
        <pt x="404" y="475" on="0"/>
        <pt x="470" y="501" on="0"/>
        <pt x="508" y="501" on="1"/>
        <pt x="590" y="501" on="0"/>
        <pt x="672" y="396" on="0"/>
      </contour>
      <contour>
        <pt x="538" y="295" on="1"/>
        <pt x="545" y="342" on="0"/>
        <pt x="525" y="400" on="0"/>
        <pt x="496" y="400" on="1"/>
        <pt x="469" y="400" on="0"/>
        <pt x="425" y="341" on="0"/>
        <pt x="413" y="295" on="1"/>
      </contour>
      <contour>
        <pt x="270" y="137" on="1"/>
        <pt x="267" y="151" on="0"/>
        <pt x="264" y="182" on="0"/>
        <pt x="264" y="198" on="1"/>
        <pt x="264" y="205" on="0"/>
        <pt x="264" y="221" on="0"/>
        <pt x="265" y="229" on="1"/>
        <pt x="197" y="217" on="0"/>
        <pt x="146" y="166" on="0"/>
        <pt x="146" y="138" on="1"/>
        <pt x="146" y="117" on="0"/>
        <pt x="168" y="95" on="0"/>
        <pt x="187" y="95" on="1"/>
        <pt x="205" y="95" on="0"/>
        <pt x="246" y="116" on="0"/>
      </contour>
    </TTGlyph>
    <TTGlyph name="aeacute" xMin="4" yMin="-10" xMax="672" yMax="691">
      <component glyphName="ae" x="0" y="0" flags="0x204"/>
      <component glyphName="acute" x="201" y="0" flags="0x4"/>
    </TTGlyph>
    <TTGlyph name="agrave" xMin="19" yMin="-10" xMax="470" yMax="693">
      <component glyphName="a" x="0" y="0" flags="0x204"/>
      <component glyphName="grave" x="7" y="2" flags="0x4"/>
    </TTGlyph>
    <TTGlyph name="agrave.alt" xMin="4" yMin="-10" xMax="429" yMax="693">
      <component glyphName="a.alt" x="0" y="0" flags="0x204"/>
      <component glyphName="grave" x="-27" y="2" flags="0x4"/>
    </TTGlyph>
    <TTGlyph name="amacron" xMin="19" yMin="-10" xMax="470" yMax="656">
      <component glyphName="a" x="0" y="0" flags="0x204"/>
      <component glyphName="macron" x="68" y="2" flags="0x4"/>
    </TTGlyph>
    <TTGlyph name="amacron.alt" xMin="4" yMin="-10" xMax="433" yMax="656">
      <component glyphName="a.alt" x="0" y="0" flags="0x204"/>
      <component glyphName="macron" x="34" y="2" flags="0x4"/>
    </TTGlyph>
    <TTGlyph name="ampersand" xMin="10" yMin="-12" xMax="565" yMax="703">
      <contour>
        <pt x="225" y="108" on="1"/>
        <pt x="247" y="108" on="0"/>
        <pt x="291" y="132" on="0"/>
        <pt x="313" y="158" on="1"/>
        <pt x="230" y="297" on="1"/>
        <pt x="193" y="272" on="0"/>
        <pt x="158" y="213" on="0"/>
        <pt x="158" y="179" on="1"/>
        <pt x="158" y="148" on="0"/>
        <pt x="193" y="108" on="0"/>
      </contour>
      <contour>
        <pt x="411" y="-6" on="1"/>
        <pt x="371" y="61" on="1"/>
        <pt x="330" y="25" on="0"/>
        <pt x="242" y="-12" on="0"/>
        <pt x="193" y="-12" on="1"/>
        <pt x="108" y="-12" on="0"/>
        <pt x="10" y="83" on="0"/>
        <pt x="10" y="158" on="1"/>
        <pt x="10" y="237" on="0"/>
        <pt x="101" y="353" on="0"/>
        <pt x="174" y="390" on="1"/>
        <pt x="158" y="421" on="0"/>
        <pt x="138" y="484" on="0"/>
        <pt x="138" y="518" on="1"/>
        <pt x="138" y="596" on="0"/>
        <pt x="246" y="703" on="0"/>
        <pt x="335" y="703" on="1"/>
        <pt x="391" y="703" on="0"/>
        <pt x="473" y="677" on="0"/>
        <pt x="507" y="659" on="1"/>
        <pt x="466" y="530" on="1"/>
        <pt x="434" y="549" on="0"/>
        <pt x="375" y="572" on="0"/>
        <pt x="347" y="572" on="1"/>
        <pt x="318" y="572" on="0"/>
        <pt x="287" y="541" on="0"/>
        <pt x="287" y="516" on="1"/>
        <pt x="287" y="496" on="0"/>
        <pt x="304" y="456" on="0"/>
        <pt x="319" y="431" on="1"/>
        <pt x="400" y="295" on="1"/>
        <pt x="411" y="320" on="0"/>
        <pt x="433" y="380" on="0"/>
        <pt x="443" y="415" on="1"/>
        <pt x="562" y="382" on="1"/>
        <pt x="544" y="327" on="0"/>
        <pt x="497" y="221" on="0"/>
        <pt x="469" y="178" on="1"/>
        <pt x="565" y="17" on="1"/>
      </contour>
    </TTGlyph>
    <TTGlyph name="ampersand.flat" xMin="10" yMin="-12" xMax="575" yMax="703">
      <contour>
        <pt x="225" y="108" on="1"/>
        <pt x="247" y="108" on="0"/>
        <pt x="291" y="132" on="0"/>
        <pt x="313" y="158" on="1"/>
        <pt x="230" y="297" on="1"/>
        <pt x="193" y="272" on="0"/>
        <pt x="158" y="213" on="0"/>
        <pt x="158" y="179" on="1"/>
        <pt x="158" y="148" on="0"/>
        <pt x="193" y="108" on="0"/>
      </contour>
      <contour>
        <pt x="407" y="0" on="1"/>
        <pt x="370" y="61" on="1"/>
        <pt x="330" y="25" on="0"/>
        <pt x="242" y="-12" on="0"/>
        <pt x="193" y="-12" on="1"/>
        <pt x="108" y="-12" on="0"/>
        <pt x="10" y="83" on="0"/>
        <pt x="10" y="158" on="1"/>
        <pt x="10" y="237" on="0"/>
        <pt x="101" y="353" on="0"/>
        <pt x="174" y="390" on="1"/>
        <pt x="158" y="421" on="0"/>
        <pt x="138" y="484" on="0"/>
        <pt x="138" y="518" on="1"/>
        <pt x="138" y="596" on="0"/>
        <pt x="246" y="703" on="0"/>
        <pt x="335" y="703" on="1"/>
        <pt x="391" y="703" on="0"/>
        <pt x="473" y="677" on="0"/>
        <pt x="507" y="659" on="1"/>
        <pt x="466" y="530" on="1"/>
        <pt x="434" y="549" on="0"/>
        <pt x="375" y="572" on="0"/>
        <pt x="347" y="572" on="1"/>
        <pt x="318" y="572" on="0"/>
        <pt x="287" y="541" on="0"/>
        <pt x="287" y="516" on="1"/>
        <pt x="287" y="496" on="0"/>
        <pt x="304" y="456" on="0"/>
        <pt x="319" y="431" on="1"/>
        <pt x="400" y="295" on="1"/>
        <pt x="411" y="320" on="0"/>
        <pt x="433" y="380" on="0"/>
        <pt x="443" y="415" on="1"/>
        <pt x="562" y="382" on="1"/>
        <pt x="544" y="327" on="0"/>
        <pt x="497" y="221" on="0"/>
        <pt x="469" y="178" on="1"/>
        <pt x="575" y="0" on="1"/>
      </contour>
    </TTGlyph>
    <TTGlyph name="aogonek" xMin="19" yMin="-198" xMax="470" yMax="497">
      <component glyphName="a" x="0" y="0" flags="0x4"/>
      <component glyphName="ogonek" x="123" y="0" flags="0x4"/>
    </TTGlyph>
    <TTGlyph name="aogonek.alt" xMin="4" yMin="-198" xMax="429" yMax="500">
      <component glyphName="a.alt" x="0" y="0" flags="0x204"/>
      <component glyphName="ogonek" x="96" y="0" flags="0x4"/>
    </TTGlyph>
    <TTGlyph name="aring" xMin="19" yMin="-10" xMax="470" yMax="760">
      <component glyphName="a" x="0" y="0" flags="0x204"/>
      <component glyphName="ring" x="60" y="2" flags="0x4"/>
    </TTGlyph>
    <TTGlyph name="aring.alt" xMin="4" yMin="-10" xMax="429" yMax="760">
      <component glyphName="a.alt" x="0" y="0" flags="0x204"/>
      <component glyphName="ring" x="26" y="2" flags="0x4"/>
    </TTGlyph>
    <TTGlyph name="aringacute" xMin="19" yMin="-10" xMax="529" yMax="940">
      <component glyphName="aring" x="0" y="0" flags="0x204"/>
      <component glyphName="acute" x="151" y="249" flags="0x4"/>
    </TTGlyph>
    <TTGlyph name="aringacute.alt" xMin="4" yMin="-10" xMax="493" yMax="938">
      <component glyphName="aring.alt" x="0" y="0" flags="0x204"/>
      <component glyphName="acute" x="115" y="247" flags="0x4"/>
    </TTGlyph>
    <TTGlyph name="asciicircum" xMin="78" yMin="512" xMax="398" yMax="696">
      <contour>
        <pt x="398" y="512" on="1"/>
        <pt x="299" y="512" on="1"/>
        <pt x="253" y="597" on="1"/>
        <pt x="179" y="512" on="1"/>
        <pt x="78" y="512" on="1"/>
        <pt x="208" y="696" on="1"/>
        <pt x="321" y="696" on="1"/>
      </contour>
    </TTGlyph>
    <TTGlyph name="asciitilde" xMin="31" yMin="232" xMax="395" yMax="405">
      <contour>
        <pt x="395" y="390" on="1"/>
        <pt x="376" y="308" on="0"/>
        <pt x="322" y="236" on="0"/>
        <pt x="280" y="236" on="1"/>
        <pt x="261" y="236" on="0"/>
        <pt x="227" y="250" on="0"/>
        <pt x="208" y="262" on="1"/>
        <pt x="185" y="275" on="0"/>
        <pt x="160" y="286" on="0"/>
        <pt x="149" y="286" on="1"/>
        <pt x="139" y="286" on="0"/>
        <pt x="121" y="264" on="0"/>
        <pt x="111" y="232" on="1"/>
        <pt x="31" y="247" on="1"/>
        <pt x="50" y="329" on="0"/>
        <pt x="105" y="401" on="0"/>
        <pt x="147" y="401" on="1"/>
        <pt x="166" y="401" on="0"/>
        <pt x="200" y="387" on="0"/>
        <pt x="219" y="375" on="1"/>
        <pt x="243" y="362" on="0"/>
        <pt x="267" y="351" on="0"/>
        <pt x="277" y="351" on="1"/>
        <pt x="288" y="351" on="0"/>
        <pt x="306" y="373" on="0"/>
        <pt x="316" y="405" on="1"/>
      </contour>
    </TTGlyph>
    <TTGlyph name="asterisk" xMin="66" yMin="364" xMax="414" yMax="696">
      <contour>
        <pt x="414" y="557" on="1"/>
        <pt x="316" y="493" on="1"/>
        <pt x="359" y="383" on="1"/>
        <pt x="331" y="364" on="1"/>
        <pt x="240" y="438" on="1"/>
        <pt x="150" y="364" on="1"/>
        <pt x="122" y="383" on="1"/>
        <pt x="165" y="493" on="1"/>
        <pt x="66" y="557" on="1"/>
        <pt x="76" y="589" on="1"/>
        <pt x="194" y="583" on="1"/>
        <pt x="222" y="696" on="1"/>
        <pt x="258" y="696" on="1"/>
        <pt x="286" y="583" on="1"/>
        <pt x="405" y="589" on="1"/>
      </contour>
    </TTGlyph>
    <TTGlyph name="at" xMin="29" yMin="-138" xMax="725" yMax="637">
      <contour>
        <pt x="336" y="-138" on="1"/>
        <pt x="194" y="-138" on="0"/>
        <pt x="29" y="29" on="0"/>
        <pt x="29" y="183" on="1"/>
        <pt x="29" y="274" on="0"/>
        <pt x="92" y="440" on="0"/>
        <pt x="201" y="564" on="0"/>
        <pt x="348" y="637" on="0"/>
        <pt x="430" y="637" on="1"/>
        <pt x="496" y="637" on="0"/>
        <pt x="605" y="596" on="0"/>
        <pt x="682" y="518" on="0"/>
        <pt x="725" y="401" on="0"/>
        <pt x="725" y="326" on="1"/>
        <pt x="725" y="198" on="0"/>
        <pt x="623" y="44" on="0"/>
        <pt x="537" y="44" on="1"/>
        <pt x="490" y="44" on="0"/>
        <pt x="425" y="88" on="0"/>
        <pt x="415" y="127" on="1"/>
        <pt x="381" y="84" on="0"/>
        <pt x="318" y="44" on="0"/>
        <pt x="284" y="44" on="1"/>
        <pt x="239" y="44" on="0"/>
        <pt x="184" y="114" on="0"/>
        <pt x="184" y="178" on="1"/>
        <pt x="184" y="239" on="0"/>
        <pt x="221" y="344" on="0"/>
        <pt x="286" y="420" on="0"/>
        <pt x="375" y="463" on="0"/>
        <pt x="426" y="463" on="1"/>
        <pt x="465" y="463" on="0"/>
        <pt x="539" y="446" on="0"/>
        <pt x="569" y="433" on="1"/>
        <pt x="529" y="189" on="1"/>
        <pt x="528" y="180" on="0"/>
        <pt x="525" y="158" on="0"/>
        <pt x="525" y="148" on="1"/>
        <pt x="525" y="127" on="0"/>
        <pt x="547" y="102" on="0"/>
        <pt x="572" y="102" on="1"/>
        <pt x="615" y="102" on="0"/>
        <pt x="682" y="223" on="0"/>
        <pt x="682" y="324" on="1"/>
        <pt x="682" y="466" on="0"/>
        <pt x="540" y="600" on="0"/>
        <pt x="427" y="600" on="1"/>
        <pt x="355" y="600" on="0"/>
        <pt x="225" y="534" on="0"/>
        <pt x="129" y="422" on="0"/>
        <pt x="72" y="270" on="0"/>
        <pt x="72" y="184" on="1"/>
        <pt x="72" y="111" on="0"/>
        <pt x="111" y="3" on="0"/>
        <pt x="181" y="-68" on="0"/>
        <pt x="280" y="-103" on="0"/>
        <pt x="339" y="-103" on="1"/>
        <pt x="394" y="-103" on="0"/>
        <pt x="493" y="-76" on="0"/>
        <pt x="536" y="-51" on="1"/>
        <pt x="542" y="-87" on="1"/>
        <pt x="502" y="-109" on="0"/>
        <pt x="396" y="-138" on="0"/>
      </contour>
      <contour>
        <pt x="336" y="148" on="1"/>
        <pt x="351" y="148" on="0"/>
        <pt x="388" y="176" on="0"/>
        <pt x="413" y="206" on="1"/>
        <pt x="438" y="362" on="1"/>
        <pt x="433" y="364" on="0"/>
        <pt x="420" y="367" on="0"/>
        <pt x="412" y="367" on="1"/>
        <pt x="391" y="367" on="0"/>
        <pt x="351" y="340" on="0"/>
        <pt x="322" y="295" on="0"/>
        <pt x="304" y="235" on="0"/>
        <pt x="304" y="202" on="1"/>
        <pt x="304" y="173" on="0"/>
        <pt x="321" y="148" on="0"/>
      </contour>
    </TTGlyph>
    <TTGlyph name="atilde" xMin="19" yMin="-10" xMax="485" yMax="697">
      <component glyphName="a" x="0" y="0" flags="0x204"/>
      <component glyphName="tilde" x="70" y="2" flags="0x4"/>
    </TTGlyph>
    <TTGlyph name="atilde.alt" xMin="4" yMin="-10" xMax="450" yMax="697">
      <component glyphName="a.alt" x="0" y="0" flags="0x204"/>
      <component glyphName="tilde" x="35" y="2" flags="0x4"/>
    </TTGlyph>
    <TTGlyph name="b" xMin="10" yMin="-6" xMax="462" yMax="722">
      <contour>
        <pt x="10" y="28" on="1"/>
        <pt x="111" y="699" on="1"/>
        <pt x="260" y="722" on="1"/>
        <pt x="215" y="428" on="1"/>
        <pt x="243" y="460" on="0"/>
        <pt x="301" y="501" on="0"/>
        <pt x="338" y="501" on="1"/>
        <pt x="393" y="501" on="0"/>
        <pt x="462" y="409" on="0"/>
        <pt x="462" y="327" on="1"/>
        <pt x="462" y="248" on="0"/>
        <pt x="419" y="123" on="0"/>
        <pt x="345" y="39" on="0"/>
        <pt x="244" y="-6" on="0"/>
        <pt x="185" y="-6" on="1"/>
        <pt x="142" y="-6" on="0"/>
        <pt x="50" y="12" on="0"/>
      </contour>
      <contour>
        <pt x="168" y="117" on="1"/>
        <pt x="176" y="114" on="0"/>
        <pt x="193" y="110" on="0"/>
        <pt x="203" y="110" on="1"/>
        <pt x="247" y="110" on="0"/>
        <pt x="315" y="215" on="0"/>
        <pt x="315" y="299" on="1"/>
        <pt x="315" y="334" on="0"/>
        <pt x="293" y="371" on="0"/>
        <pt x="273" y="371" on="1"/>
        <pt x="256" y="371" on="0"/>
        <pt x="221" y="347" on="0"/>
        <pt x="199" y="323" on="1"/>
      </contour>
    </TTGlyph>
    <TTGlyph name="backslash" xMin="55" yMin="-126" xMax="412" yMax="699">
      <contour>
        <pt x="412" y="-100" on="1"/>
        <pt x="298" y="-126" on="1"/>
        <pt x="55" y="673" on="1"/>
        <pt x="169" y="699" on="1"/>
      </contour>
    </TTGlyph>
    <TTGlyph name="baht" xMin="-73" yMin="-121" xMax="538" yMax="747">
      <contour>
        <pt x="370" y="495" on="1"/>
        <pt x="370" y="528" on="0"/>
        <pt x="329" y="566" on="0"/>
        <pt x="292" y="566" on="1"/>
        <pt x="247" y="566" on="1"/>
        <pt x="222" y="399" on="1"/>
        <pt x="267" y="399" on="1"/>
        <pt x="313" y="399" on="0"/>
        <pt x="370" y="452" on="0"/>
      </contour>
      <contour>
        <pt x="337" y="220" on="1"/>
        <pt x="337" y="259" on="0"/>
        <pt x="290" y="304" on="0"/>
        <pt x="245" y="304" on="1"/>
        <pt x="208" y="304" on="1"/>
        <pt x="179" y="116" on="1"/>
        <pt x="221" y="116" on="1"/>
        <pt x="273" y="116" on="0"/>
        <pt x="337" y="171" on="0"/>
      </contour>
      <contour>
        <pt x="210" y="0" on="1"/>
        <pt x="73" y="0" on="1"/>
        <pt x="-2" y="-121" on="1"/>
        <pt x="-73" y="-105" on="1"/>
        <pt x="25" y="57" on="1"/>
        <pt x="119" y="685" on="1"/>
        <pt x="302" y="685" on="1"/>
        <pt x="335" y="685" on="0"/>
        <pt x="391" y="676" on="0"/>
        <pt x="414" y="667" on="1"/>
        <pt x="465" y="747" on="1"/>
        <pt x="538" y="728" on="1"/>
        <pt x="475" y="630" on="1"/>
        <pt x="496" y="610" on="0"/>
        <pt x="518" y="555" on="0"/>
        <pt x="518" y="524" on="1"/>
        <pt x="518" y="460" on="0"/>
        <pt x="441" y="372" on="0"/>
        <pt x="387" y="355" on="1"/>
        <pt x="431" y="336" on="0"/>
        <pt x="485" y="264" on="0"/>
        <pt x="485" y="214" on="1"/>
        <pt x="485" y="115" on="0"/>
        <pt x="340" y="0" on="0"/>
      </contour>
    </TTGlyph>
    <TTGlyph name="bar" xMin="9" yMin="-188" xMax="265" yMax="737">
      <contour>
        <pt x="130" y="-171" on="1"/>
        <pt x="9" y="-188" on="1"/>
        <pt x="145" y="719" on="1"/>
        <pt x="265" y="737" on="1"/>
      </contour>
    </TTGlyph>
    <TTGlyph name="bar.tab" xMin="8" yMin="-127" xMax="265" yMax="810">
      <contour>
        <pt x="128" y="-110" on="1"/>
        <pt x="8" y="-127" on="1"/>
        <pt x="146" y="793" on="1"/>
        <pt x="265" y="810" on="1"/>
      </contour>
    </TTGlyph>
    <TTGlyph name="braceleft" xMin="33" yMin="-101" xMax="474" yMax="693">
      <contour>
        <pt x="474" y="693" on="1"/>
        <pt x="459" y="599" on="1"/>
        <pt x="390" y="599" on="1"/>
        <pt x="349" y="599" on="0"/>
        <pt x="316" y="556" on="0"/>
        <pt x="316" y="512" on="1"/>
        <pt x="316" y="457" on="1"/>
        <pt x="315" y="393" on="0"/>
        <pt x="251" y="311" on="0"/>
        <pt x="184" y="298" on="1"/>
        <pt x="184" y="296" on="1"/>
        <pt x="233" y="283" on="0"/>
        <pt x="276" y="237" on="0"/>
        <pt x="275" y="197" on="1"/>
        <pt x="275" y="157" on="0"/>
        <pt x="243" y="68" on="0"/>
        <pt x="242" y="37" on="1"/>
        <pt x="242" y="15" on="0"/>
        <pt x="270" y="-7" on="0"/>
        <pt x="303" y="-7" on="1"/>
        <pt x="360" y="-7" on="1"/>
        <pt x="360" y="-101" on="1"/>
        <pt x="236" y="-101" on="1"/>
        <pt x="167" y="-101" on="0"/>
        <pt x="97" y="-44" on="0"/>
        <pt x="98" y="6" on="1"/>
        <pt x="98" y="28" on="0"/>
        <pt x="109" y="75" on="0"/>
        <pt x="122" y="121" on="0"/>
        <pt x="134" y="166" on="0"/>
        <pt x="134" y="185" on="1"/>
        <pt x="134" y="216" on="0"/>
        <pt x="95" y="249" on="0"/>
        <pt x="51" y="249" on="1"/>
        <pt x="33" y="249" on="1"/>
        <pt x="33" y="344" on="1"/>
        <pt x="64" y="344" on="1"/>
        <pt x="125" y="344" on="0"/>
        <pt x="175" y="404" on="0"/>
        <pt x="176" y="468" on="1"/>
        <pt x="176" y="524" on="1"/>
        <pt x="176" y="604" on="0"/>
        <pt x="260" y="693" on="0"/>
        <pt x="348" y="693" on="1"/>
      </contour>
    </TTGlyph>
    <TTGlyph name="braceleft.flat" xMin="26" yMin="-101" xMax="473" yMax="693">
      <contour>
        <pt x="473" y="693" on="1"/>
        <pt x="459" y="599" on="1"/>
        <pt x="390" y="599" on="1"/>
        <pt x="349" y="599" on="0"/>
        <pt x="316" y="556" on="0"/>
        <pt x="316" y="512" on="1"/>
        <pt x="316" y="457" on="1"/>
        <pt x="315" y="393" on="0"/>
        <pt x="251" y="311" on="0"/>
        <pt x="184" y="298" on="1"/>
        <pt x="184" y="296" on="1"/>
        <pt x="233" y="283" on="0"/>
        <pt x="276" y="237" on="0"/>
        <pt x="275" y="197" on="1"/>
        <pt x="275" y="157" on="0"/>
        <pt x="243" y="68" on="0"/>
        <pt x="242" y="37" on="1"/>
        <pt x="242" y="15" on="0"/>
        <pt x="270" y="-7" on="0"/>
        <pt x="303" y="-7" on="1"/>
        <pt x="367" y="-7" on="1"/>
        <pt x="353" y="-101" on="1"/>
        <pt x="236" y="-101" on="1"/>
        <pt x="167" y="-101" on="0"/>
        <pt x="97" y="-44" on="0"/>
        <pt x="98" y="6" on="1"/>
        <pt x="98" y="28" on="0"/>
        <pt x="109" y="75" on="0"/>
        <pt x="122" y="121" on="0"/>
        <pt x="134" y="166" on="0"/>
        <pt x="134" y="185" on="1"/>
        <pt x="134" y="216" on="0"/>
        <pt x="95" y="249" on="0"/>
        <pt x="51" y="249" on="1"/>
        <pt x="26" y="249" on="1"/>
        <pt x="41" y="344" on="1"/>
        <pt x="64" y="344" on="1"/>
        <pt x="125" y="344" on="0"/>
        <pt x="175" y="404" on="0"/>
        <pt x="176" y="468" on="1"/>
        <pt x="176" y="524" on="1"/>
        <pt x="176" y="604" on="0"/>
        <pt x="260" y="693" on="0"/>
        <pt x="348" y="693" on="1"/>
      </contour>
    </TTGlyph>
    <TTGlyph name="braceright" xMin="-29" yMin="-101" xMax="411" yMax="693">
      <contour>
        <pt x="-29" y="-101" on="1"/>
        <pt x="-15" y="-7" on="1"/>
        <pt x="55" y="-7" on="1"/>
        <pt x="95" y="-7" on="0"/>
        <pt x="128" y="36" on="0"/>
        <pt x="128" y="80" on="1"/>
        <pt x="128" y="135" on="1"/>
        <pt x="129" y="200" on="0"/>
        <pt x="193" y="281" on="0"/>
        <pt x="260" y="294" on="1"/>
        <pt x="260" y="296" on="1"/>
        <pt x="211" y="309" on="0"/>
        <pt x="169" y="355" on="0"/>
        <pt x="169" y="395" on="1"/>
        <pt x="169" y="435" on="0"/>
        <pt x="201" y="524" on="0"/>
        <pt x="202" y="555" on="1"/>
        <pt x="202" y="577" on="0"/>
        <pt x="174" y="599" on="0"/>
        <pt x="141" y="599" on="1"/>
        <pt x="84" y="599" on="1"/>
        <pt x="84" y="693" on="1"/>
        <pt x="209" y="693" on="1"/>
        <pt x="278" y="693" on="0"/>
        <pt x="347" y="636" on="0"/>
        <pt x="347" y="586" on="1"/>
        <pt x="347" y="564" on="0"/>
        <pt x="335" y="517" on="0"/>
        <pt x="322" y="471" on="0"/>
        <pt x="311" y="426" on="0"/>
        <pt x="311" y="407" on="1"/>
        <pt x="310" y="376" on="0"/>
        <pt x="349" y="343" on="0"/>
        <pt x="393" y="343" on="1"/>
        <pt x="411" y="343" on="1"/>
        <pt x="411" y="248" on="1"/>
        <pt x="380" y="248" on="1"/>
        <pt x="319" y="248" on="0"/>
        <pt x="269" y="188" on="0"/>
        <pt x="268" y="124" on="1"/>
        <pt x="268" y="68" on="1"/>
        <pt x="268" y="-12" on="0"/>
        <pt x="184" y="-101" on="0"/>
        <pt x="96" y="-101" on="1"/>
      </contour>
    </TTGlyph>
    <TTGlyph name="braceright.flat" xMin="-29" yMin="-101" xMax="418" yMax="693">
      <contour>
        <pt x="-29" y="-101" on="1"/>
        <pt x="-15" y="-7" on="1"/>
        <pt x="55" y="-7" on="1"/>
        <pt x="95" y="-7" on="0"/>
        <pt x="128" y="36" on="0"/>
        <pt x="128" y="80" on="1"/>
        <pt x="128" y="135" on="1"/>
        <pt x="129" y="200" on="0"/>
        <pt x="193" y="281" on="0"/>
        <pt x="260" y="294" on="1"/>
        <pt x="260" y="296" on="1"/>
        <pt x="211" y="309" on="0"/>
        <pt x="169" y="355" on="0"/>
        <pt x="169" y="395" on="1"/>
        <pt x="169" y="435" on="0"/>
        <pt x="201" y="524" on="0"/>
        <pt x="202" y="555" on="1"/>
        <pt x="202" y="577" on="0"/>
        <pt x="174" y="599" on="0"/>
        <pt x="141" y="599" on="1"/>
        <pt x="77" y="599" on="1"/>
        <pt x="91" y="693" on="1"/>
        <pt x="209" y="693" on="1"/>
        <pt x="278" y="693" on="0"/>
        <pt x="347" y="636" on="0"/>
        <pt x="347" y="586" on="1"/>
        <pt x="347" y="564" on="0"/>
        <pt x="335" y="517" on="0"/>
        <pt x="322" y="471" on="0"/>
        <pt x="311" y="426" on="0"/>
        <pt x="311" y="407" on="1"/>
        <pt x="310" y="376" on="0"/>
        <pt x="349" y="343" on="0"/>
        <pt x="393" y="343" on="1"/>
        <pt x="418" y="343" on="1"/>
        <pt x="403" y="248" on="1"/>
        <pt x="380" y="248" on="1"/>
        <pt x="319" y="248" on="0"/>
        <pt x="269" y="188" on="0"/>
        <pt x="268" y="124" on="1"/>
        <pt x="268" y="68" on="1"/>
        <pt x="268" y="-12" on="0"/>
        <pt x="184" y="-101" on="0"/>
        <pt x="96" y="-101" on="1"/>
      </contour>
    </TTGlyph>
    <TTGlyph name="bracketleft" xMin="8" yMin="-101" xMax="406" yMax="693">
      <contour>
        <pt x="406" y="693" on="1"/>
        <pt x="392" y="599" on="1"/>
        <pt x="252" y="599" on="1"/>
        <pt x="161" y="-7" on="1"/>
        <pt x="293" y="-7" on="1"/>
        <pt x="293" y="-101" on="1"/>
        <pt x="8" y="-101" on="1"/>
        <pt x="127" y="693" on="1"/>
      </contour>
    </TTGlyph>
    <TTGlyph name="bracketleft.flat" xMin="8" yMin="-101" xMax="406" yMax="693">
      <contour>
        <pt x="406" y="693" on="1"/>
        <pt x="392" y="599" on="1"/>
        <pt x="252" y="599" on="1"/>
        <pt x="161" y="-7" on="1"/>
        <pt x="300" y="-7" on="1"/>
        <pt x="286" y="-101" on="1"/>
        <pt x="8" y="-101" on="1"/>
        <pt x="127" y="693" on="1"/>
      </contour>
    </TTGlyph>
    <TTGlyph name="bracketright" xMin="-29" yMin="-101" xMax="369" yMax="693">
      <contour>
        <pt x="369" y="693" on="1"/>
        <pt x="251" y="-101" on="1"/>
        <pt x="-29" y="-101" on="1"/>
        <pt x="-14" y="-7" on="1"/>
        <pt x="126" y="-7" on="1"/>
        <pt x="217" y="599" on="1"/>
        <pt x="85" y="599" on="1"/>
        <pt x="85" y="693" on="1"/>
      </contour>
    </TTGlyph>
    <TTGlyph name="bracketright.flat" xMin="-29" yMin="-101" xMax="369" yMax="693">
      <contour>
        <pt x="-29" y="-101" on="1"/>
        <pt x="-15" y="-7" on="1"/>
        <pt x="126" y="-7" on="1"/>
        <pt x="217" y="599" on="1"/>
        <pt x="78" y="599" on="1"/>
        <pt x="91" y="693" on="1"/>
        <pt x="369" y="693" on="1"/>
        <pt x="250" y="-101" on="1"/>
      </contour>
    </TTGlyph>
    <TTGlyph name="breve" xMin="117" yMin="539" xMax="402" yMax="688">
      <contour>
        <pt x="402" y="675" on="1"/>
        <pt x="385" y="607" on="0"/>
        <pt x="305" y="539" on="0"/>
        <pt x="243" y="539" on="1"/>
        <pt x="180" y="539" on="0"/>
        <pt x="117" y="609" on="0"/>
        <pt x="118" y="675" on="1"/>
        <pt x="196" y="688" on="1"/>
        <pt x="200" y="658" on="0"/>
        <pt x="227" y="632" on="0"/>
        <pt x="252" y="632" on="1"/>
        <pt x="277" y="632" on="0"/>
        <pt x="312" y="659" on="0"/>
        <pt x="324" y="688" on="1"/>
      </contour>
    </TTGlyph>
    <TTGlyph name="bullet" xMin="78" yMin="178" xMax="380" yMax="510">
      <contour>
        <pt x="380" y="344" on="1"/>
        <pt x="357" y="199" on="1"/>
        <pt x="229" y="178" on="1"/>
        <pt x="100" y="199" on="1"/>
        <pt x="78" y="344" on="1"/>
        <pt x="100" y="490" on="1"/>
        <pt x="229" y="510" on="1"/>
        <pt x="357" y="490" on="1"/>
      </contour>
    </TTGlyph>
    <TTGlyph name="c" xMin="21" yMin="-9" xMax="403" yMax="500">
      <contour>
        <pt x="403" y="468" on="1"/>
        <pt x="366" y="345" on="1"/>
        <pt x="348" y="357" on="0"/>
        <pt x="309" y="372" on="0"/>
        <pt x="284" y="372" on="1"/>
        <pt x="234" y="372" on="0"/>
        <pt x="168" y="279" on="0"/>
        <pt x="168" y="215" on="1"/>
        <pt x="168" y="164" on="0"/>
        <pt x="215" y="117" on="0"/>
        <pt x="252" y="116" on="1"/>
        <pt x="274" y="116" on="0"/>
        <pt x="317" y="130" on="0"/>
        <pt x="340" y="142" on="1"/>
        <pt x="340" y="21" on="1"/>
        <pt x="316" y="8" on="0"/>
        <pt x="256" y="-9" on="0"/>
        <pt x="218" y="-9" on="1"/>
        <pt x="129" y="-9" on="0"/>
        <pt x="21" y="103" on="0"/>
        <pt x="21" y="202" on="1"/>
        <pt x="21" y="265" on="0"/>
        <pt x="59" y="375" on="0"/>
        <pt x="127" y="454" on="0"/>
        <pt x="222" y="500" on="0"/>
        <pt x="278" y="500" on="1"/>
        <pt x="318" y="500" on="0"/>
        <pt x="379" y="482" on="0"/>
      </contour>
    </TTGlyph>
    <TTGlyph name="cacute" xMin="21" yMin="-9" xMax="468" yMax="693">
      <component glyphName="c" x="0" y="0" flags="0x204"/>
      <component glyphName="acute" x="90" y="2" flags="0x4"/>
    </TTGlyph>
    <TTGlyph name="caron" xMin="104" yMin="541" xMax="415" yMax="688">
      <contour>
        <pt x="104" y="688" on="1"/>
        <pt x="198" y="688" on="1"/>
        <pt x="250" y="629" on="1"/>
        <pt x="321" y="688" on="1"/>
        <pt x="415" y="688" on="1"/>
        <pt x="301" y="541" on="1"/>
        <pt x="176" y="541" on="1"/>
      </contour>
    </TTGlyph>
    <TTGlyph name="caron.alt" xMin="171" yMin="503" xMax="326" yMax="708">
      <contour>
        <pt x="321" y="708" on="1"/>
        <pt x="324" y="698" on="0"/>
        <pt x="326" y="681" on="0"/>
        <pt x="326" y="673" on="1"/>
        <pt x="326" y="627" on="0"/>
        <pt x="285" y="543" on="0"/>
        <pt x="239" y="503" on="1"/>
        <pt x="171" y="518" on="1"/>
        <pt x="193" y="555" on="0"/>
        <pt x="211" y="614" on="0"/>
        <pt x="211" y="637" on="1"/>
        <pt x="211" y="649" on="0"/>
        <pt x="207" y="676" on="0"/>
        <pt x="203" y="692" on="1"/>
      </contour>
    </TTGlyph>
    <TTGlyph name="ccaron" xMin="21" yMin="-9" xMax="453" yMax="690">
      <component glyphName="c" x="0" y="0" flags="0x204"/>
      <component glyphName="caron" x="38" y="2" flags="0x4"/>
    </TTGlyph>
    <TTGlyph name="ccedilla" xMin="21" yMin="-181" xMax="403" yMax="500">
      <component glyphName="c" x="0" y="0" flags="0x204"/>
      <component glyphName="cedilla" x="11" y="-2" flags="0x4"/>
    </TTGlyph>
    <TTGlyph name="cdotaccent" xMin="21" yMin="-9" xMax="403" yMax="674">
      <component glyphName="c" x="0" y="0" flags="0x204"/>
      <component glyphName="dotaccent" x="39" y="2" flags="0x4"/>
    </TTGlyph>
    <TTGlyph name="cedilla" xMin="22" yMin="-179" xMax="258" yMax="-43">
      <contour>
        <pt x="258" y="-74" on="1"/>
        <pt x="114" y="-179" on="1"/>
        <pt x="22" y="-179" on="1"/>
        <pt x="91" y="-43" on="1"/>
      </contour>
    </TTGlyph>
    <TTGlyph name="cent" xMin="38" yMin="-11" xMax="452" yMax="693">
      <contour>
        <pt x="179" y="306" on="1"/>
        <pt x="179" y="272" on="0"/>
        <pt x="199" y="230" on="0"/>
        <pt x="217" y="219" on="1"/>
        <pt x="289" y="473" on="1"/>
        <pt x="239" y="469" on="0"/>
        <pt x="179" y="373" on="0"/>
      </contour>
      <contour>
        <pt x="387" y="121" on="1"/>
        <pt x="362" y="108" on="0"/>
        <pt x="293" y="89" on="0"/>
        <pt x="248" y="89" on="1"/>
        <pt x="220" y="-11" on="1"/>
        <pt x="149" y="6" on="1"/>
        <pt x="175" y="99" on="1"/>
        <pt x="115" y="116" on="0"/>
        <pt x="38" y="216" on="0"/>
        <pt x="38" y="298" on="1"/>
        <pt x="38" y="359" on="0"/>
        <pt x="75" y="467" on="0"/>
        <pt x="144" y="547" on="0"/>
        <pt x="242" y="593" on="0"/>
        <pt x="302" y="593" on="1"/>
        <pt x="306" y="593" on="0"/>
        <pt x="312" y="593" on="0"/>
        <pt x="316" y="593" on="1"/>
        <pt x="344" y="693" on="1"/>
        <pt x="415" y="677" on="1"/>
        <pt x="388" y="582" on="1"/>
        <pt x="406" y="577" on="0"/>
        <pt x="438" y="563" on="0"/>
        <pt x="452" y="555" on="1"/>
        <pt x="414" y="438" on="1"/>
        <pt x="401" y="448" on="0"/>
        <pt x="367" y="464" on="0"/>
        <pt x="349" y="468" on="1"/>
        <pt x="275" y="207" on="1"/>
        <pt x="307" y="208" on="0"/>
        <pt x="362" y="223" on="0"/>
        <pt x="387" y="235" on="1"/>
      </contour>
    </TTGlyph>
    <TTGlyph name="cent.tab" xMin="64" yMin="-11" xMax="478" yMax="693">
      <contour>
        <pt x="198" y="307" on="1"/>
        <pt x="198" y="272" on="0"/>
        <pt x="219" y="227" on="0"/>
        <pt x="239" y="217" on="1"/>
        <pt x="311" y="474" on="1"/>
        <pt x="260" y="470" on="0"/>
        <pt x="198" y="374" on="0"/>
      </contour>
      <contour>
        <pt x="413" y="121" on="1"/>
        <pt x="386" y="108" on="0"/>
        <pt x="317" y="90" on="0"/>
        <pt x="272" y="90" on="1"/>
        <pt x="244" y="-11" on="1"/>
        <pt x="173" y="6" on="1"/>
        <pt x="199" y="99" on="1"/>
        <pt x="139" y="117" on="0"/>
        <pt x="64" y="216" on="0"/>
        <pt x="64" y="295" on="1"/>
        <pt x="64" y="357" on="0"/>
        <pt x="102" y="467" on="0"/>
        <pt x="170" y="547" on="0"/>
        <pt x="266" y="593" on="0"/>
        <pt x="325" y="593" on="1"/>
        <pt x="329" y="593" on="0"/>
        <pt x="335" y="593" on="0"/>
        <pt x="338" y="593" on="1"/>
        <pt x="366" y="693" on="1"/>
        <pt x="437" y="677" on="1"/>
        <pt x="411" y="582" on="1"/>
        <pt x="430" y="577" on="0"/>
        <pt x="463" y="563" on="0"/>
        <pt x="478" y="555" on="1"/>
        <pt x="441" y="438" on="1"/>
        <pt x="426" y="448" on="0"/>
        <pt x="391" y="464" on="0"/>
        <pt x="371" y="469" on="1"/>
        <pt x="298" y="206" on="1"/>
        <pt x="331" y="207" on="0"/>
        <pt x="385" y="223" on="0"/>
        <pt x="413" y="236" on="1"/>
      </contour>
    </TTGlyph>
    <TTGlyph name="circumflex" xMin="85" yMin="541" xMax="396" yMax="688">
      <contour>
        <pt x="396" y="541" on="1"/>
        <pt x="303" y="541" on="1"/>
        <pt x="251" y="600" on="1"/>
        <pt x="179" y="541" on="1"/>
        <pt x="85" y="541" on="1"/>
        <pt x="199" y="688" on="1"/>
        <pt x="324" y="688" on="1"/>
      </contour>
    </TTGlyph>
    <TTGlyph name="colon" xMin="3" yMin="0" xMax="231" yMax="491">
      <contour>
        <pt x="231" y="491" on="1"/>
        <pt x="205" y="320" on="1"/>
        <pt x="51" y="320" on="1"/>
        <pt x="76" y="491" on="1"/>
      </contour>
      <contour>
        <pt x="183" y="171" on="1"/>
        <pt x="157" y="0" on="1"/>
        <pt x="3" y="0" on="1"/>
        <pt x="28" y="171" on="1"/>
      </contour>
    </TTGlyph>
    <TTGlyph name="colon.tab" xMin="11" yMin="0" xMax="235" yMax="491">
      <contour>
        <pt x="209" y="319" on="1"/>
        <pt x="59" y="319" on="1"/>
        <pt x="84" y="491" on="1"/>
        <pt x="235" y="491" on="1"/>
      </contour>
      <contour>
        <pt x="161" y="0" on="1"/>
        <pt x="11" y="0" on="1"/>
        <pt x="37" y="173" on="1"/>
        <pt x="187" y="173" on="1"/>
      </contour>
    </TTGlyph>
    <TTGlyph name="colonmonetary" xMin="34" yMin="-115" xMax="572" yMax="764">
      <contour>
        <pt x="306" y="-115" on="1"/>
        <pt x="240" y="-97" on="1"/>
        <pt x="269" y="-4" on="1"/>
        <pt x="256" y="-3" on="0"/>
        <pt x="229" y="0" on="0"/>
        <pt x="217" y="3" on="1"/>
        <pt x="181" y="-112" on="1"/>
        <pt x="115" y="-94" on="1"/>
        <pt x="153" y="28" on="1"/>
        <pt x="99" y="59" on="0"/>
        <pt x="34" y="184" on="0"/>
        <pt x="34" y="278" on="1"/>
        <pt x="34" y="363" on="0"/>
        <pt x="79" y="513" on="0"/>
        <pt x="161" y="623" on="0"/>
        <pt x="280" y="688" on="0"/>
        <pt x="353" y="688" on="1"/>
        <pt x="357" y="688" on="1"/>
        <pt x="381" y="764" on="1"/>
        <pt x="446" y="745" on="1"/>
        <pt x="426" y="679" on="1"/>
        <pt x="439" y="676" on="0"/>
        <pt x="464" y="667" on="0"/>
        <pt x="475" y="663" on="1"/>
        <pt x="506" y="761" on="1"/>
        <pt x="572" y="743" on="1"/>
        <pt x="382" y="130" on="1"/>
        <pt x="398" y="134" on="0"/>
        <pt x="431" y="149" on="0"/>
        <pt x="447" y="158" on="1"/>
        <pt x="447" y="32" on="1"/>
        <pt x="425" y="22" on="0"/>
        <pt x="372" y="3" on="0"/>
        <pt x="341" y="-1" on="1"/>
      </contour>
      <contour>
        <pt x="178" y="278" on="1"/>
        <pt x="178" y="239" on="0"/>
        <pt x="192" y="184" on="0"/>
        <pt x="204" y="165" on="1"/>
        <pt x="327" y="563" on="1"/>
        <pt x="292" y="556" on="0"/>
        <pt x="236" y="504" on="0"/>
        <pt x="198" y="426" on="0"/>
        <pt x="178" y="329" on="0"/>
      </contour>
      <contour>
        <pt x="308" y="118" on="1"/>
        <pt x="312" y="118" on="0"/>
        <pt x="318" y="118" on="0"/>
        <pt x="322" y="118" on="1"/>
        <pt x="451" y="536" on="1"/>
        <pt x="436" y="545" on="0"/>
        <pt x="402" y="558" on="0"/>
        <pt x="384" y="562" on="1"/>
        <pt x="250" y="128" on="1"/>
        <pt x="263" y="123" on="0"/>
        <pt x="292" y="118" on="0"/>
      </contour>
    </TTGlyph>
    <TTGlyph name="comma" xMin="-37" yMin="-133" xMax="201" yMax="172">
      <contour>
        <pt x="201" y="172" on="1"/>
        <pt x="44" y="-133" on="1"/>
        <pt x="-37" y="-112" on="1"/>
        <pt x="37" y="172" on="1"/>
      </contour>
    </TTGlyph>
    <TTGlyph name="comma.alt" xMin="-47" yMin="-134" xMax="180" yMax="172">
      <contour>
        <pt x="26" y="172" on="1"/>
        <pt x="177" y="172" on="1"/>
        <pt x="178" y="163" on="0"/>
        <pt x="180" y="144" on="0"/>
        <pt x="180" y="135" on="1"/>
        <pt x="179" y="63" on="0"/>
        <pt x="106" y="-65" on="0"/>
        <pt x="30" y="-134" on="1"/>
        <pt x="-47" y="-104" on="1"/>
        <pt x="-4" y="-38" on="0"/>
        <pt x="29" y="77" on="0"/>
        <pt x="29" y="126" on="1"/>
        <pt x="29" y="138" on="0"/>
        <pt x="27" y="160" on="0"/>
      </contour>
    </TTGlyph>
    <TTGlyph name="comma.tab" xMin="-30" yMin="-136" xMax="209" yMax="175">
      <contour>
        <pt x="209" y="175" on="1"/>
        <pt x="55" y="-136" on="1"/>
        <pt x="-30" y="-119" on="1"/>
        <pt x="48" y="175" on="1"/>
      </contour>
    </TTGlyph>
    <TTGlyph name="comma.tab_alt" xMin="-38" yMin="-137" xMax="186" yMax="175">
      <contour>
        <pt x="37" y="175" on="1"/>
        <pt x="184" y="175" on="1"/>
        <pt x="185" y="166" on="0"/>
        <pt x="186" y="148" on="0"/>
        <pt x="186" y="139" on="1"/>
        <pt x="186" y="67" on="0"/>
        <pt x="114" y="-64" on="0"/>
        <pt x="33" y="-137" on="1"/>
        <pt x="-38" y="-106" on="1"/>
        <pt x="6" y="-40" on="0"/>
        <pt x="40" y="73" on="0"/>
        <pt x="40" y="127" on="1"/>
        <pt x="40" y="139" on="0"/>
        <pt x="38" y="162" on="0"/>
      </contour>
    </TTGlyph>
    <TTGlyph name="commaaccent" xMin="62" yMin="-243" xMax="253" yMax="-43">
      <contour>
        <pt x="98" y="-67" on="1"/>
        <pt x="226" y="-43" on="1"/>
        <pt x="239" y="-59" on="0"/>
        <pt x="253" y="-91" on="0"/>
        <pt x="253" y="-108" on="1"/>
        <pt x="253" y="-142" on="0"/>
        <pt x="204" y="-209" on="0"/>
        <pt x="150" y="-243" on="1"/>
        <pt x="62" y="-227" on="1"/>
        <pt x="93" y="-196" on="0"/>
        <pt x="120" y="-148" on="0"/>
        <pt x="120" y="-125" on="1"/>
        <pt x="120" y="-112" on="0"/>
        <pt x="110" y="-83" on="0"/>
      </contour>
    </TTGlyph>
    <TTGlyph name="commaaccent.rot" xMin="234" yMin="536" xMax="425" yMax="737">
      <contour>
        <pt x="389" y="560" on="1"/>
        <pt x="260" y="536" on="1"/>
        <pt x="247" y="552" on="0"/>
        <pt x="234" y="584" on="0"/>
        <pt x="234" y="601" on="1"/>
        <pt x="234" y="635" on="0"/>
        <pt x="283" y="703" on="0"/>
        <pt x="337" y="737" on="1"/>
        <pt x="425" y="721" on="1"/>
        <pt x="394" y="689" on="0"/>
        <pt x="366" y="641" on="0"/>
        <pt x="366" y="619" on="1"/>
        <pt x="366" y="606" on="0"/>
        <pt x="377" y="577" on="0"/>
      </contour>
    </TTGlyph>
    <TTGlyph name="copyright" xMin="62" yMin="-18" xMax="686" yMax="708">
      <contour>
        <pt x="686" y="346" on="1"/>
        <pt x="686" y="265" on="0"/>
        <pt x="640" y="131" on="0"/>
        <pt x="558" y="35" on="0"/>
        <pt x="442" y="-18" on="0"/>
        <pt x="373" y="-18" on="1"/>
        <pt x="304" y="-18" on="0"/>
        <pt x="188" y="35" on="0"/>
        <pt x="107" y="129" on="0"/>
        <pt x="62" y="263" on="0"/>
        <pt x="62" y="344" on="1"/>
        <pt x="62" y="425" on="0"/>
        <pt x="108" y="560" on="0"/>
        <pt x="190" y="655" on="0"/>
        <pt x="305" y="708" on="0"/>
        <pt x="374" y="708" on="1"/>
        <pt x="444" y="708" on="0"/>
        <pt x="559" y="655" on="0"/>
        <pt x="641" y="561" on="0"/>
        <pt x="686" y="427" on="0"/>
      </contour>
      <contour>
        <pt x="643" y="345" on="1"/>
        <pt x="643" y="422" on="0"/>
        <pt x="601" y="544" on="0"/>
        <pt x="528" y="628" on="0"/>
        <pt x="430" y="672" on="0"/>
        <pt x="374" y="672" on="1"/>
        <pt x="318" y="672" on="0"/>
        <pt x="219" y="628" on="0"/>
        <pt x="147" y="544" on="0"/>
        <pt x="105" y="422" on="0"/>
        <pt x="105" y="345" on="1"/>
        <pt x="105" y="268" on="0"/>
        <pt x="147" y="146" on="0"/>
        <pt x="219" y="63" on="0"/>
        <pt x="318" y="19" on="0"/>
        <pt x="374" y="19" on="1"/>
        <pt x="430" y="19" on="0"/>
        <pt x="529" y="63" on="0"/>
        <pt x="601" y="146" on="0"/>
        <pt x="643" y="268" on="0"/>
      </contour>
      <contour>
        <pt x="504" y="169" on="1"/>
        <pt x="478" y="154" on="0"/>
        <pt x="424" y="140" on="0"/>
        <pt x="391" y="140" on="1"/>
        <pt x="306" y="140" on="0"/>
        <pt x="210" y="251" on="0"/>
        <pt x="210" y="348" on="1"/>
        <pt x="210" y="444" on="0"/>
        <pt x="309" y="557" on="0"/>
        <pt x="392" y="557" on="1"/>
        <pt x="424" y="557" on="0"/>
        <pt x="475" y="544" on="0"/>
        <pt x="498" y="532" on="1"/>
        <pt x="483" y="436" on="1"/>
        <pt x="461" y="451" on="0"/>
        <pt x="424" y="464" on="0"/>
        <pt x="404" y="464" on="1"/>
        <pt x="367" y="464" on="0"/>
        <pt x="324" y="403" on="0"/>
        <pt x="324" y="349" on="1"/>
        <pt x="324" y="293" on="0"/>
        <pt x="368" y="233" on="0"/>
        <pt x="408" y="233" on="1"/>
        <pt x="427" y="233" on="0"/>
        <pt x="465" y="245" on="0"/>
        <pt x="490" y="260" on="1"/>
      </contour>
    </TTGlyph>
    <TTGlyph name="d" xMin="20" yMin="-10" xMax="511" yMax="722">
      <contour>
        <pt x="314" y="374" on="1"/>
        <pt x="306" y="378" on="0"/>
        <pt x="289" y="381" on="0"/>
        <pt x="279" y="381" on="1"/>
        <pt x="235" y="381" on="0"/>
        <pt x="167" y="276" on="0"/>
        <pt x="167" y="192" on="1"/>
        <pt x="167" y="157" on="0"/>
        <pt x="189" y="120" on="0"/>
        <pt x="209" y="120" on="1"/>
        <pt x="226" y="120" on="0"/>
        <pt x="261" y="144" on="0"/>
        <pt x="283" y="168" on="1"/>
      </contour>
      <contour>
        <pt x="511" y="722" on="1"/>
        <pt x="421" y="121" on="1"/>
        <pt x="421" y="0" on="1"/>
        <pt x="283" y="0" on="1"/>
        <pt x="277" y="74" on="1"/>
        <pt x="246" y="36" on="0"/>
        <pt x="182" y="-10" on="0"/>
        <pt x="145" y="-10" on="1"/>
        <pt x="88" y="-10" on="0"/>
        <pt x="20" y="83" on="0"/>
        <pt x="20" y="164" on="1"/>
        <pt x="20" y="243" on="0"/>
        <pt x="62" y="367" on="0"/>
        <pt x="132" y="452" on="0"/>
        <pt x="228" y="496" on="0"/>
        <pt x="282" y="496" on="1"/>
        <pt x="295" y="496" on="0"/>
        <pt x="319" y="493" on="0"/>
        <pt x="331" y="490" on="1"/>
        <pt x="362" y="699" on="1"/>
      </contour>
    </TTGlyph>
    <TTGlyph name="dagger" xMin="62" yMin="-105" xMax="462" yMax="691">
      <contour>
        <pt x="342" y="617" on="1"/>
        <pt x="282" y="489" on="1"/>
        <pt x="253" y="489" on="1"/>
        <pt x="231" y="617" on="1"/>
        <pt x="243" y="691" on="1"/>
        <pt x="353" y="691" on="1"/>
      </contour>
      <contour>
        <pt x="224" y="438" on="1"/>
        <pt x="100" y="399" on="1"/>
        <pt x="62" y="399" on="1"/>
        <pt x="78" y="507" on="1"/>
        <pt x="116" y="507" on="1"/>
        <pt x="228" y="467" on="1"/>
      </contour>
      <contour>
        <pt x="446" y="399" on="1"/>
        <pt x="408" y="399" on="1"/>
        <pt x="296" y="438" on="1"/>
        <pt x="301" y="467" on="1"/>
        <pt x="424" y="507" on="1"/>
        <pt x="462" y="507" on="1"/>
      </contour>
      <contour>
        <pt x="249" y="21" on="1"/>
        <pt x="192" y="-105" on="1"/>
        <pt x="165" y="-105" on="1"/>
        <pt x="146" y="21" on="1"/>
        <pt x="187" y="295" on="1"/>
        <pt x="242" y="417" on="1"/>
        <pt x="271" y="417" on="1"/>
        <pt x="290" y="295" on="1"/>
      </contour>
    </TTGlyph>
    <TTGlyph name="daggerdbl" xMin="8" yMin="-171" xMax="466" yMax="691">
      <contour>
        <pt x="346" y="617" on="1"/>
        <pt x="286" y="489" on="1"/>
        <pt x="257" y="489" on="1"/>
        <pt x="235" y="617" on="1"/>
        <pt x="247" y="691" on="1"/>
        <pt x="357" y="691" on="1"/>
      </contour>
      <contour>
        <pt x="450" y="399" on="1"/>
        <pt x="412" y="399" on="1"/>
        <pt x="300" y="438" on="1"/>
        <pt x="305" y="467" on="1"/>
        <pt x="428" y="507" on="1"/>
        <pt x="466" y="507" on="1"/>
      </contour>
      <contour>
        <pt x="228" y="438" on="1"/>
        <pt x="104" y="399" on="1"/>
        <pt x="65" y="399" on="1"/>
        <pt x="82" y="507" on="1"/>
        <pt x="120" y="507" on="1"/>
        <pt x="232" y="467" on="1"/>
      </contour>
      <contour>
        <pt x="284" y="225" on="1"/>
        <pt x="229" y="104" on="1"/>
        <pt x="199" y="104" on="1"/>
        <pt x="181" y="225" on="1"/>
        <pt x="191" y="295" on="1"/>
        <pt x="246" y="417" on="1"/>
        <pt x="276" y="417" on="1"/>
        <pt x="294" y="295" on="1"/>
      </contour>
      <contour>
        <pt x="393" y="12" on="1"/>
        <pt x="355" y="12" on="1"/>
        <pt x="242" y="53" on="1"/>
        <pt x="247" y="81" on="1"/>
        <pt x="371" y="121" on="1"/>
        <pt x="409" y="121" on="1"/>
      </contour>
      <contour>
        <pt x="170" y="53" on="1"/>
        <pt x="47" y="12" on="1"/>
        <pt x="8" y="12" on="1"/>
        <pt x="25" y="121" on="1"/>
        <pt x="63" y="121" on="1"/>
        <pt x="175" y="81" on="1"/>
      </contour>
      <contour>
        <pt x="229" y="-171" on="1"/>
        <pt x="118" y="-171" on="1"/>
        <pt x="129" y="-97" on="1"/>
        <pt x="189" y="31" on="1"/>
        <pt x="218" y="31" on="1"/>
        <pt x="240" y="-97" on="1"/>
      </contour>
    </TTGlyph>
    <TTGlyph name="dcaron" xMin="20" yMin="-10" xMax="664" yMax="723">
      <component glyphName="d" x="0" y="0" flags="0x4"/>
      <component glyphName="caron.alt" x="338" y="15" flags="0x4"/>
    </TTGlyph>
    <TTGlyph name="dcroat" xMin="20" yMin="-10" xMax="559" yMax="722">
      <contour>
        <pt x="314" y="374" on="1"/>
        <pt x="306" y="378" on="0"/>
        <pt x="289" y="381" on="0"/>
        <pt x="279" y="381" on="1"/>
        <pt x="235" y="381" on="0"/>
        <pt x="167" y="276" on="0"/>
        <pt x="167" y="192" on="1"/>
        <pt x="167" y="157" on="0"/>
        <pt x="189" y="120" on="0"/>
        <pt x="209" y="120" on="1"/>
        <pt x="226" y="120" on="0"/>
        <pt x="261" y="144" on="0"/>
        <pt x="283" y="168" on="1"/>
      </contour>
      <contour>
        <pt x="277" y="74" on="1"/>
        <pt x="246" y="36" on="0"/>
        <pt x="182" y="-10" on="0"/>
        <pt x="145" y="-10" on="1"/>
        <pt x="88" y="-10" on="0"/>
        <pt x="20" y="83" on="0"/>
        <pt x="20" y="164" on="1"/>
        <pt x="20" y="243" on="0"/>
        <pt x="62" y="367" on="0"/>
        <pt x="132" y="452" on="0"/>
        <pt x="228" y="496" on="0"/>
        <pt x="282" y="496" on="1"/>
        <pt x="295" y="496" on="0"/>
        <pt x="319" y="493" on="0"/>
        <pt x="331" y="490" on="1"/>
        <pt x="340" y="551" on="1"/>
        <pt x="248" y="551" on="1"/>
        <pt x="248" y="643" on="1"/>
        <pt x="354" y="643" on="1"/>
        <pt x="362" y="699" on="1"/>
        <pt x="511" y="722" on="1"/>
        <pt x="499" y="643" on="1"/>
        <pt x="559" y="643" on="1"/>
        <pt x="544" y="550" on="1"/>
        <pt x="485" y="550" on="1"/>
        <pt x="421" y="121" on="1"/>
        <pt x="421" y="0" on="1"/>
        <pt x="283" y="0" on="1"/>
      </contour>
    </TTGlyph>
    <TTGlyph name="dcroat.flat" xMin="20" yMin="-10" xMax="559" yMax="722">
      <contour>
        <pt x="314" y="374" on="1"/>
        <pt x="306" y="378" on="0"/>
        <pt x="289" y="381" on="0"/>
        <pt x="279" y="381" on="1"/>
        <pt x="235" y="381" on="0"/>
        <pt x="167" y="276" on="0"/>
        <pt x="167" y="192" on="1"/>
        <pt x="167" y="157" on="0"/>
        <pt x="189" y="120" on="0"/>
        <pt x="209" y="120" on="1"/>
        <pt x="226" y="120" on="0"/>
        <pt x="261" y="144" on="0"/>
        <pt x="283" y="168" on="1"/>
      </contour>
      <contour>
        <pt x="277" y="74" on="1"/>
        <pt x="246" y="36" on="0"/>
        <pt x="182" y="-10" on="0"/>
        <pt x="145" y="-10" on="1"/>
        <pt x="88" y="-10" on="0"/>
        <pt x="20" y="83" on="0"/>
        <pt x="20" y="164" on="1"/>
        <pt x="20" y="243" on="0"/>
        <pt x="62" y="367" on="0"/>
        <pt x="132" y="452" on="0"/>
        <pt x="228" y="496" on="0"/>
        <pt x="282" y="496" on="1"/>
        <pt x="295" y="496" on="0"/>
        <pt x="319" y="493" on="0"/>
        <pt x="331" y="490" on="1"/>
        <pt x="340" y="551" on="1"/>
        <pt x="241" y="551" on="1"/>
        <pt x="255" y="643" on="1"/>
        <pt x="354" y="643" on="1"/>
        <pt x="362" y="699" on="1"/>
        <pt x="511" y="722" on="1"/>
        <pt x="499" y="643" on="1"/>
        <pt x="559" y="643" on="1"/>
        <pt x="544" y="550" on="1"/>
        <pt x="485" y="550" on="1"/>
        <pt x="421" y="121" on="1"/>
        <pt x="421" y="0" on="1"/>
        <pt x="283" y="0" on="1"/>
      </contour>
    </TTGlyph>
    <TTGlyph name="degree" xMin="77" yMin="363" xMax="404" yMax="690">
      <contour>
        <pt x="404" y="526" on="1"/>
        <pt x="404" y="455" on="0"/>
        <pt x="312" y="363" on="0"/>
        <pt x="240" y="363" on="1"/>
        <pt x="169" y="363" on="0"/>
        <pt x="77" y="455" on="0"/>
        <pt x="77" y="526" on="1"/>
        <pt x="77" y="596" on="0"/>
        <pt x="169" y="690" on="0"/>
        <pt x="240" y="690" on="1"/>
        <pt x="311" y="690" on="0"/>
        <pt x="404" y="596" on="0"/>
      </contour>
      <contour>
        <pt x="317" y="526" on="1"/>
        <pt x="317" y="561" on="0"/>
        <pt x="274" y="609" on="0"/>
        <pt x="240" y="609" on="1"/>
        <pt x="206" y="609" on="0"/>
        <pt x="164" y="561" on="0"/>
        <pt x="164" y="526" on="1"/>
        <pt x="164" y="490" on="0"/>
        <pt x="206" y="444" on="0"/>
        <pt x="240" y="444" on="1"/>
        <pt x="275" y="444" on="0"/>
        <pt x="317" y="490" on="0"/>
      </contour>
    </TTGlyph>
    <TTGlyph name="degree.tab" xMin="95" yMin="331" xMax="458" yMax="694">
      <contour>
        <pt x="276" y="331" on="1"/>
        <pt x="198" y="331" on="0"/>
        <pt x="95" y="433" on="0"/>
        <pt x="95" y="512" on="1"/>
        <pt x="95" y="590" on="0"/>
        <pt x="198" y="694" on="0"/>
        <pt x="276" y="694" on="1"/>
        <pt x="355" y="694" on="0"/>
        <pt x="458" y="590" on="0"/>
        <pt x="458" y="512" on="1"/>
        <pt x="458" y="433" on="0"/>
        <pt x="355" y="331" on="0"/>
      </contour>
      <contour>
        <pt x="276" y="613" on="1"/>
        <pt x="234" y="613" on="0"/>
        <pt x="182" y="555" on="0"/>
        <pt x="182" y="512" on="1"/>
        <pt x="182" y="468" on="0"/>
        <pt x="234" y="412" on="0"/>
        <pt x="276" y="412" on="1"/>
        <pt x="318" y="412" on="0"/>
        <pt x="370" y="468" on="0"/>
        <pt x="370" y="512" on="1"/>
        <pt x="370" y="555" on="0"/>
        <pt x="318" y="613" on="0"/>
      </contour>
    </TTGlyph>
    <TTGlyph name="dieresis" xMin="92" yMin="542" xMax="407" yMax="672">
      <contour>
        <pt x="211" y="542" on="1"/>
        <pt x="92" y="542" on="1"/>
        <pt x="111" y="672" on="1"/>
        <pt x="231" y="672" on="1"/>
      </contour>
      <contour>
        <pt x="387" y="542" on="1"/>
        <pt x="267" y="542" on="1"/>
        <pt x="286" y="672" on="1"/>
        <pt x="407" y="672" on="1"/>
      </contour>
    </TTGlyph>
    <TTGlyph name="divide" xMin="48" yMin="96" xMax="483" yMax="587">
      <contour>
        <pt x="348" y="461" on="1"/>
        <pt x="220" y="461" on="1"/>
        <pt x="239" y="587" on="1"/>
        <pt x="367" y="587" on="1"/>
      </contour>
      <contour>
        <pt x="466" y="285" on="1"/>
        <pt x="48" y="285" on="1"/>
        <pt x="65" y="398" on="1"/>
        <pt x="483" y="398" on="1"/>
      </contour>
      <contour>
        <pt x="293" y="96" on="1"/>
        <pt x="165" y="96" on="1"/>
        <pt x="183" y="221" on="1"/>
        <pt x="311" y="221" on="1"/>
      </contour>
    </TTGlyph>
    <TTGlyph name="divide.tab" xMin="37" yMin="96" xMax="477" yMax="590">
      <contour>
        <pt x="341" y="467" on="1"/>
        <pt x="212" y="467" on="1"/>
        <pt x="230" y="590" on="1"/>
        <pt x="359" y="590" on="1"/>
      </contour>
      <contour>
        <pt x="460" y="287" on="1"/>
        <pt x="37" y="287" on="1"/>
        <pt x="54" y="398" on="1"/>
        <pt x="477" y="398" on="1"/>
      </contour>
      <contour>
        <pt x="285" y="96" on="1"/>
        <pt x="156" y="96" on="1"/>
        <pt x="174" y="219" on="1"/>
        <pt x="303" y="219" on="1"/>
      </contour>
    </TTGlyph>
    <TTGlyph name="dollar" xMin="-5" yMin="-123" xMax="515" yMax="763">
      <contour>
        <pt x="213" y="500" on="1"/>
        <pt x="213" y="481" on="0"/>
        <pt x="236" y="453" on="0"/>
        <pt x="266" y="435" on="1"/>
        <pt x="305" y="565" on="1"/>
        <pt x="302" y="565" on="0"/>
        <pt x="296" y="565" on="0"/>
        <pt x="293" y="565" on="1"/>
        <pt x="254" y="565" on="0"/>
        <pt x="213" y="528" on="0"/>
      </contour>
      <contour>
        <pt x="248" y="119" on="1"/>
        <pt x="289" y="119" on="0"/>
        <pt x="335" y="159" on="0"/>
        <pt x="335" y="192" on="1"/>
        <pt x="335" y="214" on="0"/>
        <pt x="311" y="245" on="0"/>
        <pt x="277" y="265" on="1"/>
        <pt x="234" y="119" on="1"/>
        <pt x="237" y="119" on="0"/>
        <pt x="244" y="119" on="0"/>
      </contour>
      <contour>
        <pt x="244" y="-5" on="1"/>
        <pt x="234" y="-5" on="0"/>
        <pt x="212" y="-4" on="0"/>
        <pt x="202" y="-3" on="1"/>
        <pt x="166" y="-123" on="1"/>
        <pt x="96" y="-105" on="1"/>
        <pt x="131" y="10" on="1"/>
        <pt x="91" y="20" on="0"/>
        <pt x="23" y="53" on="0"/>
        <pt x="-5" y="69" on="1"/>
        <pt x="39" y="196" on="1"/>
        <pt x="70" y="176" on="0"/>
        <pt x="139" y="140" on="0"/>
        <pt x="174" y="130" on="1"/>
        <pt x="224" y="294" on="1"/>
        <pt x="151" y="332" on="0"/>
        <pt x="77" y="417" on="0"/>
        <pt x="77" y="482" on="1"/>
        <pt x="77" y="574" on="0"/>
        <pt x="200" y="688" on="0"/>
        <pt x="302" y="688" on="1"/>
        <pt x="311" y="688" on="0"/>
        <pt x="328" y="687" on="0"/>
        <pt x="336" y="687" on="1"/>
        <pt x="360" y="763" on="1"/>
        <pt x="430" y="745" on="1"/>
        <pt x="408" y="674" on="1"/>
        <pt x="439" y="666" on="0"/>
        <pt x="493" y="641" on="0"/>
        <pt x="515" y="628" on="1"/>
        <pt x="473" y="501" on="1"/>
        <pt x="449" y="518" on="0"/>
        <pt x="392" y="546" on="0"/>
        <pt x="364" y="554" on="1"/>
        <pt x="319" y="405" on="1"/>
        <pt x="396" y="365" on="0"/>
        <pt x="472" y="275" on="0"/>
        <pt x="472" y="209" on="1"/>
        <pt x="472" y="108" on="0"/>
        <pt x="344" y="-5" on="0"/>
      </contour>
    </TTGlyph>
    <TTGlyph name="dollar.tab" xMin="-10" yMin="-120" xMax="499" yMax="761">
      <contour>
        <pt x="206" y="502" on="1"/>
        <pt x="206" y="480" on="0"/>
        <pt x="230" y="448" on="0"/>
        <pt x="260" y="429" on="1"/>
        <pt x="303" y="572" on="1"/>
        <pt x="299" y="573" on="0"/>
        <pt x="291" y="573" on="0"/>
        <pt x="287" y="573" on="1"/>
        <pt x="246" y="573" on="0"/>
        <pt x="206" y="531" on="0"/>
      </contour>
      <contour>
        <pt x="232" y="110" on="1"/>
        <pt x="272" y="110" on="0"/>
        <pt x="323" y="155" on="0"/>
        <pt x="323" y="191" on="1"/>
        <pt x="323" y="212" on="0"/>
        <pt x="301" y="248" on="0"/>
        <pt x="269" y="270" on="1"/>
        <pt x="220" y="110" on="1"/>
        <pt x="223" y="110" on="0"/>
        <pt x="229" y="110" on="0"/>
      </contour>
      <contour>
        <pt x="227" y="-6" on="1"/>
        <pt x="218" y="-6" on="0"/>
        <pt x="200" y="-5" on="0"/>
        <pt x="191" y="-4" on="1"/>
        <pt x="156" y="-120" on="1"/>
        <pt x="83" y="-102" on="1"/>
        <pt x="118" y="10" on="1"/>
        <pt x="80" y="21" on="0"/>
        <pt x="14" y="54" on="0"/>
        <pt x="-10" y="70" on="1"/>
        <pt x="29" y="191" on="1"/>
        <pt x="57" y="171" on="0"/>
        <pt x="125" y="133" on="0"/>
        <pt x="160" y="122" on="1"/>
        <pt x="214" y="301" on="1"/>
        <pt x="146" y="337" on="0"/>
        <pt x="75" y="417" on="0"/>
        <pt x="75" y="485" on="1"/>
        <pt x="75" y="527" on="0"/>
        <pt x="103" y="602" on="0"/>
        <pt x="158" y="656" on="0"/>
        <pt x="240" y="688" on="0"/>
        <pt x="294" y="688" on="1"/>
        <pt x="304" y="688" on="0"/>
        <pt x="323" y="687" on="0"/>
        <pt x="332" y="686" on="1"/>
        <pt x="356" y="761" on="1"/>
        <pt x="428" y="743" on="1"/>
        <pt x="405" y="671" on="1"/>
        <pt x="431" y="663" on="0"/>
        <pt x="478" y="641" on="0"/>
        <pt x="499" y="628" on="1"/>
        <pt x="460" y="505" on="1"/>
        <pt x="441" y="518" on="0"/>
        <pt x="390" y="548" on="0"/>
        <pt x="362" y="558" on="1"/>
        <pt x="313" y="397" on="1"/>
        <pt x="391" y="355" on="0"/>
        <pt x="455" y="270" on="0"/>
        <pt x="455" y="208" on="1"/>
        <pt x="455" y="111" on="0"/>
        <pt x="328" y="-6" on="0"/>
      </contour>
    </TTGlyph>
    <TTGlyph name="dotaccent" xMin="176" yMin="542" xMax="321" yMax="672">
      <contour>
        <pt x="301" y="542" on="1"/>
        <pt x="176" y="542" on="1"/>
        <pt x="195" y="672" on="1"/>
        <pt x="321" y="672" on="1"/>
      </contour>
    </TTGlyph>
    <TTGlyph name="dotlessi" xMin="8" yMin="0" xMax="229" yMax="491">
      <contour>
        <pt x="229" y="491" on="1"/>
        <pt x="155" y="0" on="1"/>
        <pt x="8" y="0" on="1"/>
        <pt x="82" y="491" on="1"/>
      </contour>
    </TTGlyph>
    <TTGlyph name="e" xMin="21" yMin="-10" xMax="429" yMax="501">
      <contour>
        <pt x="252" y="400" on="1"/>
        <pt x="224" y="400" on="0"/>
        <pt x="182" y="340" on="0"/>
        <pt x="171" y="295" on="1"/>
        <pt x="295" y="295" on="1"/>
        <pt x="302" y="342" on="0"/>
        <pt x="282" y="400" on="0"/>
      </contour>
      <contour>
        <pt x="386" y="34" on="1"/>
        <pt x="347" y="13" on="0"/>
        <pt x="268" y="-10" on="0"/>
        <pt x="221" y="-10" on="1"/>
        <pt x="128" y="-10" on="0"/>
        <pt x="21" y="104" on="0"/>
        <pt x="21" y="198" on="1"/>
        <pt x="21" y="260" on="0"/>
        <pt x="57" y="371" on="0"/>
        <pt x="120" y="453" on="0"/>
        <pt x="210" y="501" on="0"/>
        <pt x="263" y="501" on="1"/>
        <pt x="345" y="501" on="0"/>
        <pt x="429" y="396" on="0"/>
        <pt x="429" y="318" on="1"/>
        <pt x="429" y="291" on="0"/>
        <pt x="421" y="233" on="0"/>
        <pt x="415" y="208" on="1"/>
        <pt x="160" y="208" on="1"/>
        <pt x="160" y="204" on="1"/>
        <pt x="160" y="150" on="0"/>
        <pt x="207" y="99" on="0"/>
        <pt x="249" y="99" on="1"/>
        <pt x="284" y="99" on="0"/>
        <pt x="353" y="123" on="0"/>
        <pt x="386" y="142" on="1"/>
      </contour>
    </TTGlyph>
    <TTGlyph name="eacute" xMin="21" yMin="-10" xMax="464" yMax="693">
      <component glyphName="e" x="0" y="0" flags="0x204"/>
      <component glyphName="acute" x="86" y="2" flags="0x4"/>
    </TTGlyph>
    <TTGlyph name="ebreve" xMin="21" yMin="-10" xMax="437" yMax="690">
      <component glyphName="e" x="0" y="0" flags="0x204"/>
      <component glyphName="breve" x="35" y="2" flags="0x4"/>
    </TTGlyph>
    <TTGlyph name="ecaron" xMin="21" yMin="-10" xMax="450" yMax="690">
      <component glyphName="e" x="0" y="0" flags="0x204"/>
      <component glyphName="caron" x="35" y="2" flags="0x4"/>
    </TTGlyph>
    <TTGlyph name="ecircumflex" xMin="21" yMin="-10" xMax="429" yMax="690">
      <component glyphName="e" x="0" y="0" flags="0x204"/>
      <component glyphName="circumflex" x="32" y="2" flags="0x4"/>
    </TTGlyph>
    <TTGlyph name="edieresis" xMin="21" yMin="-10" xMax="441" yMax="674">
      <component glyphName="e" x="0" y="0" flags="0x204"/>
      <component glyphName="dieresis" x="34" y="2" flags="0x4"/>
    </TTGlyph>
    <TTGlyph name="edotaccent" xMin="21" yMin="-10" xMax="429" yMax="674">
      <component glyphName="e" x="0" y="0" flags="0x204"/>
      <component glyphName="dotaccent" x="35" y="2" flags="0x4"/>
    </TTGlyph>
    <TTGlyph name="egrave" xMin="21" yMin="-10" xMax="429" yMax="693">
      <component glyphName="e" x="0" y="0" flags="0x204"/>
      <component glyphName="grave" x="-27" y="2" flags="0x4"/>
    </TTGlyph>
    <TTGlyph name="eight" xMin="20" yMin="-12" xMax="530" yMax="696">
      <contour>
        <pt x="252" y="-12" on="1"/>
        <pt x="194" y="-12" on="0"/>
        <pt x="106" y="16" on="0"/>
        <pt x="49" y="65" on="0"/>
        <pt x="20" y="130" on="0"/>
        <pt x="20" y="167" on="1"/>
        <pt x="20" y="231" on="0"/>
        <pt x="95" y="329" on="0"/>
        <pt x="163" y="363" on="1"/>
        <pt x="126" y="394" on="0"/>
        <pt x="88" y="464" on="0"/>
        <pt x="88" y="504" on="1"/>
        <pt x="88" y="544" on="0"/>
        <pt x="120" y="615" on="0"/>
        <pt x="178" y="666" on="0"/>
        <pt x="264" y="696" on="0"/>
        <pt x="318" y="696" on="1"/>
        <pt x="415" y="696" on="0"/>
        <pt x="530" y="603" on="0"/>
        <pt x="530" y="533" on="1"/>
        <pt x="530" y="478" on="0"/>
        <pt x="465" y="390" on="0"/>
        <pt x="405" y="357" on="1"/>
        <pt x="451" y="324" on="0"/>
        <pt x="498" y="245" on="0"/>
        <pt x="498" y="195" on="1"/>
        <pt x="498" y="151" on="0"/>
        <pt x="464" y="75" on="0"/>
        <pt x="400" y="20" on="0"/>
        <pt x="309" y="-12" on="0"/>
      </contour>
      <contour>
        <pt x="233" y="514" on="1"/>
        <pt x="233" y="485" on="0"/>
        <pt x="271" y="438" on="0"/>
        <pt x="315" y="412" on="1"/>
        <pt x="348" y="437" on="0"/>
        <pt x="385" y="492" on="0"/>
        <pt x="385" y="523" on="1"/>
        <pt x="385" y="552" on="0"/>
        <pt x="347" y="588" on="0"/>
        <pt x="313" y="588" on="1"/>
        <pt x="276" y="588" on="0"/>
        <pt x="233" y="544" on="0"/>
      </contour>
      <contour>
        <pt x="256" y="98" on="1"/>
        <pt x="296" y="98" on="0"/>
        <pt x="348" y="148" on="0"/>
        <pt x="348" y="188" on="1"/>
        <pt x="348" y="221" on="0"/>
        <pt x="305" y="274" on="0"/>
        <pt x="249" y="306" on="1"/>
        <pt x="211" y="279" on="0"/>
        <pt x="170" y="215" on="0"/>
        <pt x="170" y="179" on="1"/>
        <pt x="170" y="142" on="0"/>
        <pt x="217" y="98" on="0"/>
      </contour>
    </TTGlyph>
    <TTGlyph name="eight.den" xMin="9" yMin="-9" xMax="293" yMax="368">
      <component glyphName="eight.num" x="-49" y="-327" flags="0x4"/>
    </TTGlyph>
    <TTGlyph name="eight.inf" xMin="-14" yMin="-159" xMax="270" yMax="218">
      <component glyphName="eight.num" x="-72" y="-477" flags="0x4"/>
    </TTGlyph>
    <TTGlyph name="eight.num" xMin="58" yMin="318" xMax="342" yMax="695">
      <contour>
        <pt x="187" y="318" on="1"/>
        <pt x="127" y="318" on="0"/>
        <pt x="58" y="373" on="0"/>
        <pt x="58" y="416" on="1"/>
        <pt x="58" y="447" on="0"/>
        <pt x="94" y="498" on="0"/>
        <pt x="133" y="517" on="1"/>
        <pt x="114" y="531" on="0"/>
        <pt x="90" y="568" on="0"/>
        <pt x="90" y="593" on="1"/>
        <pt x="90" y="634" on="0"/>
        <pt x="159" y="695" on="0"/>
        <pt x="222" y="695" on="1"/>
        <pt x="277" y="695" on="0"/>
        <pt x="342" y="644" on="0"/>
        <pt x="342" y="604" on="1"/>
        <pt x="342" y="570" on="0"/>
        <pt x="304" y="526" on="0"/>
        <pt x="274" y="510" on="1"/>
        <pt x="296" y="495" on="0"/>
        <pt x="324" y="456" on="0"/>
        <pt x="324" y="429" on="1"/>
        <pt x="324" y="383" on="0"/>
        <pt x="251" y="318" on="0"/>
      </contour>
      <contour>
        <pt x="178" y="593" on="1"/>
        <pt x="178" y="576" on="0"/>
        <pt x="204" y="551" on="0"/>
        <pt x="226" y="538" on="1"/>
        <pt x="239" y="551" on="0"/>
        <pt x="254" y="579" on="0"/>
        <pt x="254" y="593" on="1"/>
        <pt x="254" y="609" on="0"/>
        <pt x="234" y="630" on="0"/>
        <pt x="217" y="630" on="1"/>
        <pt x="199" y="630" on="0"/>
        <pt x="178" y="608" on="0"/>
      </contour>
      <contour>
        <pt x="189" y="385" on="1"/>
        <pt x="210" y="385" on="0"/>
        <pt x="234" y="411" on="0"/>
        <pt x="234" y="427" on="1"/>
        <pt x="234" y="446" on="0"/>
        <pt x="206" y="474" on="0"/>
        <pt x="182" y="487" on="1"/>
        <pt x="164" y="473" on="0"/>
        <pt x="147" y="441" on="0"/>
        <pt x="147" y="427" on="1"/>
        <pt x="147" y="408" on="0"/>
        <pt x="171" y="385" on="0"/>
      </contour>
    </TTGlyph>
    <TTGlyph name="eight.sup" xMin="71" yMin="412" xMax="355" yMax="789">
      <component glyphName="eight.num" x="13" y="94" flags="0x4"/>
    </TTGlyph>
    <TTGlyph name="eight.tab" xMin="18" yMin="-11" xMax="488" yMax="697">
      <contour>
        <pt x="230" y="-11" on="1"/>
        <pt x="127" y="-11" on="0"/>
        <pt x="18" y="92" on="0"/>
        <pt x="18" y="166" on="1"/>
        <pt x="18" y="232" on="0"/>
        <pt x="90" y="331" on="0"/>
        <pt x="154" y="367" on="1"/>
        <pt x="119" y="396" on="0"/>
        <pt x="78" y="462" on="0"/>
        <pt x="78" y="508" on="1"/>
        <pt x="78" y="589" on="0"/>
        <pt x="197" y="697" on="0"/>
        <pt x="293" y="697" on="1"/>
        <pt x="380" y="697" on="0"/>
        <pt x="488" y="608" on="0"/>
        <pt x="488" y="533" on="1"/>
        <pt x="488" y="468" on="0"/>
        <pt x="414" y="377" on="0"/>
        <pt x="363" y="349" on="1"/>
        <pt x="401" y="320" on="0"/>
        <pt x="453" y="244" on="0"/>
        <pt x="453" y="190" on="1"/>
        <pt x="453" y="103" on="0"/>
        <pt x="327" y="-11" on="0"/>
      </contour>
      <contour>
        <pt x="214" y="509" on="1"/>
        <pt x="214" y="476" on="0"/>
        <pt x="252" y="427" on="0"/>
        <pt x="286" y="402" on="1"/>
        <pt x="314" y="425" on="0"/>
        <pt x="352" y="484" on="0"/>
        <pt x="352" y="521" on="1"/>
        <pt x="352" y="552" on="0"/>
        <pt x="317" y="590" on="0"/>
        <pt x="287" y="590" on="1"/>
        <pt x="253" y="590" on="0"/>
        <pt x="214" y="543" on="0"/>
      </contour>
      <contour>
        <pt x="234" y="94" on="1"/>
        <pt x="270" y="94" on="0"/>
        <pt x="315" y="147" on="0"/>
        <pt x="315" y="187" on="1"/>
        <pt x="315" y="228" on="0"/>
        <pt x="268" y="287" on="0"/>
        <pt x="229" y="315" on="1"/>
        <pt x="196" y="290" on="0"/>
        <pt x="156" y="220" on="0"/>
        <pt x="156" y="177" on="1"/>
        <pt x="156" y="140" on="0"/>
        <pt x="198" y="94" on="0"/>
      </contour>
    </TTGlyph>
    <TTGlyph name="ellipsis" xMin="0" yMin="0" xMax="648" yMax="174">
      <contour>
        <pt x="151" y="0" on="1"/>
        <pt x="0" y="0" on="1"/>
        <pt x="26" y="174" on="1"/>
        <pt x="177" y="174" on="1"/>
      </contour>
      <contour>
        <pt x="386" y="0" on="1"/>
        <pt x="236" y="0" on="1"/>
        <pt x="262" y="174" on="1"/>
        <pt x="413" y="174" on="1"/>
      </contour>
      <contour>
        <pt x="621" y="0" on="1"/>
        <pt x="471" y="0" on="1"/>
        <pt x="497" y="174" on="1"/>
        <pt x="648" y="174" on="1"/>
      </contour>
    </TTGlyph>
    <TTGlyph name="emacron" xMin="21" yMin="-10" xMax="433" yMax="656">
      <component glyphName="e" x="0" y="0" flags="0x204"/>
      <component glyphName="macron" x="34" y="2" flags="0x4"/>
    </TTGlyph>
    <TTGlyph name="emdash" xMin="27" yMin="221" xMax="756" yMax="360">
      <contour>
        <pt x="735" y="221" on="1"/>
        <pt x="27" y="221" on="1"/>
        <pt x="47" y="360" on="1"/>
        <pt x="756" y="360" on="1"/>
      </contour>
    </TTGlyph>
    <TTGlyph name="endash" xMin="27" yMin="221" xMax="390" yMax="361">
      <contour>
        <pt x="369" y="221" on="1"/>
        <pt x="27" y="221" on="1"/>
        <pt x="47" y="361" on="1"/>
        <pt x="390" y="361" on="1"/>
      </contour>
    </TTGlyph>
    <TTGlyph name="eogonek" xMin="21" yMin="-197" xMax="429" yMax="501">
      <contour>
        <pt x="257" y="-197" on="1"/>
        <pt x="214" y="-197" on="0"/>
        <pt x="169" y="-160" on="0"/>
        <pt x="169" y="-126" on="1"/>
        <pt x="169" y="-98" on="0"/>
        <pt x="205" y="-43" on="0"/>
        <pt x="241" y="-9" on="1"/>
        <pt x="236" y="-10" on="0"/>
        <pt x="227" y="-10" on="0"/>
        <pt x="220" y="-10" on="1"/>
        <pt x="129" y="-10" on="0"/>
        <pt x="21" y="102" on="0"/>
        <pt x="21" y="198" on="1"/>
        <pt x="21" y="260" on="0"/>
        <pt x="57" y="371" on="0"/>
        <pt x="122" y="453" on="0"/>
        <pt x="211" y="501" on="0"/>
        <pt x="264" y="501" on="1"/>
        <pt x="347" y="501" on="0"/>
        <pt x="429" y="396" on="0"/>
        <pt x="429" y="318" on="1"/>
        <pt x="429" y="291" on="0"/>
        <pt x="421" y="233" on="0"/>
        <pt x="415" y="208" on="1"/>
        <pt x="160" y="208" on="1"/>
        <pt x="160" y="197" on="1"/>
        <pt x="162" y="147" on="0"/>
        <pt x="208" y="99" on="0"/>
        <pt x="248" y="99" on="1"/>
        <pt x="284" y="99" on="0"/>
        <pt x="354" y="123" on="0"/>
        <pt x="387" y="142" on="1"/>
        <pt x="387" y="39" on="1"/>
        <pt x="386" y="38" on="0"/>
        <pt x="371" y="25" on="0"/>
        <pt x="354" y="9" on="0"/>
        <pt x="340" y="-5" on="0"/>
        <pt x="339" y="-6" on="1"/>
        <pt x="306" y="-36" on="0"/>
        <pt x="280" y="-73" on="0"/>
        <pt x="280" y="-89" on="1"/>
        <pt x="280" y="-100" on="0"/>
        <pt x="297" y="-114" on="0"/>
        <pt x="314" y="-114" on="1"/>
        <pt x="326" y="-114" on="0"/>
        <pt x="346" y="-111" on="0"/>
        <pt x="358" y="-108" on="1"/>
        <pt x="348" y="-180" on="1"/>
        <pt x="328" y="-187" on="0"/>
        <pt x="285" y="-197" on="0"/>
      </contour>
      <contour>
        <pt x="169" y="295" on="1"/>
        <pt x="295" y="295" on="1"/>
        <pt x="301" y="341" on="0"/>
        <pt x="281" y="400" on="0"/>
        <pt x="252" y="400" on="1"/>
        <pt x="225" y="400" on="0"/>
        <pt x="180" y="341" on="0"/>
      </contour>
    </TTGlyph>
    <TTGlyph name="equal" xMin="43" yMin="177" xMax="498" yMax="506">
      <contour>
        <pt x="480" y="392" on="1"/>
        <pt x="76" y="392" on="1"/>
        <pt x="93" y="506" on="1"/>
        <pt x="498" y="506" on="1"/>
      </contour>
      <contour>
        <pt x="448" y="177" on="1"/>
        <pt x="43" y="177" on="1"/>
        <pt x="60" y="291" on="1"/>
        <pt x="465" y="291" on="1"/>
      </contour>
    </TTGlyph>
    <TTGlyph name="equal.tab" xMin="30" yMin="173" xMax="486" yMax="513">
      <contour>
        <pt x="468" y="396" on="1"/>
        <pt x="64" y="396" on="1"/>
        <pt x="81" y="513" on="1"/>
        <pt x="486" y="513" on="1"/>
      </contour>
      <contour>
        <pt x="435" y="173" on="1"/>
        <pt x="30" y="173" on="1"/>
        <pt x="48" y="290" on="1"/>
        <pt x="452" y="290" on="1"/>
      </contour>
    </TTGlyph>
    <TTGlyph name="eth" xMin="19" yMin="-11" xMax="463" yMax="722">
      <contour>
        <pt x="207" y="-11" on="1"/>
        <pt x="167" y="-11" on="0"/>
        <pt x="98" y="14" on="0"/>
        <pt x="48" y="64" on="0"/>
        <pt x="19" y="142" on="0"/>
        <pt x="19" y="195" on="1"/>
        <pt x="19" y="251" on="0"/>
        <pt x="51" y="349" on="0"/>
        <pt x="105" y="419" on="0"/>
        <pt x="176" y="460" on="0"/>
        <pt x="216" y="460" on="1"/>
        <pt x="250" y="460" on="0"/>
        <pt x="304" y="433" on="0"/>
        <pt x="327" y="408" on="1"/>
        <pt x="325" y="448" on="0"/>
        <pt x="300" y="509" on="0"/>
        <pt x="278" y="533" on="1"/>
        <pt x="252" y="501" on="1"/>
        <pt x="170" y="501" on="1"/>
        <pt x="228" y="574" on="1"/>
        <pt x="214" y="583" on="0"/>
        <pt x="181" y="599" on="0"/>
        <pt x="163" y="606" on="1"/>
        <pt x="198" y="722" on="1"/>
        <pt x="227" y="712" on="0"/>
        <pt x="281" y="686" on="0"/>
        <pt x="304" y="671" on="1"/>
        <pt x="342" y="722" on="1"/>
        <pt x="420" y="704" on="1"/>
        <pt x="359" y="628" on="1"/>
        <pt x="410" y="580" on="0"/>
        <pt x="463" y="446" on="0"/>
        <pt x="463" y="361" on="1"/>
        <pt x="463" y="315" on="0"/>
        <pt x="447" y="224" on="0"/>
        <pt x="419" y="144" on="0"/>
        <pt x="380" y="77" on="0"/>
        <pt x="356" y="53" on="1"/>
        <pt x="322" y="19" on="0"/>
        <pt x="247" y="-11" on="0"/>
      </contour>
      <contour>
        <pt x="215" y="107" on="1"/>
        <pt x="252" y="107" on="0"/>
        <pt x="304" y="198" on="0"/>
        <pt x="315" y="279" on="1"/>
        <pt x="316" y="285" on="0"/>
        <pt x="318" y="297" on="0"/>
        <pt x="319" y="304" on="1"/>
        <pt x="302" y="323" on="0"/>
        <pt x="266" y="343" on="0"/>
        <pt x="245" y="343" on="1"/>
        <pt x="208" y="343" on="0"/>
        <pt x="160" y="254" on="0"/>
        <pt x="160" y="193" on="1"/>
        <pt x="160" y="150" on="0"/>
        <pt x="190" y="107" on="0"/>
      </contour>
    </TTGlyph>
    <TTGlyph name="exclam" xMin="17" yMin="0" xMax="288" yMax="690">
      <contour>
        <pt x="288" y="690" on="1"/>
        <pt x="177" y="249" on="1"/>
        <pt x="88" y="232" on="1"/>
        <pt x="109" y="690" on="1"/>
      </contour>
      <contour>
        <pt x="198" y="169" on="1"/>
        <pt x="172" y="0" on="1"/>
        <pt x="17" y="0" on="1"/>
        <pt x="43" y="169" on="1"/>
      </contour>
    </TTGlyph>
    <TTGlyph name="exclam.flat" xMin="17" yMin="0" xMax="288" yMax="690">
      <contour>
        <pt x="288" y="690" on="1"/>
        <pt x="175" y="241" on="1"/>
        <pt x="88" y="241" on="1"/>
        <pt x="109" y="690" on="1"/>
      </contour>
      <contour>
        <pt x="198" y="169" on="1"/>
        <pt x="172" y="0" on="1"/>
        <pt x="17" y="0" on="1"/>
        <pt x="43" y="169" on="1"/>
      </contour>
    </TTGlyph>
    <TTGlyph name="exclamdown" xMin="6" yMin="0" xMax="277" yMax="690">
      <contour>
        <pt x="277" y="690" on="1"/>
        <pt x="252" y="521" on="1"/>
        <pt x="97" y="521" on="1"/>
        <pt x="123" y="690" on="1"/>
      </contour>
      <contour>
        <pt x="207" y="456" on="1"/>
        <pt x="186" y="0" on="1"/>
        <pt x="6" y="0" on="1"/>
        <pt x="119" y="444" on="1"/>
      </contour>
    </TTGlyph>
    <TTGlyph name="exclamdown.flat" xMin="6" yMin="0" xMax="277" yMax="690">
      <contour>
        <pt x="97" y="521" on="1"/>
        <pt x="123" y="690" on="1"/>
        <pt x="277" y="690" on="1"/>
        <pt x="252" y="521" on="1"/>
      </contour>
      <contour>
        <pt x="6" y="0" on="1"/>
        <pt x="119" y="447" on="1"/>
        <pt x="207" y="452" on="1"/>
        <pt x="186" y="0" on="1"/>
      </contour>
    </TTGlyph>
    <TTGlyph name="f" xMin="7" yMin="-180" xMax="365" yMax="715">
      <contour>
        <pt x="365" y="594" on="1"/>
        <pt x="354" y="596" on="0"/>
        <pt x="333" y="600" on="0"/>
        <pt x="321" y="600" on="1"/>
        <pt x="295" y="600" on="0"/>
        <pt x="261" y="573" on="0"/>
        <pt x="256" y="536" on="1"/>
        <pt x="249" y="491" on="1"/>
        <pt x="326" y="491" on="1"/>
        <pt x="326" y="369" on="1"/>
        <pt x="231" y="369" on="1"/>
        <pt x="153" y="-158" on="1"/>
        <pt x="7" y="-180" on="1"/>
        <pt x="89" y="369" on="1"/>
        <pt x="28" y="369" on="1"/>
        <pt x="46" y="491" on="1"/>
        <pt x="107" y="491" on="1"/>
        <pt x="117" y="556" on="1"/>
        <pt x="128" y="632" on="0"/>
        <pt x="213" y="715" on="0"/>
        <pt x="297" y="715" on="1"/>
        <pt x="320" y="715" on="0"/>
        <pt x="352" y="712" on="0"/>
        <pt x="365" y="709" on="1"/>
      </contour>
    </TTGlyph>
    <TTGlyph name="f.flat" xMin="7" yMin="-180" xMax="365" yMax="715">
      <contour>
        <pt x="365" y="594" on="1"/>
        <pt x="354" y="596" on="0"/>
        <pt x="333" y="600" on="0"/>
        <pt x="321" y="600" on="1"/>
        <pt x="295" y="600" on="0"/>
        <pt x="261" y="573" on="0"/>
        <pt x="256" y="536" on="1"/>
        <pt x="249" y="491" on="1"/>
        <pt x="335" y="491" on="1"/>
        <pt x="317" y="369" on="1"/>
        <pt x="231" y="369" on="1"/>
        <pt x="153" y="-158" on="1"/>
        <pt x="7" y="-180" on="1"/>
        <pt x="89" y="369" on="1"/>
        <pt x="28" y="369" on="1"/>
        <pt x="46" y="491" on="1"/>
        <pt x="107" y="491" on="1"/>
        <pt x="117" y="556" on="1"/>
        <pt x="128" y="632" on="0"/>
        <pt x="213" y="715" on="0"/>
        <pt x="297" y="715" on="1"/>
        <pt x="320" y="715" on="0"/>
        <pt x="352" y="712" on="0"/>
        <pt x="365" y="709" on="1"/>
      </contour>
    </TTGlyph>
    <TTGlyph name="f_f" xMin="7" yMin="-180" xMax="681" yMax="715">
      <component glyphName="f" x="0" y="0" flags="0x4"/>
      <component glyphName="f" x="316" y="0" flags="0x4"/>
    </TTGlyph>
    <TTGlyph name="f_f.flat" xMin="7" yMin="-180" xMax="680" yMax="715">
      <component glyphName="f.flat" x="0" y="0" flags="0x4"/>
      <component glyphName="f.flat" x="315" y="0" flags="0x4"/>
    </TTGlyph>
    <TTGlyph name="f_f_i" xMin="7" yMin="-180" xMax="891" yMax="715">
      <component glyphName="f" x="0" y="0" flags="0x4"/>
      <component glyphName="f" x="316" y="0" flags="0x4"/>
      <component glyphName="i" x="628" y="0" flags="0x4"/>
    </TTGlyph>
    <TTGlyph name="f_f_i.flat" xMin="7" yMin="-180" xMax="892" yMax="715">
      <component glyphName="f.flat" x="0" y="0" flags="0x4"/>
      <component glyphName="f.flat" x="315" y="0" flags="0x4"/>
      <component glyphName="i" x="629" y="0" flags="0x4"/>
    </TTGlyph>
    <TTGlyph name="f_f_l" xMin="7" yMin="-180" xMax="891" yMax="722">
      <component glyphName="f" x="0" y="0" flags="0x4"/>
      <component glyphName="f" x="316" y="0" flags="0x4"/>
      <component glyphName="l" x="628" y="0" flags="0x4"/>
    </TTGlyph>
    <TTGlyph name="f_f_l.flat" xMin="7" yMin="-180" xMax="893" yMax="722">
      <component glyphName="f.flat" x="0" y="0" flags="0x4"/>
      <component glyphName="f.flat" x="315" y="0" flags="0x4"/>
      <component glyphName="l" x="630" y="0" flags="0x4"/>
    </TTGlyph>
    <TTGlyph name="fi" xMin="7" yMin="-180" xMax="575" yMax="715">
      <component glyphName="f" x="0" y="0" flags="0x4"/>
      <component glyphName="i" x="312" y="0" flags="0x4"/>
    </TTGlyph>
    <TTGlyph name="fi.flat" xMin="7" yMin="-180" xMax="577" yMax="715">
      <component glyphName="f.flat" x="0" y="0" flags="0x4"/>
      <component glyphName="i" x="314" y="0" flags="0x4"/>
    </TTGlyph>
    <TTGlyph name="five" xMin="-3" yMin="-12" xMax="491" yMax="683">
      <contour>
        <pt x="491" y="547" on="1"/>
        <pt x="249" y="547" on="1"/>
        <pt x="224" y="432" on="1"/>
        <pt x="336" y="414" on="0"/>
        <pt x="455" y="313" on="0"/>
        <pt x="455" y="220" on="1"/>
        <pt x="455" y="166" on="0"/>
        <pt x="418" y="79" on="0"/>
        <pt x="353" y="20" on="0"/>
        <pt x="261" y="-12" on="0"/>
        <pt x="207" y="-12" on="1"/>
        <pt x="144" y="-12" on="0"/>
        <pt x="40" y="15" on="0"/>
        <pt x="-3" y="37" on="1"/>
        <pt x="36" y="170" on="1"/>
        <pt x="75" y="149" on="0"/>
        <pt x="155" y="123" on="0"/>
        <pt x="201" y="123" on="1"/>
        <pt x="250" y="123" on="0"/>
        <pt x="302" y="172" on="0"/>
        <pt x="302" y="211" on="1"/>
        <pt x="302" y="261" on="0"/>
        <pt x="191" y="314" on="0"/>
        <pt x="67" y="325" on="1"/>
        <pt x="143" y="683" on="1"/>
        <pt x="491" y="683" on="1"/>
      </contour>
    </TTGlyph>
    <TTGlyph name="five.den" xMin="1" yMin="-8" xMax="280" yMax="358">
      <component glyphName="five.num" x="-49" y="-327" flags="0x4"/>
    </TTGlyph>
    <TTGlyph name="five.den_flat" xMin="1" yMin="-8" xMax="286" yMax="358">
      <component glyphName="five.num_flat" x="-49" y="-327" flags="0x4"/>
    </TTGlyph>
    <TTGlyph name="five.flat" xMin="-3" yMin="-12" xMax="502" yMax="683">
      <contour>
        <pt x="482" y="547" on="1"/>
        <pt x="249" y="547" on="1"/>
        <pt x="224" y="432" on="1"/>
        <pt x="336" y="414" on="0"/>
        <pt x="455" y="313" on="0"/>
        <pt x="455" y="220" on="1"/>
        <pt x="455" y="166" on="0"/>
        <pt x="418" y="79" on="0"/>
        <pt x="353" y="20" on="0"/>
        <pt x="261" y="-12" on="0"/>
        <pt x="207" y="-12" on="1"/>
        <pt x="144" y="-12" on="0"/>
        <pt x="40" y="15" on="0"/>
        <pt x="-3" y="37" on="1"/>
        <pt x="36" y="170" on="1"/>
        <pt x="75" y="149" on="0"/>
        <pt x="155" y="123" on="0"/>
        <pt x="201" y="123" on="1"/>
        <pt x="250" y="123" on="0"/>
        <pt x="302" y="172" on="0"/>
        <pt x="302" y="211" on="1"/>
        <pt x="302" y="261" on="0"/>
        <pt x="191" y="314" on="0"/>
        <pt x="67" y="325" on="1"/>
        <pt x="143" y="683" on="1"/>
        <pt x="502" y="683" on="1"/>
      </contour>
    </TTGlyph>
    <TTGlyph name="five.inf" xMin="-22" yMin="-158" xMax="257" yMax="208">
      <component glyphName="five.num" x="-72" y="-477" flags="0x4"/>
    </TTGlyph>
    <TTGlyph name="five.inf_flat" xMin="-22" yMin="-158" xMax="263" yMax="208">
      <component glyphName="five.num_flat" x="-72" y="-477" flags="0x4"/>
    </TTGlyph>
    <TTGlyph name="five.num" xMin="50" yMin="319" xMax="329" yMax="685">
      <contour>
        <pt x="316" y="442" on="1"/>
        <pt x="316" y="385" on="0"/>
        <pt x="237" y="319" on="0"/>
        <pt x="174" y="319" on="1"/>
        <pt x="140" y="319" on="0"/>
        <pt x="75" y="336" on="0"/>
        <pt x="50" y="349" on="1"/>
        <pt x="74" y="426" on="1"/>
        <pt x="98" y="413" on="0"/>
        <pt x="145" y="399" on="0"/>
        <pt x="167" y="399" on="1"/>
        <pt x="192" y="399" on="0"/>
        <pt x="217" y="421" on="0"/>
        <pt x="217" y="438" on="1"/>
        <pt x="217" y="460" on="0"/>
        <pt x="165" y="488" on="0"/>
        <pt x="87" y="504" on="1"/>
        <pt x="129" y="685" on="1"/>
        <pt x="329" y="685" on="1"/>
        <pt x="329" y="604" on="1"/>
        <pt x="190" y="604" on="1"/>
        <pt x="180" y="560" on="1"/>
        <pt x="248" y="546" on="0"/>
        <pt x="316" y="491" on="0"/>
      </contour>
    </TTGlyph>
    <TTGlyph name="five.num_flat" xMin="50" yMin="319" xMax="335" yMax="685">
      <contour>
        <pt x="316" y="442" on="1"/>
        <pt x="316" y="385" on="0"/>
        <pt x="237" y="319" on="0"/>
        <pt x="174" y="319" on="1"/>
        <pt x="140" y="319" on="0"/>
        <pt x="75" y="336" on="0"/>
        <pt x="50" y="349" on="1"/>
        <pt x="74" y="426" on="1"/>
        <pt x="98" y="413" on="0"/>
        <pt x="145" y="399" on="0"/>
        <pt x="167" y="399" on="1"/>
        <pt x="192" y="399" on="0"/>
        <pt x="217" y="421" on="0"/>
        <pt x="217" y="438" on="1"/>
        <pt x="217" y="460" on="0"/>
        <pt x="165" y="488" on="0"/>
        <pt x="87" y="504" on="1"/>
        <pt x="129" y="685" on="1"/>
        <pt x="335" y="685" on="1"/>
        <pt x="323" y="604" on="1"/>
        <pt x="190" y="604" on="1"/>
        <pt x="180" y="560" on="1"/>
        <pt x="248" y="546" on="0"/>
        <pt x="316" y="491" on="0"/>
      </contour>
    </TTGlyph>
    <TTGlyph name="five.sup" xMin="63" yMin="413" xMax="342" yMax="779">
      <component glyphName="five.num" x="13" y="94" flags="0x4"/>
    </TTGlyph>
    <TTGlyph name="five.sup_flat" xMin="63" yMin="413" xMax="348" yMax="779">
      <component glyphName="five.num_flat" x="13" y="94" flags="0x4"/>
    </TTGlyph>
    <TTGlyph name="five.tab" xMin="1" yMin="-9" xMax="484" yMax="685">
      <contour>
        <pt x="450" y="223" on="1"/>
        <pt x="450" y="170" on="0"/>
        <pt x="414" y="84" on="0"/>
        <pt x="349" y="24" on="0"/>
        <pt x="257" y="-9" on="0"/>
        <pt x="203" y="-9" on="1"/>
        <pt x="143" y="-9" on="0"/>
        <pt x="38" y="21" on="0"/>
        <pt x="1" y="43" on="1"/>
        <pt x="31" y="170" on="1"/>
        <pt x="71" y="148" on="0"/>
        <pt x="156" y="119" on="0"/>
        <pt x="194" y="119" on="1"/>
        <pt x="245" y="119" on="0"/>
        <pt x="303" y="170" on="0"/>
        <pt x="303" y="210" on="1"/>
        <pt x="303" y="262" on="0"/>
        <pt x="190" y="319" on="0"/>
        <pt x="71" y="338" on="1"/>
        <pt x="142" y="685" on="1"/>
        <pt x="484" y="685" on="1"/>
        <pt x="484" y="555" on="1"/>
        <pt x="242" y="555" on="1"/>
        <pt x="218" y="440" on="1"/>
        <pt x="333" y="412" on="0"/>
        <pt x="450" y="307" on="0"/>
      </contour>
    </TTGlyph>
    <TTGlyph name="five.tab_flat" xMin="1" yMin="-9" xMax="493" yMax="685">
      <contour>
        <pt x="450" y="223" on="1"/>
        <pt x="450" y="170" on="0"/>
        <pt x="414" y="84" on="0"/>
        <pt x="349" y="24" on="0"/>
        <pt x="257" y="-9" on="0"/>
        <pt x="203" y="-9" on="1"/>
        <pt x="143" y="-9" on="0"/>
        <pt x="38" y="21" on="0"/>
        <pt x="1" y="43" on="1"/>
        <pt x="31" y="170" on="1"/>
        <pt x="71" y="148" on="0"/>
        <pt x="156" y="119" on="0"/>
        <pt x="194" y="119" on="1"/>
        <pt x="245" y="119" on="0"/>
        <pt x="303" y="170" on="0"/>
        <pt x="303" y="210" on="1"/>
        <pt x="303" y="262" on="0"/>
        <pt x="190" y="319" on="0"/>
        <pt x="71" y="338" on="1"/>
        <pt x="142" y="685" on="1"/>
        <pt x="493" y="685" on="1"/>
        <pt x="474" y="555" on="1"/>
        <pt x="242" y="555" on="1"/>
        <pt x="218" y="440" on="1"/>
        <pt x="333" y="412" on="0"/>
        <pt x="450" y="307" on="0"/>
      </contour>
    </TTGlyph>
    <TTGlyph name="fiveeighths" xMin="50" yMin="-14" xMax="698" yMax="695">
      <component glyphName="five.num" x="0" y="0" flags="0x4"/>
      <component glyphName="fraction" x="238" y="0" flags="0x4"/>
      <component glyphName="eight.num" x="356" y="-327" flags="0x4"/>
    </TTGlyph>
    <TTGlyph name="fiveeighths.flat" xMin="50" yMin="-14" xMax="698" yMax="695">
      <component glyphName="five.num_flat" x="0" y="0" flags="0x4"/>
      <component glyphName="fraction" x="238" y="0" flags="0x4"/>
      <component glyphName="eight.num" x="356" y="-327" flags="0x4"/>
    </TTGlyph>
    <TTGlyph name="fivesixths" xMin="50" yMin="-14" xMax="684" yMax="695">
      <component glyphName="five.num" x="0" y="0" flags="0x4"/>
      <component glyphName="fraction" x="253" y="0" flags="0x4"/>
      <component glyphName="six.num" x="351" y="-327" flags="0x4"/>
    </TTGlyph>
    <TTGlyph name="fivesixths.flat" xMin="50" yMin="-14" xMax="684" yMax="695">
      <component glyphName="five.num_flat" x="0" y="0" flags="0x4"/>
      <component glyphName="fraction" x="253" y="0" flags="0x4"/>
      <component glyphName="six.num" x="351" y="-327" flags="0x4"/>
    </TTGlyph>
    <TTGlyph name="fl" xMin="7" yMin="-180" xMax="576" yMax="722">
      <component glyphName="f" x="0" y="0" flags="0x4"/>
      <component glyphName="l" x="313" y="0" flags="0x4"/>
    </TTGlyph>
    <TTGlyph name="fl.flat" xMin="7" yMin="-180" xMax="578" yMax="722">
      <component glyphName="f.flat" x="0" y="0" flags="0x4"/>
      <component glyphName="l" x="315" y="0" flags="0x4"/>
    </TTGlyph>
    <TTGlyph name="florin" xMin="43" yMin="0" xMax="415" yMax="691">
      <contour>
        <pt x="361" y="342" on="1"/>
        <pt x="258" y="342" on="1"/>
        <pt x="189" y="0" on="1"/>
        <pt x="43" y="0" on="1"/>
        <pt x="113" y="342" on="1"/>
        <pt x="48" y="342" on="1"/>
        <pt x="72" y="464" on="1"/>
        <pt x="138" y="464" on="1"/>
        <pt x="152" y="531" on="1"/>
        <pt x="168" y="611" on="0"/>
        <pt x="258" y="691" on="0"/>
        <pt x="342" y="691" on="1"/>
        <pt x="364" y="691" on="0"/>
        <pt x="402" y="686" on="0"/>
        <pt x="415" y="684" on="1"/>
        <pt x="410" y="568" on="1"/>
        <pt x="400" y="570" on="0"/>
        <pt x="377" y="573" on="0"/>
        <pt x="364" y="573" on="1"/>
        <pt x="333" y="573" on="0"/>
        <pt x="299" y="541" on="0"/>
        <pt x="292" y="507" on="1"/>
        <pt x="283" y="464" on="1"/>
        <pt x="366" y="464" on="1"/>
      </contour>
    </TTGlyph>
    <TTGlyph name="four" xMin="5" yMin="0" xMax="539" yMax="683">
      <contour>
        <pt x="539" y="248" on="1"/>
        <pt x="522" y="133" on="1"/>
        <pt x="435" y="133" on="1"/>
        <pt x="415" y="0" on="1"/>
        <pt x="270" y="0" on="1"/>
        <pt x="290" y="133" on="1"/>
        <pt x="5" y="133" on="1"/>
        <pt x="21" y="239" on="1"/>
        <pt x="332" y="683" on="1"/>
        <pt x="517" y="683" on="1"/>
        <pt x="452" y="248" on="1"/>
      </contour>
      <contour>
        <pt x="308" y="247" on="1"/>
        <pt x="351" y="530" on="1"/>
        <pt x="160" y="247" on="1"/>
      </contour>
    </TTGlyph>
    <TTGlyph name="four.alt" xMin="5" yMin="0" xMax="539" yMax="690">
      <contour>
        <pt x="521" y="133" on="1"/>
        <pt x="437" y="133" on="1"/>
        <pt x="417" y="0" on="1"/>
        <pt x="277" y="0" on="1"/>
        <pt x="297" y="133" on="1"/>
        <pt x="5" y="133" on="1"/>
        <pt x="21" y="240" on="1"/>
        <pt x="330" y="690" on="1"/>
        <pt x="472" y="654" on="1"/>
        <pt x="184" y="249" on="1"/>
        <pt x="315" y="249" on="1"/>
        <pt x="338" y="399" on="1"/>
        <pt x="482" y="433" on="1"/>
        <pt x="455" y="249" on="1"/>
        <pt x="539" y="249" on="1"/>
      </contour>
    </TTGlyph>
    <TTGlyph name="four.alt_flat" xMin="5" yMin="0" xMax="539" yMax="683">
      <contour>
        <pt x="521" y="133" on="1"/>
        <pt x="437" y="133" on="1"/>
        <pt x="417" y="0" on="1"/>
        <pt x="277" y="0" on="1"/>
        <pt x="297" y="133" on="1"/>
        <pt x="5" y="133" on="1"/>
        <pt x="21" y="240" on="1"/>
        <pt x="327" y="683" on="1"/>
        <pt x="492" y="683" on="1"/>
        <pt x="184" y="249" on="1"/>
        <pt x="315" y="249" on="1"/>
        <pt x="338" y="401" on="1"/>
        <pt x="477" y="401" on="1"/>
        <pt x="455" y="249" on="1"/>
        <pt x="539" y="249" on="1"/>
      </contour>
    </TTGlyph>
    <TTGlyph name="four.den" xMin="0" yMin="-1" xMax="293" yMax="363">
      <component glyphName="four.num" x="-49" y="-327" flags="0x4"/>
    </TTGlyph>
    <TTGlyph name="four.inf" xMin="-23" yMin="-151" xMax="270" yMax="213">
      <component glyphName="four.num" x="-72" y="-477" flags="0x4"/>
    </TTGlyph>
    <TTGlyph name="four.num" xMin="49" yMin="326" xMax="342" yMax="690">
      <contour>
        <pt x="332" y="395" on="1"/>
        <pt x="290" y="395" on="1"/>
        <pt x="279" y="326" on="1"/>
        <pt x="187" y="326" on="1"/>
        <pt x="198" y="395" on="1"/>
        <pt x="49" y="395" on="1"/>
        <pt x="57" y="459" on="1"/>
        <pt x="213" y="690" on="1"/>
        <pt x="334" y="690" on="1"/>
        <pt x="300" y="463" on="1"/>
        <pt x="342" y="463" on="1"/>
      </contour>
      <contour>
        <pt x="216" y="462" on="1"/>
        <pt x="226" y="526" on="1"/>
        <pt x="248" y="621" on="1"/>
        <pt x="239" y="621" on="1"/>
        <pt x="193" y="539" on="1"/>
        <pt x="169" y="504" on="1"/>
        <pt x="135" y="461" on="1"/>
        <pt x="136" y="458" on="1"/>
        <pt x="184" y="462" on="1"/>
      </contour>
    </TTGlyph>
    <TTGlyph name="four.sup" xMin="62" yMin="420" xMax="355" yMax="784">
      <component glyphName="four.num" x="13" y="94" flags="0x4"/>
    </TTGlyph>
    <TTGlyph name="four.tab" xMin="-3" yMin="0" xMax="474" yMax="690">
      <contour>
        <pt x="457" y="134" on="1"/>
        <pt x="386" y="134" on="1"/>
        <pt x="365" y="0" on="1"/>
        <pt x="228" y="0" on="1"/>
        <pt x="248" y="134" on="1"/>
        <pt x="-3" y="134" on="1"/>
        <pt x="13" y="238" on="1"/>
        <pt x="286" y="690" on="1"/>
        <pt x="469" y="690" on="1"/>
        <pt x="403" y="246" on="1"/>
        <pt x="474" y="246" on="1"/>
      </contour>
      <contour>
        <pt x="273" y="242" on="1"/>
        <pt x="296" y="386" on="1"/>
        <pt x="335" y="569" on="1"/>
        <pt x="324" y="569" on="1"/>
        <pt x="238" y="404" on="1"/>
        <pt x="143" y="242" on="1"/>
      </contour>
    </TTGlyph>
    <TTGlyph name="fourfifths" xMin="44" yMin="-14" xMax="684" yMax="695">
      <component glyphName="four.num" x="-5" y="0" flags="0x4"/>
      <component glyphName="fraction" x="244" y="0" flags="0x4"/>
      <component glyphName="five.num" x="355" y="-327" flags="0x4"/>
    </TTGlyph>
    <TTGlyph name="fourfifths.flat" xMin="44" yMin="-14" xMax="690" yMax="695">
      <component glyphName="four.num" x="-5" y="0" flags="0x4"/>
      <component glyphName="fraction" x="244" y="0" flags="0x4"/>
      <component glyphName="five.num_flat" x="355" y="-327" flags="0x4"/>
    </TTGlyph>
    <TTGlyph name="fraction" xMin="-130" yMin="-14" xMax="404" yMax="695">
      <contour>
        <pt x="161" y="327" on="1"/>
        <pt x="-63" y="-14" on="1"/>
        <pt x="-130" y="10" on="1"/>
        <pt x="113" y="355" on="1"/>
        <pt x="337" y="695" on="1"/>
        <pt x="404" y="672" on="1"/>
      </contour>
    </TTGlyph>
</ttFont>
